<svg xmlns="http://www.w3.org/2000/svg" width="1100" height="650" style="background:#1a1a2e">
<text x="550" y="28" fill="#ddd" font-size="18" text-anchor="middle" font-family="monospace" font-weight="bold">Benchmark Dashboard: SABnzbd vs rustnzbd</text>
<text x="60" y="55" fill="#F5A623" font-size="12" font-family="monospace">■ SABnzbd</text>
<text x="180" y="55" fill="#4A90D9" font-size="12" font-family="monospace">■ rustnzbd</text><text x="320" y="75" fill="#888" font-size="10" font-family="monospace">Total Time (s)</text><text x="510" y="75" fill="#888" font-size="10" font-family="monospace">Avg Speed (Mbps)</text><text x="700" y="75" fill="#888" font-size="10" font-family="monospace">CPU Peak (%)</text><text x="890" y="75" fill="#888" font-size="10" font-family="monospace">Mem Peak (MB)</text><line x1="10" y1="82" x2="1090" y2="82" stroke="#333" stroke-width="1"/><text x="15" y="108" fill="#ddd" font-size="11" font-family="monospace" font-weight="bold">sz5gb_raw</text><text x="15" y="122" fill="#888" font-size="9" font-family="monospace">5 GB raw download</text><rect x="320" y="95" width="107" height="14" fill="#F5A623" opacity="0.9" rx="2"/><rect x="320" y="112" width="140" height="14" fill="#4A90D9" opacity="0.9" rx="2"/><text x="429.91438489118417" y="105" fill="#ddd" font-size="8" font-family="monospace">11.1</text><text x="463" y="122" fill="#ddd" font-size="8" font-family="monospace">14.5</text><rect x="510" y="95" width="140" height="14" fill="#F5A623" opacity="0.9" rx="2"/><rect x="510" y="112" width="107" height="14" fill="#4A90D9" opacity="0.9" rx="2"/><text x="653" y="105" fill="#ddd" font-size="8" font-family="monospace">3870.9</text><text x="619.9143848911842" y="122" fill="#ddd" font-size="8" font-family="monospace">2956.1</text><rect x="700" y="95" width="92" height="14" fill="#F5A623" opacity="0.9" rx="2"/><rect x="700" y="112" width="140" height="14" fill="#4A90D9" opacity="0.9" rx="2"/><text x="795.0050511422991" y="105" fill="#ddd" font-size="8" font-family="monospace">187.7</text><text x="843" y="122" fill="#ddd" font-size="8" font-family="monospace">285.7</text><rect x="890" y="95" width="140" height="14" fill="#F5A623" opacity="0.9" rx="2"/><rect x="890" y="112" width="90" height="14" fill="#4A90D9" opacity="0.9" rx="2"/><text x="1033" y="105" fill="#ddd" font-size="8" font-family="monospace">293.3</text><text x="983.3367164815259" y="122" fill="#ddd" font-size="8" font-family="monospace">189.2</text><line x1="10" y1="175" x2="1090" y2="175" stroke="#333" stroke-width="1"/><text x="15" y="198" fill="#ddd" font-size="11" font-family="monospace" font-weight="bold">sz5gb_par2</text><text x="15" y="212" fill="#888" font-size="9" font-family="monospace">5 GB download + par2 repair (5% missing)</text><rect x="320" y="185" width="140" height="14" fill="#F5A623" opacity="0.9" rx="2"/><rect x="320" y="202" width="34" height="14" fill="#4A90D9" opacity="0.9" rx="2"/><text x="463" y="195" fill="#ddd" font-size="8" font-family="monospace">58.4</text><text x="357.28632232379994" y="212" fill="#ddd" font-size="8" font-family="monospace">14.3</text><rect x="510" y="185" width="34" height="14" fill="#F5A623" opacity="0.9" rx="2"/><rect x="510" y="202" width="140" height="14" fill="#4A90D9" opacity="0.9" rx="2"/><text x="547.2863223237999" y="195" fill="#ddd" font-size="8" font-family="monospace">735.4</text><text x="653" y="212" fill="#ddd" font-size="8" font-family="monospace">3002.8</text><rect x="700" y="185" width="75" height="14" fill="#F5A623" opacity="0.9" rx="2"/><rect x="700" y="202" width="140" height="14" fill="#4A90D9" opacity="0.9" rx="2"/><text x="777.5593675427529" y="195" fill="#ddd" font-size="8" font-family="monospace">133.4</text><text x="843" y="212" fill="#ddd" font-size="8" font-family="monospace">250.5</text><rect x="890" y="185" width="140" height="14" fill="#F5A623" opacity="0.9" rx="2"/><rect x="890" y="202" width="25" height="14" fill="#4A90D9" opacity="0.9" rx="2"/><text x="1033" y="195" fill="#ddd" font-size="8" font-family="monospace">1257.0</text><text x="917.5899031081224" y="212" fill="#ddd" font-size="8" font-family="monospace">220.8</text><line x1="10" y1="265" x2="1090" y2="265" stroke="#333" stroke-width="1"/><text x="15" y="288" fill="#ddd" font-size="11" font-family="monospace" font-weight="bold">sz5gb_unpack</text><text x="15" y="302" fill="#888" font-size="9" font-family="monospace">5 GB download + 7z extraction</text><rect x="320" y="275" width="140" height="14" fill="#F5A623" opacity="0.9" rx="2"/><rect x="320" y="292" width="117" height="14" fill="#4A90D9" opacity="0.9" rx="2"/><text x="463" y="285" fill="#ddd" font-size="8" font-family="monospace">18.1</text><text x="440.0307241632448" y="302" fill="#ddd" font-size="8" font-family="monospace">15.2</text><rect x="510" y="275" width="117" height="14" fill="#F5A623" opacity="0.9" rx="2"/><rect x="510" y="292" width="140" height="14" fill="#4A90D9" opacity="0.9" rx="2"/><text x="630.0307241632448" y="285" fill="#ddd" font-size="8" font-family="monospace">2367.2</text><text x="653" y="302" fill="#ddd" font-size="8" font-family="monospace">2831.8</text><rect x="700" y="275" width="105" height="14" fill="#F5A623" opacity="0.9" rx="2"/><rect x="700" y="292" width="140" height="14" fill="#4A90D9" opacity="0.9" rx="2"/><text x="807.6370422005064" y="285" fill="#ddd" font-size="8" font-family="monospace">185.4</text><text x="843" y="302" fill="#ddd" font-size="8" font-family="monospace">248.1</text><rect x="890" y="275" width="140" height="14" fill="#F5A623" opacity="0.9" rx="2"/><rect x="890" y="292" width="105" height="14" fill="#4A90D9" opacity="0.9" rx="2"/><text x="1033" y="285" fill="#ddd" font-size="8" font-family="monospace">303.1</text><text x="998.4772276206924" y="302" fill="#ddd" font-size="8" font-family="monospace">228.4</text><line x1="10" y1="355" x2="1090" y2="355" stroke="#333" stroke-width="1"/><text x="15" y="378" fill="#ddd" font-size="11" font-family="monospace" font-weight="bold">sz10gb_raw</text><text x="15" y="392" fill="#888" font-size="9" font-family="monospace">10 GB raw download</text><rect x="320" y="365" width="104" height="14" fill="#F5A623" opacity="0.9" rx="2"/><rect x="320" y="382" width="140" height="14" fill="#4A90D9" opacity="0.9" rx="2"/><text x="427.2126560685887" y="375" fill="#ddd" font-size="8" font-family="monospace">19.1</text><text x="463" y="392" fill="#ddd" font-size="8" font-family="monospace">25.7</text><rect x="510" y="365" width="140" height="14" fill="#F5A623" opacity="0.9" rx="2"/><rect x="510" y="382" width="104" height="14" fill="#4A90D9" opacity="0.9" rx="2"/><text x="653" y="375" fill="#ddd" font-size="8" font-family="monospace">4488.4</text><text x="617.2126560685887" y="392" fill="#ddd" font-size="8" font-family="monospace">3341.0</text><rect x="700" y="365" width="123" height="14" fill="#F5A623" opacity="0.9" rx="2"/><rect x="700" y="382" width="140" height="14" fill="#4A90D9" opacity="0.9" rx="2"/><text x="826.1746023899416" y="375" fill="#ddd" font-size="8" font-family="monospace">190.1</text><text x="843" y="392" fill="#ddd" font-size="8" font-family="monospace">216.1</text><rect x="890" y="365" width="140" height="14" fill="#F5A623" opacity="0.9" rx="2"/><rect x="890" y="382" width="134" height="14" fill="#4A90D9" opacity="0.9" rx="2"/><text x="1033" y="375" fill="#ddd" font-size="8" font-family="monospace">349.5</text><text x="1027.3412213143158" y="392" fill="#ddd" font-size="8" font-family="monospace">335.3</text><line x1="10" y1="445" x2="1090" y2="445" stroke="#333" stroke-width="1"/><text x="15" y="468" fill="#ddd" font-size="11" font-family="monospace" font-weight="bold">sz10gb_par2</text><text x="15" y="482" fill="#888" font-size="9" font-family="monospace">10 GB download + par2 repair (5% missing)</text><rect x="320" y="455" width="140" height="14" fill="#F5A623" opacity="0.9" rx="2"/><rect x="320" y="472" width="21" height="14" fill="#4A90D9" opacity="0.9" rx="2"/><text x="463" y="465" fill="#ddd" font-size="8" font-family="monospace">158.1</text><text x="344.20991040590707" y="482" fill="#ddd" font-size="8" font-family="monospace">24.0</text><rect x="510" y="455" width="21" height="14" fill="#F5A623" opacity="0.9" rx="2"/><rect x="510" y="472" width="140" height="14" fill="#4A90D9" opacity="0.9" rx="2"/><text x="534.2099104059071" y="465" fill="#ddd" font-size="8" font-family="monospace">543.2</text><text x="653" y="482" fill="#ddd" font-size="8" font-family="monospace">3585.6</text><rect x="700" y="455" width="121" height="14" fill="#F5A623" opacity="0.9" rx="2"/><rect x="700" y="472" width="140" height="14" fill="#4A90D9" opacity="0.9" rx="2"/><text x="823.5618231329498" y="465" fill="#ddd" font-size="8" font-family="monospace">167.8</text><text x="843" y="482" fill="#ddd" font-size="8" font-family="monospace">194.9</text><rect x="890" y="455" width="140" height="14" fill="#F5A623" opacity="0.9" rx="2"/><rect x="890" y="472" width="27" height="14" fill="#4A90D9" opacity="0.9" rx="2"/><text x="1033" y="465" fill="#ddd" font-size="8" font-family="monospace">2104.5</text><text x="919.8618701670893" y="482" fill="#ddd" font-size="8" font-family="monospace">403.8</text><line x1="10" y1="535" x2="1090" y2="535" stroke="#333" stroke-width="1"/><text x="15" y="558" fill="#ddd" font-size="11" font-family="monospace" font-weight="bold">sz10gb_unpack</text><text x="15" y="572" fill="#888" font-size="9" font-family="monospace">10 GB download + 7z extraction</text><rect x="320" y="545" width="140" height="14" fill="#F5A623" opacity="0.9" rx="2"/><rect x="320" y="562" width="91" height="14" fill="#4A90D9" opacity="0.9" rx="2"/><text x="463" y="555" fill="#ddd" font-size="8" font-family="monospace">42.3</text><text x="414.3172970456884" y="572" fill="#ddd" font-size="8" font-family="monospace">27.6</text><rect x="510" y="545" width="91" height="14" fill="#F5A623" opacity="0.9" rx="2"/><rect x="510" y="562" width="140" height="14" fill="#4A90D9" opacity="0.9" rx="2"/><text x="604.3172970456884" y="555" fill="#ddd" font-size="8" font-family="monospace">2030.4</text><text x="653" y="572" fill="#ddd" font-size="8" font-family="monospace">3112.9</text><rect x="700" y="545" width="125" height="14" fill="#F5A623" opacity="0.9" rx="2"/><rect x="700" y="562" width="140" height="14" fill="#4A90D9" opacity="0.9" rx="2"/><text x="827.5821909546166" y="555" fill="#ddd" font-size="8" font-family="monospace">183.9</text><text x="843" y="572" fill="#ddd" font-size="8" font-family="monospace">206.6</text><rect x="890" y="545" width="140" height="14" fill="#F5A623" opacity="0.9" rx="2"/><rect x="890" y="562" width="8" height="14" fill="#4A90D9" opacity="0.9" rx="2"/><text x="1033" y="555" fill="#ddd" font-size="8" font-family="monospace">7368.6</text><text x="901.1972293612221" y="572" fill="#ddd" font-size="8" font-family="monospace">431.4</text></svg>