<svg xmlns="http://www.w3.org/2000/svg" width="850" height="880" style="background:#1a1a2e">
<text x="425" y="28" fill="#ddd" font-size="16" text-anchor="middle" font-family="monospace" font-weight="bold">sz10gb_raw — Time Series</text>
<text x="425" y="48" fill="#888" font-size="12" text-anchor="middle" font-family="monospace">10 GB raw download</text>
<text x="630" y="66" fill="#F5A623" font-size="11" font-family="monospace">— SABnzbd</text>
<text x="740" y="66" fill="#4A90D9" font-size="11" font-family="monospace">— rustnzbd</text><rect x="70" y="75" width="750" height="160" fill="#16213e" rx="4"/><text x="445" y="67" fill="#ddd" font-size="13" text-anchor="middle" font-family="monospace" font-weight="bold">CPU (%)</text><line x1="70" y1="235" x2="820" y2="235" stroke="#333" stroke-width="0.5"/><text x="66" y="238" fill="#888" font-size="8" text-anchor="end" font-family="monospace">0</text><line x1="70" y1="198" x2="820" y2="198" stroke="#333" stroke-width="0.5"/><text x="66" y="200.5" fill="#888" font-size="8" text-anchor="end" font-family="monospace">54</text><line x1="70" y1="160" x2="820" y2="160" stroke="#333" stroke-width="0.5"/><text x="66" y="163" fill="#888" font-size="8" text-anchor="end" font-family="monospace">108</text><line x1="70" y1="122" x2="820" y2="122" stroke="#333" stroke-width="0.5"/><text x="66" y="125.5" fill="#888" font-size="8" text-anchor="end" font-family="monospace">162</text><line x1="70" y1="85" x2="820" y2="85" stroke="#333" stroke-width="0.5"/><text x="66" y="88" fill="#888" font-size="8" text-anchor="end" font-family="monospace">216</text><polyline points="70.0,136.5 101.5,119.0 132.7,115.0 164.0,109.3 195.2,109.1 226.5,115.6 257.7,117.0 289.0,110.4 320.2,113.1 351.5,124.3 382.8,131.9 414.0,130.2 445.2,120.4 476.5,135.7 507.8,115.1 539.0,112.7 570.2,127.6 601.4,103.0 632.7,213.5" fill="none" stroke="#F5A623" stroke-width="2" opacity="0.9"/><polyline points="70.0,100.3 101.2,122.5 132.5,122.2 163.7,130.2 194.9,141.8 226.2,136.6 257.4,150.3 288.7,210.9 319.9,114.9 351.2,127.3 382.4,113.6 413.7,131.3 444.9,113.1 476.2,114.4 507.4,114.5 538.7,104.0 569.9,96.8 601.2,105.1 632.7,95.8 663.8,85.0 695.0,111.3 726.3,106.1 757.5,111.5 788.8,165.5 820.0,176.9" fill="none" stroke="#4A90D9" stroke-width="2" opacity="0.9"/><rect x="70" y="275" width="750" height="160" fill="#16213e" rx="4"/><text x="445" y="267" fill="#ddd" font-size="13" text-anchor="middle" font-family="monospace" font-weight="bold">Memory (MB)</text><line x1="70" y1="435" x2="820" y2="435" stroke="#333" stroke-width="0.5"/><text x="66" y="438" fill="#888" font-size="8" text-anchor="end" font-family="monospace">0</text><line x1="70" y1="398" x2="820" y2="398" stroke="#333" stroke-width="0.5"/><text x="66" y="400.5" fill="#888" font-size="8" text-anchor="end" font-family="monospace">87</text><line x1="70" y1="360" x2="820" y2="360" stroke="#333" stroke-width="0.5"/><text x="66" y="363" fill="#888" font-size="8" text-anchor="end" font-family="monospace">175</text><line x1="70" y1="322" x2="820" y2="322" stroke="#333" stroke-width="0.5"/><text x="66" y="325.5" fill="#888" font-size="8" text-anchor="end" font-family="monospace">262</text><line x1="70" y1="285" x2="820" y2="285" stroke="#333" stroke-width="0.5"/><text x="66" y="288" fill="#888" font-size="8" text-anchor="end" font-family="monospace">349</text><polyline points="70.0,375.8 101.5,371.1 132.7,363.3 164.0,357.3 195.2,339.5 226.5,327.2 257.7,319.3 289.0,306.1 320.2,314.6 351.5,309.4 382.8,310.6 414.0,310.3 445.2,306.8 476.5,304.7 507.8,303.3 539.0,299.2 570.2,292.0 601.4,285.0 632.7,306.9" fill="none" stroke="#F5A623" stroke-width="2" opacity="0.9"/><polyline points="70.0,393.3 101.2,382.8 132.5,379.4 163.7,373.3 194.9,370.3 226.2,363.5 257.4,357.1 288.7,354.1 319.9,351.0 351.2,344.9 382.4,338.4 413.7,333.2 444.9,324.9 476.2,318.7 507.4,316.1 538.7,313.1 569.9,310.5 601.2,306.0 632.7,301.8 663.8,300.3 695.0,303.3 726.3,295.8 757.5,296.8 788.8,293.6 820.0,291.1" fill="none" stroke="#4A90D9" stroke-width="2" opacity="0.9"/><rect x="70" y="475" width="750" height="160" fill="#16213e" rx="4"/><text x="445" y="467" fill="#ddd" font-size="13" text-anchor="middle" font-family="monospace" font-weight="bold">Net RX (Mbps)</text><line x1="70" y1="635" x2="820" y2="635" stroke="#333" stroke-width="0.5"/><text x="66" y="638" fill="#888" font-size="8" text-anchor="end" font-family="monospace">0</text><line x1="70" y1="598" x2="820" y2="598" stroke="#333" stroke-width="0.5"/><text x="66" y="600.5" fill="#888" font-size="8" text-anchor="end" font-family="monospace">1739</text><line x1="70" y1="560" x2="820" y2="560" stroke="#333" stroke-width="0.5"/><text x="66" y="563" fill="#888" font-size="8" text-anchor="end" font-family="monospace">3478</text><line x1="70" y1="522" x2="820" y2="522" stroke="#333" stroke-width="0.5"/><text x="66" y="525.5" fill="#888" font-size="8" text-anchor="end" font-family="monospace">5217</text><line x1="70" y1="485" x2="820" y2="485" stroke="#333" stroke-width="0.5"/><text x="66" y="488" fill="#888" font-size="8" text-anchor="end" font-family="monospace">6956</text><polyline points="70.0,535.1 101.5,518.0 132.7,505.8 164.0,492.5 195.2,485.0 226.5,509.6 257.7,518.4 289.0,518.9 320.2,538.5 351.5,553.8 382.8,559.1 414.0,566.9 445.2,538.1 476.5,564.0 507.8,536.4 539.0,529.7 570.2,547.8 601.4,508.0 632.7,632.1" fill="none" stroke="#F5A623" stroke-width="2" opacity="0.9"/><polyline points="70.0,537.6 101.2,545.6 132.5,543.5 163.7,546.5 194.9,559.7 226.2,548.4 257.4,561.7 288.7,616.3 319.9,544.3 351.2,545.7 382.4,547.9 413.7,545.2 444.9,548.3 476.2,544.9 507.4,547.3 538.7,574.5 569.9,571.0 601.2,575.1 632.7,571.5 663.8,571.0 695.0,554.1 726.3,551.2 757.5,551.0 788.8,584.3 820.0,596.1" fill="none" stroke="#4A90D9" stroke-width="2" opacity="0.9"/><rect x="70" y="675" width="750" height="160" fill="#16213e" rx="4"/><text x="445" y="667" fill="#ddd" font-size="13" text-anchor="middle" font-family="monospace" font-weight="bold">Disk Write (MB/s)</text><line x1="70" y1="835" x2="820" y2="835" stroke="#333" stroke-width="0.5"/><text x="66" y="838" fill="#888" font-size="8" text-anchor="end" font-family="monospace">0</text><line x1="70" y1="798" x2="820" y2="798" stroke="#333" stroke-width="0.5"/><text x="66" y="800.5" fill="#888" font-size="8" text-anchor="end" font-family="monospace">674</text><line x1="70" y1="760" x2="820" y2="760" stroke="#333" stroke-width="0.5"/><text x="66" y="763" fill="#888" font-size="8" text-anchor="end" font-family="monospace">1348</text><line x1="70" y1="722" x2="820" y2="722" stroke="#333" stroke-width="0.5"/><text x="66" y="725.5" fill="#888" font-size="8" text-anchor="end" font-family="monospace">2022</text><line x1="70" y1="685" x2="820" y2="685" stroke="#333" stroke-width="0.5"/><text x="66" y="688" fill="#888" font-size="8" text-anchor="end" font-family="monospace">2696</text><polyline points="70.0,835.0 101.5,835.0 132.7,835.0 164.0,835.0 195.2,835.0 226.5,835.0 257.7,785.1 289.0,807.3 320.2,763.1 351.5,834.9 382.8,834.9 414.0,818.4 445.2,807.3 476.5,812.8 507.8,804.4 539.0,810.1 570.2,807.2 601.4,796.1 632.7,834.9" fill="none" stroke="#F5A623" stroke-width="2" opacity="0.9"/><polyline points="70.0,835.0 101.2,835.0 132.5,834.9 163.7,835.0 194.9,834.9 226.2,835.0 257.4,835.0 288.7,835.0 319.9,835.0 351.2,807.3 382.4,818.4 413.7,812.8 444.9,812.8 476.2,811.7 507.4,808.4 538.7,811.7 569.9,685.0 601.2,835.0 632.7,835.0 663.8,835.0 695.0,835.0 726.3,835.0 757.5,835.0 788.8,823.9 820.0,818.4" fill="none" stroke="#4A90D9" stroke-width="2" opacity="0.9"/></svg>