<svg xmlns="http://www.w3.org/2000/svg" width="1100" height="650" style="background:#1a1a2e">
<text x="550" y="28" fill="#ddd" font-size="18" text-anchor="middle" font-family="monospace" font-weight="bold">Benchmark Dashboard: SABnzbd vs rustnzbd</text>
<text x="60" y="55" fill="#F5A623" font-size="12" font-family="monospace">■ SABnzbd</text>
<text x="180" y="55" fill="#4A90D9" font-size="12" font-family="monospace">■ rustnzbd</text><text x="320" y="75" fill="#888" font-size="10" font-family="monospace">Total Time (s)</text><text x="510" y="75" fill="#888" font-size="10" font-family="monospace">Avg Speed (Mbps)</text><text x="700" y="75" fill="#888" font-size="10" font-family="monospace">CPU Peak (%)</text><text x="890" y="75" fill="#888" font-size="10" font-family="monospace">Mem Peak (MB)</text><line x1="10" y1="82" x2="1090" y2="82" stroke="#333" stroke-width="1"/><text x="15" y="108" fill="#ddd" font-size="11" font-family="monospace" font-weight="bold">sz5gb_raw</text><text x="15" y="122" fill="#888" font-size="9" font-family="monospace">5 GB raw download</text><rect x="320" y="95" width="140" height="14" fill="#F5A623" opacity="0.9" rx="2"/><rect x="320" y="112" width="87" height="14" fill="#4A90D9" opacity="0.9" rx="2"/><text x="463" y="105" fill="#ddd" font-size="8" font-family="monospace">7.1</text><text x="410.0468765896874" y="122" fill="#ddd" font-size="8" font-family="monospace">4.4</text><rect x="510" y="95" width="87" height="14" fill="#F5A623" opacity="0.9" rx="2"/><rect x="510" y="112" width="140" height="14" fill="#4A90D9" opacity="0.9" rx="2"/><text x="600.0468765896874" y="105" fill="#ddd" font-size="8" font-family="monospace">6090.7</text><text x="653" y="122" fill="#ddd" font-size="8" font-family="monospace">9795.8</text><rect x="700" y="95" width="35" height="14" fill="#F5A623" opacity="0.9" rx="2"/><rect x="700" y="112" width="140" height="14" fill="#4A90D9" opacity="0.9" rx="2"/><text x="737.9979354527953" y="105" fill="#ddd" font-size="8" font-family="monospace">152.0</text><text x="843" y="122" fill="#ddd" font-size="8" font-family="monospace">608.0</text><rect x="890" y="95" width="140" height="14" fill="#F5A623" opacity="0.9" rx="2"/><rect x="890" y="112" width="123" height="14" fill="#4A90D9" opacity="0.9" rx="2"/><text x="1033" y="105" fill="#ddd" font-size="8" font-family="monospace">228.4</text><text x="1015.9612904329382" y="122" fill="#ddd" font-size="8" font-family="monospace">200.6</text><line x1="10" y1="175" x2="1090" y2="175" stroke="#333" stroke-width="1"/><text x="15" y="198" fill="#ddd" font-size="11" font-family="monospace" font-weight="bold">sz5gb_par2</text><text x="15" y="212" fill="#888" font-size="9" font-family="monospace">5 GB download + par2 repair (3% missing)</text><rect x="320" y="185" width="137" height="14" fill="#F5A623" opacity="0.9" rx="2"/><rect x="320" y="202" width="140" height="14" fill="#4A90D9" opacity="0.9" rx="2"/><text x="459.9239196083846" y="195" fill="#ddd" font-size="8" font-family="monospace">35.4</text><text x="463" y="212" fill="#ddd" font-size="8" font-family="monospace">36.2</text><rect x="510" y="185" width="140" height="14" fill="#F5A623" opacity="0.9" rx="2"/><rect x="510" y="202" width="137" height="14" fill="#4A90D9" opacity="0.9" rx="2"/><text x="653" y="195" fill="#ddd" font-size="8" font-family="monospace">1211.8</text><text x="649.9239196083846" y="212" fill="#ddd" font-size="8" font-family="monospace">1185.2</text><rect x="700" y="185" width="138" height="14" fill="#F5A623" opacity="0.9" rx="2"/><rect x="700" y="202" width="140" height="14" fill="#4A90D9" opacity="0.9" rx="2"/><text x="840.6326832064469" y="195" fill="#ddd" font-size="8" font-family="monospace">997.7</text><text x="843" y="212" fill="#ddd" font-size="8" font-family="monospace">1014.9</text><rect x="890" y="185" width="140" height="14" fill="#F5A623" opacity="0.9" rx="2"/><rect x="890" y="202" width="54" height="14" fill="#4A90D9" opacity="0.9" rx="2"/><text x="1033" y="195" fill="#ddd" font-size="8" font-family="monospace">1245.2</text><text x="947.1959143212076" y="212" fill="#ddd" font-size="8" font-family="monospace">482.0</text><line x1="10" y1="265" x2="1090" y2="265" stroke="#333" stroke-width="1"/><text x="15" y="288" fill="#ddd" font-size="11" font-family="monospace" font-weight="bold">sz5gb_unpack</text><text x="15" y="302" fill="#888" font-size="9" font-family="monospace">5 GB download + 7z extraction</text><rect x="320" y="275" width="140" height="14" fill="#F5A623" opacity="0.9" rx="2"/><rect x="320" y="292" width="105" height="14" fill="#4A90D9" opacity="0.9" rx="2"/><text x="463" y="285" fill="#ddd" font-size="8" font-family="monospace">10.1</text><text x="428.1800817303185" y="302" fill="#ddd" font-size="8" font-family="monospace">7.6</text><rect x="510" y="275" width="105" height="14" fill="#F5A623" opacity="0.9" rx="2"/><rect x="510" y="292" width="140" height="14" fill="#4A90D9" opacity="0.9" rx="2"/><text x="618.1800817303185" y="285" fill="#ddd" font-size="8" font-family="monospace">4265.3</text><text x="653" y="302" fill="#ddd" font-size="8" font-family="monospace">5677.4</text><rect x="700" y="275" width="36" height="14" fill="#F5A623" opacity="0.9" rx="2"/><rect x="700" y="292" width="140" height="14" fill="#4A90D9" opacity="0.9" rx="2"/><text x="739.4804113362846" y="285" fill="#ddd" font-size="8" font-family="monospace">149.0</text><text x="843" y="302" fill="#ddd" font-size="8" font-family="monospace">572.0</text><rect x="890" y="275" width="136" height="14" fill="#F5A623" opacity="0.9" rx="2"/><rect x="890" y="292" width="140" height="14" fill="#4A90D9" opacity="0.9" rx="2"/><text x="1029.0144364849345" y="285" fill="#ddd" font-size="8" font-family="monospace">347.0</text><text x="1033" y="302" fill="#ddd" font-size="8" font-family="monospace">357.2</text><line x1="10" y1="355" x2="1090" y2="355" stroke="#333" stroke-width="1"/><text x="15" y="378" fill="#ddd" font-size="11" font-family="monospace" font-weight="bold">sz10gb_raw</text><text x="15" y="392" fill="#888" font-size="9" font-family="monospace">10 GB raw download</text><rect x="320" y="365" width="140" height="14" fill="#F5A623" opacity="0.9" rx="2"/><rect x="320" y="382" width="104" height="14" fill="#4A90D9" opacity="0.9" rx="2"/><text x="463" y="375" fill="#ddd" font-size="8" font-family="monospace">11.1</text><text x="427.3703429018727" y="392" fill="#ddd" font-size="8" font-family="monospace">8.3</text><rect x="510" y="365" width="104" height="14" fill="#F5A623" opacity="0.9" rx="2"/><rect x="510" y="382" width="140" height="14" fill="#4A90D9" opacity="0.9" rx="2"/><text x="617.3703429018727" y="375" fill="#ddd" font-size="8" font-family="monospace">7753.8</text><text x="653" y="392" fill="#ddd" font-size="8" font-family="monospace">10400.8</text><rect x="700" y="365" width="41" height="14" fill="#F5A623" opacity="0.9" rx="2"/><rect x="700" y="382" width="140" height="14" fill="#4A90D9" opacity="0.9" rx="2"/><text x="743.7706916018734" y="375" fill="#ddd" font-size="8" font-family="monospace">153.6</text><text x="843" y="392" fill="#ddd" font-size="8" font-family="monospace">527.3</text><rect x="890" y="365" width="138" height="14" fill="#F5A623" opacity="0.9" rx="2"/><rect x="890" y="382" width="140" height="14" fill="#4A90D9" opacity="0.9" rx="2"/><text x="1031.4360051745405" y="375" fill="#ddd" font-size="8" font-family="monospace">385.2</text><text x="1033" y="392" fill="#ddd" font-size="8" font-family="monospace">389.5</text><line x1="10" y1="445" x2="1090" y2="445" stroke="#333" stroke-width="1"/><text x="15" y="468" fill="#ddd" font-size="11" font-family="monospace" font-weight="bold">sz10gb_par2</text><text x="15" y="482" fill="#888" font-size="9" font-family="monospace">10 GB download + par2 repair (3% missing)</text><rect x="320" y="455" width="132" height="14" fill="#F5A623" opacity="0.9" rx="2"/><rect x="320" y="472" width="140" height="14" fill="#4A90D9" opacity="0.9" rx="2"/><text x="455.162594528423" y="465" fill="#ddd" font-size="8" font-family="monospace">80.6</text><text x="463" y="482" fill="#ddd" font-size="8" font-family="monospace">85.3</text><rect x="510" y="455" width="140" height="14" fill="#F5A623" opacity="0.9" rx="2"/><rect x="510" y="472" width="132" height="14" fill="#4A90D9" opacity="0.9" rx="2"/><text x="653" y="465" fill="#ddd" font-size="8" font-family="monospace">1066.4</text><text x="645.162594528423" y="482" fill="#ddd" font-size="8" font-family="monospace">1006.7</text><rect x="700" y="455" width="140" height="14" fill="#F5A623" opacity="0.9" rx="2"/><rect x="700" y="472" width="135" height="14" fill="#4A90D9" opacity="0.9" rx="2"/><text x="843" y="465" fill="#ddd" font-size="8" font-family="monospace">1230.2</text><text x="838.4769692205869" y="482" fill="#ddd" font-size="8" font-family="monospace">1190.5</text><rect x="890" y="455" width="140" height="14" fill="#F5A623" opacity="0.9" rx="2"/><rect x="890" y="472" width="79" height="14" fill="#4A90D9" opacity="0.9" rx="2"/><text x="1033" y="465" fill="#ddd" font-size="8" font-family="monospace">1420.0</text><text x="972.4351451198947" y="482" fill="#ddd" font-size="8" font-family="monospace">805.7</text><line x1="10" y1="535" x2="1090" y2="535" stroke="#333" stroke-width="1"/><text x="15" y="558" fill="#ddd" font-size="11" font-family="monospace" font-weight="bold">sz10gb_unpack</text><text x="15" y="572" fill="#888" font-size="9" font-family="monospace">10 GB download + 7z extraction</text><rect x="320" y="545" width="140" height="14" fill="#F5A623" opacity="0.9" rx="2"/><rect x="320" y="562" width="135" height="14" fill="#4A90D9" opacity="0.9" rx="2"/><text x="463" y="555" fill="#ddd" font-size="8" font-family="monospace">16.1</text><text x="458.17981564476815" y="572" fill="#ddd" font-size="8" font-family="monospace">15.5</text><rect x="510" y="545" width="135" height="14" fill="#F5A623" opacity="0.9" rx="2"/><rect x="510" y="562" width="140" height="14" fill="#4A90D9" opacity="0.9" rx="2"/><text x="648.1798156447682" y="555" fill="#ddd" font-size="8" font-family="monospace">5334.8</text><text x="653" y="572" fill="#ddd" font-size="8" font-family="monospace">5525.0</text><rect x="700" y="545" width="49" height="14" fill="#F5A623" opacity="0.9" rx="2"/><rect x="700" y="562" width="140" height="14" fill="#4A90D9" opacity="0.9" rx="2"/><text x="751.726691805298" y="555" fill="#ddd" font-size="8" font-family="monospace">150.8</text><text x="843" y="572" fill="#ddd" font-size="8" font-family="monospace">433.4</text><rect x="890" y="545" width="119" height="14" fill="#F5A623" opacity="0.9" rx="2"/><rect x="890" y="562" width="140" height="14" fill="#4A90D9" opacity="0.9" rx="2"/><text x="1011.5961874512012" y="555" fill="#ddd" font-size="8" font-family="monospace">623.0</text><text x="1033" y="572" fill="#ddd" font-size="8" font-family="monospace">735.4</text></svg>