<svg xmlns="http://www.w3.org/2000/svg" width="850" height="880" style="background:#1a1a2e">
<text x="425" y="28" fill="#ddd" font-size="16" text-anchor="middle" font-family="monospace" font-weight="bold">sz10gb_raw — Time Series</text>
<text x="425" y="48" fill="#888" font-size="12" text-anchor="middle" font-family="monospace">10 GB raw download</text>
<text x="630" y="66" fill="#F5A623" font-size="11" font-family="monospace">— SABnzbd</text>
<text x="740" y="66" fill="#4A90D9" font-size="11" font-family="monospace">— rustnzbd</text><rect x="70" y="75" width="750" height="160" fill="#16213e" rx="4"/><text x="445" y="67" fill="#ddd" font-size="13" text-anchor="middle" font-family="monospace" font-weight="bold">CPU (%)</text><line x1="70" y1="235" x2="820" y2="235" stroke="#333" stroke-width="0.5"/><text x="66" y="238" fill="#888" font-size="8" text-anchor="end" font-family="monospace">0</text><line x1="70" y1="198" x2="820" y2="198" stroke="#333" stroke-width="0.5"/><text x="66" y="200.5" fill="#888" font-size="8" text-anchor="end" font-family="monospace">132</text><line x1="70" y1="160" x2="820" y2="160" stroke="#333" stroke-width="0.5"/><text x="66" y="163" fill="#888" font-size="8" text-anchor="end" font-family="monospace">264</text><line x1="70" y1="122" x2="820" y2="122" stroke="#333" stroke-width="0.5"/><text x="66" y="125.5" fill="#888" font-size="8" text-anchor="end" font-family="monospace">396</text><line x1="70" y1="85" x2="820" y2="85" stroke="#333" stroke-width="0.5"/><text x="66" y="88" fill="#888" font-size="8" text-anchor="end" font-family="monospace">527</text><polyline points="70.0,198.1 145.0,193.3 220.0,192.4 295.0,193.0 370.1,194.0 445.1,191.3 520.1,191.8 595.1,191.7 670.1,192.2 745.1,192.1 820.0,195.0" fill="none" stroke="#F5A623" stroke-width="2" opacity="0.9"/><polyline points="70.0,85.0 145.0,98.3 220.1,105.0 295.1,107.6 370.1,113.9 445.1,106.5 520.0,107.1 595.1,99.7" fill="none" stroke="#4A90D9" stroke-width="2" opacity="0.9"/><rect x="70" y="275" width="750" height="160" fill="#16213e" rx="4"/><text x="445" y="267" fill="#ddd" font-size="13" text-anchor="middle" font-family="monospace" font-weight="bold">Memory (MB)</text><line x1="70" y1="435" x2="820" y2="435" stroke="#333" stroke-width="0.5"/><text x="66" y="438" fill="#888" font-size="8" text-anchor="end" font-family="monospace">0</text><line x1="70" y1="398" x2="820" y2="398" stroke="#333" stroke-width="0.5"/><text x="66" y="400.5" fill="#888" font-size="8" text-anchor="end" font-family="monospace">97</text><line x1="70" y1="360" x2="820" y2="360" stroke="#333" stroke-width="0.5"/><text x="66" y="363" fill="#888" font-size="8" text-anchor="end" font-family="monospace">195</text><line x1="70" y1="322" x2="820" y2="322" stroke="#333" stroke-width="0.5"/><text x="66" y="325.5" fill="#888" font-size="8" text-anchor="end" font-family="monospace">292</text><line x1="70" y1="285" x2="820" y2="285" stroke="#333" stroke-width="0.5"/><text x="66" y="288" fill="#888" font-size="8" text-anchor="end" font-family="monospace">390</text><polyline points="70.0,386.9 145.0,369.1 220.0,354.5 295.0,345.6 370.1,334.5 445.1,325.3 520.1,320.1 595.1,306.7 670.1,291.7 745.1,289.9 820.0,286.7" fill="none" stroke="#F5A623" stroke-width="2" opacity="0.9"/><polyline points="70.0,378.1 145.0,364.3 220.1,353.9 295.1,338.1 370.1,326.0 445.1,312.4 520.0,297.5 595.1,285.0" fill="none" stroke="#4A90D9" stroke-width="2" opacity="0.9"/><rect x="70" y="475" width="750" height="160" fill="#16213e" rx="4"/><text x="445" y="467" fill="#ddd" font-size="13" text-anchor="middle" font-family="monospace" font-weight="bold">Net RX (Mbps)</text><line x1="70" y1="635" x2="820" y2="635" stroke="#333" stroke-width="0.5"/><text x="66" y="638" fill="#888" font-size="8" text-anchor="end" font-family="monospace">0</text><line x1="70" y1="598" x2="820" y2="598" stroke="#333" stroke-width="0.5"/><text x="66" y="600.5" fill="#888" font-size="8" text-anchor="end" font-family="monospace">2954</text><line x1="70" y1="560" x2="820" y2="560" stroke="#333" stroke-width="0.5"/><text x="66" y="563" fill="#888" font-size="8" text-anchor="end" font-family="monospace">5908</text><line x1="70" y1="522" x2="820" y2="522" stroke="#333" stroke-width="0.5"/><text x="66" y="525.5" fill="#888" font-size="8" text-anchor="end" font-family="monospace">8861</text><line x1="70" y1="485" x2="820" y2="485" stroke="#333" stroke-width="0.5"/><text x="66" y="488" fill="#888" font-size="8" text-anchor="end" font-family="monospace">11815</text><polyline points="70.0,541.4 145.0,527.2 220.0,518.3 295.0,533.2 370.1,528.3 445.1,528.7 520.1,535.9 595.1,529.8 670.1,529.0 745.1,537.0 820.0,552.8" fill="none" stroke="#F5A623" stroke-width="2" opacity="0.9"/><polyline points="70.0,485.0 145.0,488.3 220.1,503.7 295.1,495.6 370.1,501.5 445.1,500.1 520.0,493.9 595.1,494.8" fill="none" stroke="#4A90D9" stroke-width="2" opacity="0.9"/><rect x="70" y="675" width="750" height="160" fill="#16213e" rx="4"/><text x="445" y="667" fill="#ddd" font-size="13" text-anchor="middle" font-family="monospace" font-weight="bold">Disk Write (MB/s)</text><line x1="70" y1="835" x2="820" y2="835" stroke="#333" stroke-width="0.5"/><text x="66" y="838" fill="#888" font-size="8" text-anchor="end" font-family="monospace">0</text><line x1="70" y1="798" x2="820" y2="798" stroke="#333" stroke-width="0.5"/><text x="66" y="800.5" fill="#888" font-size="8" text-anchor="end" font-family="monospace">500</text><line x1="70" y1="760" x2="820" y2="760" stroke="#333" stroke-width="0.5"/><text x="66" y="763" fill="#888" font-size="8" text-anchor="end" font-family="monospace">1001</text><line x1="70" y1="722" x2="820" y2="722" stroke="#333" stroke-width="0.5"/><text x="66" y="725.5" fill="#888" font-size="8" text-anchor="end" font-family="monospace">1501</text><line x1="70" y1="685" x2="820" y2="685" stroke="#333" stroke-width="0.5"/><text x="66" y="688" fill="#888" font-size="8" text-anchor="end" font-family="monospace">2002</text><polyline points="70.0,835.0 145.0,835.0 220.0,835.0 295.0,725.6 370.1,798.6 445.1,763.6 520.1,685.0 595.1,835.0 670.1,799.7 745.1,739.7 820.0,784.5" fill="none" stroke="#F5A623" stroke-width="2" opacity="0.9"/><polyline points="70.0,835.0 145.0,834.9 220.1,730.5 295.1,765.3 370.1,753.0 445.1,735.2 520.0,721.0 595.1,756.1" fill="none" stroke="#4A90D9" stroke-width="2" opacity="0.9"/></svg>