<svg xmlns="http://www.w3.org/2000/svg" width="850" height="880" style="background:#1a1a2e">
<text x="425" y="28" fill="#ddd" font-size="16" text-anchor="middle" font-family="monospace" font-weight="bold">sz5gb_unpack — Time Series</text>
<text x="425" y="48" fill="#888" font-size="12" text-anchor="middle" font-family="monospace">5 GB download + 7z extraction</text>
<text x="630" y="66" fill="#F5A623" font-size="11" font-family="monospace">— SABnzbd</text>
<text x="740" y="66" fill="#4A90D9" font-size="11" font-family="monospace">— rustnzbd</text><rect x="70" y="75" width="750" height="160" fill="#16213e" rx="4"/><text x="445" y="67" fill="#ddd" font-size="13" text-anchor="middle" font-family="monospace" font-weight="bold">CPU (%)</text><line x1="70" y1="235" x2="820" y2="235" stroke="#333" stroke-width="0.5"/><text x="66" y="238" fill="#888" font-size="8" text-anchor="end" font-family="monospace">0</text><line x1="70" y1="198" x2="820" y2="198" stroke="#333" stroke-width="0.5"/><text x="66" y="200.5" fill="#888" font-size="8" text-anchor="end" font-family="monospace">143</text><line x1="70" y1="160" x2="820" y2="160" stroke="#333" stroke-width="0.5"/><text x="66" y="163" fill="#888" font-size="8" text-anchor="end" font-family="monospace">286</text><line x1="70" y1="122" x2="820" y2="122" stroke="#333" stroke-width="0.5"/><text x="66" y="125.5" fill="#888" font-size="8" text-anchor="end" font-family="monospace">429</text><line x1="70" y1="85" x2="820" y2="85" stroke="#333" stroke-width="0.5"/><text x="66" y="88" fill="#888" font-size="8" text-anchor="end" font-family="monospace">572</text><polyline points="70.0,200.9 153.4,196.2 236.8,197.2 320.1,195.9 403.6,197.1 486.9,213.5 570.1,213.3 653.4,208.7 736.8,208.4 820.0,231.3" fill="none" stroke="#F5A623" stroke-width="2" opacity="0.9"/><polyline points="70.0,85.0 153.4,102.3 236.7,86.0 319.9,114.6 403.3,209.1 486.6,208.5 569.8,210.1" fill="none" stroke="#4A90D9" stroke-width="2" opacity="0.9"/><rect x="70" y="275" width="750" height="160" fill="#16213e" rx="4"/><text x="445" y="267" fill="#ddd" font-size="13" text-anchor="middle" font-family="monospace" font-weight="bold">Memory (MB)</text><line x1="70" y1="435" x2="820" y2="435" stroke="#333" stroke-width="0.5"/><text x="66" y="438" fill="#888" font-size="8" text-anchor="end" font-family="monospace">0</text><line x1="70" y1="398" x2="820" y2="398" stroke="#333" stroke-width="0.5"/><text x="66" y="400.5" fill="#888" font-size="8" text-anchor="end" font-family="monospace">89</text><line x1="70" y1="360" x2="820" y2="360" stroke="#333" stroke-width="0.5"/><text x="66" y="363" fill="#888" font-size="8" text-anchor="end" font-family="monospace">179</text><line x1="70" y1="322" x2="820" y2="322" stroke="#333" stroke-width="0.5"/><text x="66" y="325.5" fill="#888" font-size="8" text-anchor="end" font-family="monospace">268</text><line x1="70" y1="285" x2="820" y2="285" stroke="#333" stroke-width="0.5"/><text x="66" y="288" fill="#888" font-size="8" text-anchor="end" font-family="monospace">357</text><polyline points="70.0,380.8 153.4,362.4 236.8,349.5 320.1,346.1 403.6,332.5 486.9,336.5 570.1,324.2 653.4,300.6 736.8,289.3 820.0,339.3" fill="none" stroke="#F5A623" stroke-width="2" opacity="0.9"/><polyline points="70.0,384.1 153.4,367.9 236.7,351.5 319.9,344.4 403.3,323.5 486.6,303.9 569.8,285.0" fill="none" stroke="#4A90D9" stroke-width="2" opacity="0.9"/><rect x="70" y="475" width="750" height="160" fill="#16213e" rx="4"/><text x="445" y="467" fill="#ddd" font-size="13" text-anchor="middle" font-family="monospace" font-weight="bold">Net RX (Mbps)</text><line x1="70" y1="635" x2="820" y2="635" stroke="#333" stroke-width="0.5"/><text x="66" y="638" fill="#888" font-size="8" text-anchor="end" font-family="monospace">0</text><line x1="70" y1="598" x2="820" y2="598" stroke="#333" stroke-width="0.5"/><text x="66" y="600.5" fill="#888" font-size="8" text-anchor="end" font-family="monospace">3194</text><line x1="70" y1="560" x2="820" y2="560" stroke="#333" stroke-width="0.5"/><text x="66" y="563" fill="#888" font-size="8" text-anchor="end" font-family="monospace">6388</text><line x1="70" y1="522" x2="820" y2="522" stroke="#333" stroke-width="0.5"/><text x="66" y="525.5" fill="#888" font-size="8" text-anchor="end" font-family="monospace">9582</text><line x1="70" y1="485" x2="820" y2="485" stroke="#333" stroke-width="0.5"/><text x="66" y="488" fill="#888" font-size="8" text-anchor="end" font-family="monospace">12776</text><polyline points="70.0,555.1 153.4,535.2 236.8,538.3 320.1,538.7 403.6,540.8 486.9,581.7 570.1,635.0 653.4,635.0 736.8,635.0 820.0,635.0" fill="none" stroke="#F5A623" stroke-width="2" opacity="0.9"/><polyline points="70.0,485.8 153.4,498.6 236.7,485.0 319.9,508.5 403.3,635.0 486.6,635.0 569.8,635.0" fill="none" stroke="#4A90D9" stroke-width="2" opacity="0.9"/><rect x="70" y="675" width="750" height="160" fill="#16213e" rx="4"/><text x="445" y="667" fill="#ddd" font-size="13" text-anchor="middle" font-family="monospace" font-weight="bold">Disk Write (MB/s)</text><line x1="70" y1="835" x2="820" y2="835" stroke="#333" stroke-width="0.5"/><text x="66" y="838" fill="#888" font-size="8" text-anchor="end" font-family="monospace">0</text><line x1="70" y1="798" x2="820" y2="798" stroke="#333" stroke-width="0.5"/><text x="66" y="800.5" fill="#888" font-size="8" text-anchor="end" font-family="monospace">550</text><line x1="70" y1="760" x2="820" y2="760" stroke="#333" stroke-width="0.5"/><text x="66" y="763" fill="#888" font-size="8" text-anchor="end" font-family="monospace">1099</text><line x1="70" y1="722" x2="820" y2="722" stroke="#333" stroke-width="0.5"/><text x="66" y="725.5" fill="#888" font-size="8" text-anchor="end" font-family="monospace">1649</text><line x1="70" y1="685" x2="820" y2="685" stroke="#333" stroke-width="0.5"/><text x="66" y="688" fill="#888" font-size="8" text-anchor="end" font-family="monospace">2199</text><polyline points="70.0,835.0 153.4,835.0 236.8,802.1 320.1,758.5 403.6,744.5 486.9,800.9 570.1,800.7 653.4,733.7 736.8,685.0 820.0,835.0" fill="none" stroke="#F5A623" stroke-width="2" opacity="0.9"/><polyline points="70.0,835.0 153.4,835.0 236.7,695.3 319.9,820.0 403.3,706.5 486.6,746.2 569.8,724.6" fill="none" stroke="#4A90D9" stroke-width="2" opacity="0.9"/></svg>