<svg xmlns="http://www.w3.org/2000/svg" width="1100" height="650" style="background:#1a1a2e">
<text x="550" y="28" fill="#ddd" font-size="18" text-anchor="middle" font-family="monospace" font-weight="bold">Benchmark Dashboard: SABnzbd vs rustnzbd</text>
<text x="60" y="55" fill="#F5A623" font-size="12" font-family="monospace">■ SABnzbd</text>
<text x="180" y="55" fill="#4A90D9" font-size="12" font-family="monospace">■ rustnzbd</text><text x="320" y="75" fill="#888" font-size="10" font-family="monospace">Total Time (s)</text><text x="510" y="75" fill="#888" font-size="10" font-family="monospace">Avg Speed (Mbps)</text><text x="700" y="75" fill="#888" font-size="10" font-family="monospace">CPU Peak (%)</text><text x="890" y="75" fill="#888" font-size="10" font-family="monospace">Mem Peak (MB)</text><line x1="10" y1="82" x2="1090" y2="82" stroke="#333" stroke-width="1"/><text x="15" y="108" fill="#ddd" font-size="11" font-family="monospace" font-weight="bold">sz5gb_raw</text><text x="15" y="122" fill="#888" font-size="9" font-family="monospace">5 GB raw download</text><rect x="320" y="95" width="117" height="14" fill="#F5A623" opacity="0.9" rx="2"/><rect x="320" y="112" width="140" height="14" fill="#4A90D9" opacity="0.9" rx="2"/><text x="439.62125295258795" y="105" fill="#ddd" font-size="8" font-family="monospace">8.1</text><text x="463" y="122" fill="#ddd" font-size="8" font-family="monospace">9.7</text><rect x="510" y="95" width="140" height="14" fill="#F5A623" opacity="0.9" rx="2"/><rect x="510" y="112" width="117" height="14" fill="#4A90D9" opacity="0.9" rx="2"/><text x="653" y="105" fill="#ddd" font-size="8" font-family="monospace">5307.1</text><text x="629.621252952588" y="122" fill="#ddd" font-size="8" font-family="monospace">4420.9</text><rect x="700" y="95" width="22" height="14" fill="#F5A623" opacity="0.9" rx="2"/><rect x="700" y="112" width="140" height="14" fill="#4A90D9" opacity="0.9" rx="2"/><text x="725.3692383455673" y="105" fill="#ddd" font-size="8" font-family="monospace">179.1</text><text x="843" y="122" fill="#ddd" font-size="8" font-family="monospace">1121.1</text><rect x="890" y="95" width="140" height="14" fill="#F5A623" opacity="0.9" rx="2"/><rect x="890" y="112" width="110" height="14" fill="#4A90D9" opacity="0.9" rx="2"/><text x="1033" y="105" fill="#ddd" font-size="8" font-family="monospace">268.6</text><text x="1003.3860638932108" y="122" fill="#ddd" font-size="8" font-family="monospace">211.8</text><line x1="10" y1="175" x2="1090" y2="175" stroke="#333" stroke-width="1"/><text x="15" y="198" fill="#ddd" font-size="11" font-family="monospace" font-weight="bold">sz5gb_par2</text><text x="15" y="212" fill="#888" font-size="9" font-family="monospace">5 GB download + par2 repair (3% missing)</text><rect x="320" y="185" width="140" height="14" fill="#F5A623" opacity="0.9" rx="2"/><rect x="320" y="202" width="58" height="14" fill="#4A90D9" opacity="0.9" rx="2"/><text x="463" y="195" fill="#ddd" font-size="8" font-family="monospace">48.3</text><text x="380.9046642829162" y="212" fill="#ddd" font-size="8" font-family="monospace">20.0</text><rect x="510" y="185" width="58" height="14" fill="#F5A623" opacity="0.9" rx="2"/><rect x="510" y="202" width="140" height="14" fill="#4A90D9" opacity="0.9" rx="2"/><text x="570.9046642829162" y="195" fill="#ddd" font-size="8" font-family="monospace">888.9</text><text x="653" y="212" fill="#ddd" font-size="8" font-family="monospace">2149.2</text><rect x="700" y="185" width="15" height="14" fill="#F5A623" opacity="0.9" rx="2"/><rect x="700" y="202" width="140" height="14" fill="#4A90D9" opacity="0.9" rx="2"/><text x="718.3109305702131" y="195" fill="#ddd" font-size="8" font-family="monospace">122.9</text><text x="843" y="212" fill="#ddd" font-size="8" font-family="monospace">1123.8</text><rect x="890" y="185" width="140" height="14" fill="#F5A623" opacity="0.9" rx="2"/><rect x="890" y="202" width="24" height="14" fill="#4A90D9" opacity="0.9" rx="2"/><text x="1033" y="195" fill="#ddd" font-size="8" font-family="monospace">1273.2</text><text x="917.3861296221297" y="212" fill="#ddd" font-size="8" font-family="monospace">221.8</text><line x1="10" y1="265" x2="1090" y2="265" stroke="#333" stroke-width="1"/><text x="15" y="288" fill="#ddd" font-size="11" font-family="monospace" font-weight="bold">sz5gb_unpack</text><text x="15" y="302" fill="#888" font-size="9" font-family="monospace">5 GB download + 7z extraction</text><rect x="320" y="275" width="140" height="14" fill="#F5A623" opacity="0.9" rx="2"/><rect x="320" y="292" width="104" height="14" fill="#4A90D9" opacity="0.9" rx="2"/><text x="463" y="285" fill="#ddd" font-size="8" font-family="monospace">17.1</text><text x="427.270554586589" y="302" fill="#ddd" font-size="8" font-family="monospace">12.8</text><rect x="510" y="275" width="104" height="14" fill="#F5A623" opacity="0.9" rx="2"/><rect x="510" y="292" width="140" height="14" fill="#4A90D9" opacity="0.9" rx="2"/><text x="617.270554586589" y="285" fill="#ddd" font-size="8" font-family="monospace">2507.7</text><text x="653" y="302" fill="#ddd" font-size="8" font-family="monospace">3366.9</text><rect x="700" y="275" width="24" height="14" fill="#F5A623" opacity="0.9" rx="2"/><rect x="700" y="292" width="140" height="14" fill="#4A90D9" opacity="0.9" rx="2"/><text x="727.4884470805284" y="285" fill="#ddd" font-size="8" font-family="monospace">183.1</text><text x="843" y="302" fill="#ddd" font-size="8" font-family="monospace">1046.9</text><rect x="890" y="275" width="140" height="14" fill="#F5A623" opacity="0.9" rx="2"/><rect x="890" y="292" width="107" height="14" fill="#4A90D9" opacity="0.9" rx="2"/><text x="1033" y="285" fill="#ddd" font-size="8" font-family="monospace">307.7</text><text x="1000.3355847849272" y="302" fill="#ddd" font-size="8" font-family="monospace">235.9</text><line x1="10" y1="355" x2="1090" y2="355" stroke="#333" stroke-width="1"/><text x="15" y="378" fill="#ddd" font-size="11" font-family="monospace" font-weight="bold">sz10gb_raw</text><text x="15" y="392" fill="#888" font-size="9" font-family="monospace">10 GB raw download</text><rect x="320" y="365" width="65" height="14" fill="#F5A623" opacity="0.9" rx="2"/><rect x="320" y="382" width="140" height="14" fill="#4A90D9" opacity="0.9" rx="2"/><text x="387.8123136877781" y="375" fill="#ddd" font-size="8" font-family="monospace">15.1</text><text x="463" y="392" fill="#ddd" font-size="8" font-family="monospace">32.6</text><rect x="510" y="365" width="140" height="14" fill="#F5A623" opacity="0.9" rx="2"/><rect x="510" y="382" width="65" height="14" fill="#4A90D9" opacity="0.9" rx="2"/><text x="653" y="375" fill="#ddd" font-size="8" font-family="monospace">5690.8</text><text x="577.8123136877781" y="392" fill="#ddd" font-size="8" font-family="monospace">2634.5</text><rect x="700" y="365" width="22" height="14" fill="#F5A623" opacity="0.9" rx="2"/><rect x="700" y="382" width="140" height="14" fill="#4A90D9" opacity="0.9" rx="2"/><text x="725.099027561047" y="375" fill="#ddd" font-size="8" font-family="monospace">186.3</text><text x="843" y="392" fill="#ddd" font-size="8" font-family="monospace">1180.4</text><rect x="890" y="365" width="140" height="14" fill="#F5A623" opacity="0.9" rx="2"/><rect x="890" y="382" width="127" height="14" fill="#4A90D9" opacity="0.9" rx="2"/><text x="1033" y="375" fill="#ddd" font-size="8" font-family="monospace">393.9</text><text x="1019.6734106912625" y="392" fill="#ddd" font-size="8" font-family="monospace">356.4</text><line x1="10" y1="445" x2="1090" y2="445" stroke="#333" stroke-width="1"/><text x="15" y="468" fill="#ddd" font-size="11" font-family="monospace" font-weight="bold">sz10gb_par2</text><text x="15" y="482" fill="#888" font-size="9" font-family="monospace">10 GB download + par2 repair (3% missing)</text><rect x="320" y="455" width="140" height="14" fill="#F5A623" opacity="0.9" rx="2"/><rect x="320" y="472" width="30" height="14" fill="#4A90D9" opacity="0.9" rx="2"/><text x="463" y="465" fill="#ddd" font-size="8" font-family="monospace">123.8</text><text x="352.6174163773858" y="482" fill="#ddd" font-size="8" font-family="monospace">26.2</text><rect x="510" y="455" width="30" height="14" fill="#F5A623" opacity="0.9" rx="2"/><rect x="510" y="472" width="140" height="14" fill="#4A90D9" opacity="0.9" rx="2"/><text x="542.6174163773858" y="465" fill="#ddd" font-size="8" font-family="monospace">693.6</text><text x="653" y="482" fill="#ddd" font-size="8" font-family="monospace">3278.7</text><rect x="700" y="455" width="25" height="14" fill="#F5A623" opacity="0.9" rx="2"/><rect x="700" y="472" width="140" height="14" fill="#4A90D9" opacity="0.9" rx="2"/><text x="727.999401460056" y="465" fill="#ddd" font-size="8" font-family="monospace">169.4</text><text x="843" y="482" fill="#ddd" font-size="8" font-family="monospace">948.6</text><rect x="890" y="455" width="140" height="14" fill="#F5A623" opacity="0.9" rx="2"/><rect x="890" y="472" width="30" height="14" fill="#4A90D9" opacity="0.9" rx="2"/><text x="1033" y="465" fill="#ddd" font-size="8" font-family="monospace">2008.4</text><text x="922.5430330778312" y="482" fill="#ddd" font-size="8" font-family="monospace">423.8</text><line x1="10" y1="535" x2="1090" y2="535" stroke="#333" stroke-width="1"/><text x="15" y="558" fill="#ddd" font-size="11" font-family="monospace" font-weight="bold">sz10gb_unpack</text><text x="15" y="572" fill="#888" font-size="9" font-family="monospace">10 GB download + 7z extraction</text><rect x="320" y="545" width="140" height="14" fill="#F5A623" opacity="0.9" rx="2"/><rect x="320" y="562" width="114" height="14" fill="#4A90D9" opacity="0.9" rx="2"/><text x="463" y="555" fill="#ddd" font-size="8" font-family="monospace">40.4</text><text x="436.83646194423096" y="572" fill="#ddd" font-size="8" font-family="monospace">32.9</text><rect x="510" y="545" width="114" height="14" fill="#F5A623" opacity="0.9" rx="2"/><rect x="510" y="562" width="140" height="14" fill="#4A90D9" opacity="0.9" rx="2"/><text x="626.836461944231" y="555" fill="#ddd" font-size="8" font-family="monospace">2124.6</text><text x="653" y="572" fill="#ddd" font-size="8" font-family="monospace">2612.9</text><rect x="700" y="545" width="25" height="14" fill="#F5A623" opacity="0.9" rx="2"/><rect x="700" y="562" width="140" height="14" fill="#4A90D9" opacity="0.9" rx="2"/><text x="728.3178324117514" y="555" fill="#ddd" font-size="8" font-family="monospace">187.9</text><text x="843" y="572" fill="#ddd" font-size="8" font-family="monospace">1038.9</text><rect x="890" y="545" width="140" height="14" fill="#F5A623" opacity="0.9" rx="2"/><rect x="890" y="562" width="117" height="14" fill="#4A90D9" opacity="0.9" rx="2"/><text x="1033" y="555" fill="#ddd" font-size="8" font-family="monospace">528.2</text><text x="1009.6797805155813" y="572" fill="#ddd" font-size="8" font-family="monospace">440.2</text></svg>