<svg xmlns="http://www.w3.org/2000/svg" width="1100" height="650" style="background:#1a1a2e">
<text x="550" y="28" fill="#ddd" font-size="18" text-anchor="middle" font-family="monospace" font-weight="bold">Benchmark Dashboard: SABnzbd vs rustnzbd</text>
<text x="60" y="55" fill="#F5A623" font-size="12" font-family="monospace">■ SABnzbd</text>
<text x="180" y="55" fill="#4A90D9" font-size="12" font-family="monospace">■ rustnzbd</text><text x="320" y="75" fill="#888" font-size="10" font-family="monospace">Total Time (s)</text><text x="510" y="75" fill="#888" font-size="10" font-family="monospace">Avg Speed (Mbps)</text><text x="700" y="75" fill="#888" font-size="10" font-family="monospace">CPU Peak (%)</text><text x="890" y="75" fill="#888" font-size="10" font-family="monospace">Mem Peak (MB)</text><line x1="10" y1="82" x2="1090" y2="82" stroke="#333" stroke-width="1"/><text x="15" y="108" fill="#ddd" font-size="11" font-family="monospace" font-weight="bold">sz5gb_raw</text><text x="15" y="122" fill="#888" font-size="9" font-family="monospace">5 GB raw download</text><rect x="320" y="95" width="122" height="14" fill="#F5A623" opacity="0.9" rx="2"/><rect x="320" y="112" width="140" height="14" fill="#4A90D9" opacity="0.9" rx="2"/><text x="445.08467785792396" y="105" fill="#ddd" font-size="8" font-family="monospace">8.1</text><text x="463" y="122" fill="#ddd" font-size="8" font-family="monospace">9.2</text><rect x="510" y="95" width="140" height="14" fill="#F5A623" opacity="0.9" rx="2"/><rect x="510" y="112" width="122" height="14" fill="#4A90D9" opacity="0.9" rx="2"/><text x="653" y="105" fill="#ddd" font-size="8" font-family="monospace">5330.3</text><text x="635.0846778579239" y="122" fill="#ddd" font-size="8" font-family="monospace">4648.2</text><rect x="700" y="95" width="24" height="14" fill="#F5A623" opacity="0.9" rx="2"/><rect x="700" y="112" width="140" height="14" fill="#4A90D9" opacity="0.9" rx="2"/><text x="727.1627832769836" y="105" fill="#ddd" font-size="8" font-family="monospace">173.0</text><text x="843" y="122" fill="#ddd" font-size="8" font-family="monospace">1002.2</text><rect x="890" y="95" width="140" height="14" fill="#F5A623" opacity="0.9" rx="2"/><rect x="890" y="112" width="107" height="14" fill="#4A90D9" opacity="0.9" rx="2"/><text x="1033" y="105" fill="#ddd" font-size="8" font-family="monospace">248.8</text><text x="1000.2628505039721" y="122" fill="#ddd" font-size="8" font-family="monospace">190.6</text><line x1="10" y1="175" x2="1090" y2="175" stroke="#333" stroke-width="1"/><text x="15" y="198" fill="#ddd" font-size="11" font-family="monospace" font-weight="bold">sz5gb_par2</text><text x="15" y="212" fill="#888" font-size="9" font-family="monospace">5 GB download + par2 repair (3% missing)</text><rect x="320" y="185" width="51" height="14" fill="#F5A623" opacity="0.9" rx="2"/><rect x="320" y="202" width="140" height="14" fill="#4A90D9" opacity="0.9" rx="2"/><text x="373.83729657353956" y="195" fill="#ddd" font-size="8" font-family="monospace">53.4</text><text x="463" y="212" fill="#ddd" font-size="8" font-family="monospace">147.1</text><rect x="510" y="185" width="140" height="14" fill="#F5A623" opacity="0.9" rx="2"/><rect x="510" y="202" width="51" height="14" fill="#4A90D9" opacity="0.9" rx="2"/><text x="653" y="195" fill="#ddd" font-size="8" font-family="monospace">804.0</text><text x="563.8372965735396" y="212" fill="#ddd" font-size="8" font-family="monospace">291.9</text><rect x="700" y="185" width="36" height="14" fill="#F5A623" opacity="0.9" rx="2"/><rect x="700" y="202" width="140" height="14" fill="#4A90D9" opacity="0.9" rx="2"/><text x="738.7759857318808" y="195" fill="#ddd" font-size="8" font-family="monospace">407.2</text><text x="843" y="212" fill="#ddd" font-size="8" font-family="monospace">1593.4</text><rect x="890" y="185" width="121" height="14" fill="#F5A623" opacity="0.9" rx="2"/><rect x="890" y="202" width="140" height="14" fill="#4A90D9" opacity="0.9" rx="2"/><text x="1013.8796300069746" y="195" fill="#ddd" font-size="8" font-family="monospace">5793.2</text><text x="1033" y="212" fill="#ddd" font-size="8" font-family="monospace">6709.6</text><line x1="10" y1="265" x2="1090" y2="265" stroke="#333" stroke-width="1"/><text x="15" y="288" fill="#ddd" font-size="11" font-family="monospace" font-weight="bold">sz5gb_unpack</text><text x="15" y="302" fill="#888" font-size="9" font-family="monospace">5 GB download + 7z extraction</text><rect x="320" y="275" width="62" height="14" fill="#F5A623" opacity="0.9" rx="2"/><rect x="320" y="292" width="140" height="14" fill="#4A90D9" opacity="0.9" rx="2"/><text x="385.2153684409983" y="285" fill="#ddd" font-size="8" font-family="monospace">18.1</text><text x="463" y="302" fill="#ddd" font-size="8" font-family="monospace">40.8</text><rect x="510" y="275" width="140" height="14" fill="#F5A623" opacity="0.9" rx="2"/><rect x="510" y="292" width="62" height="14" fill="#4A90D9" opacity="0.9" rx="2"/><text x="653" y="285" fill="#ddd" font-size="8" font-family="monospace">2368.1</text><text x="575.2153684409983" y="302" fill="#ddd" font-size="8" font-family="monospace">1052.4</text><rect x="700" y="275" width="31" height="14" fill="#F5A623" opacity="0.9" rx="2"/><rect x="700" y="292" width="140" height="14" fill="#4A90D9" opacity="0.9" rx="2"/><text x="734.100351346491" y="285" fill="#ddd" font-size="8" font-family="monospace">181.4</text><text x="843" y="302" fill="#ddd" font-size="8" font-family="monospace">816.5</text><rect x="890" y="275" width="10" height="14" fill="#F5A623" opacity="0.9" rx="2"/><rect x="890" y="292" width="140" height="14" fill="#4A90D9" opacity="0.9" rx="2"/><text x="903.3677912727551" y="285" fill="#ddd" font-size="8" font-family="monospace">347.8</text><text x="1033" y="302" fill="#ddd" font-size="8" font-family="monospace">4696.3</text><line x1="10" y1="355" x2="1090" y2="355" stroke="#333" stroke-width="1"/><text x="15" y="378" fill="#ddd" font-size="11" font-family="monospace" font-weight="bold">sz10gb_raw</text><text x="15" y="392" fill="#888" font-size="9" font-family="monospace">10 GB raw download</text><rect x="320" y="365" width="136" height="14" fill="#F5A623" opacity="0.9" rx="2"/><rect x="320" y="382" width="140" height="14" fill="#4A90D9" opacity="0.9" rx="2"/><text x="458.6928728959615" y="375" fill="#ddd" font-size="8" font-family="monospace">15.1</text><text x="463" y="392" fill="#ddd" font-size="8" font-family="monospace">15.6</text><rect x="510" y="365" width="140" height="14" fill="#F5A623" opacity="0.9" rx="2"/><rect x="510" y="382" width="136" height="14" fill="#4A90D9" opacity="0.9" rx="2"/><text x="653" y="375" fill="#ddd" font-size="8" font-family="monospace">5682.9</text><text x="648.6928728959615" y="392" fill="#ddd" font-size="8" font-family="monospace">5508.0</text><rect x="700" y="365" width="25" height="14" fill="#F5A623" opacity="0.9" rx="2"/><rect x="700" y="382" width="140" height="14" fill="#4A90D9" opacity="0.9" rx="2"/><text x="728.4303161502045" y="375" fill="#ddd" font-size="8" font-family="monospace">189.1</text><text x="843" y="392" fill="#ddd" font-size="8" font-family="monospace">1041.1</text><rect x="890" y="365" width="140" height="14" fill="#F5A623" opacity="0.9" rx="2"/><rect x="890" y="382" width="129" height="14" fill="#4A90D9" opacity="0.9" rx="2"/><text x="1033" y="375" fill="#ddd" font-size="8" font-family="monospace">426.8</text><text x="1022.0808584633689" y="392" fill="#ddd" font-size="8" font-family="monospace">393.5</text><line x1="10" y1="445" x2="1090" y2="445" stroke="#333" stroke-width="1"/><text x="15" y="468" fill="#ddd" font-size="11" font-family="monospace" font-weight="bold">sz10gb_par2</text><text x="15" y="482" fill="#888" font-size="9" font-family="monospace">10 GB download + par2 repair (3% missing)</text><rect x="320" y="455" width="41" height="14" fill="#F5A623" opacity="0.9" rx="2"/><rect x="320" y="472" width="140" height="14" fill="#4A90D9" opacity="0.9" rx="2"/><text x="363.91587531196603" y="465" fill="#ddd" font-size="8" font-family="monospace">122.9</text><text x="463" y="482" fill="#ddd" font-size="8" font-family="monospace">420.4</text><rect x="510" y="455" width="140" height="14" fill="#F5A623" opacity="0.9" rx="2"/><rect x="510" y="472" width="41" height="14" fill="#4A90D9" opacity="0.9" rx="2"/><text x="653" y="465" fill="#ddd" font-size="8" font-family="monospace">699.2</text><text x="553.915875311966" y="482" fill="#ddd" font-size="8" font-family="monospace">204.3</text><rect x="700" y="455" width="42" height="14" fill="#F5A623" opacity="0.9" rx="2"/><rect x="700" y="472" width="140" height="14" fill="#4A90D9" opacity="0.9" rx="2"/><text x="744.8285309199443" y="465" fill="#ddd" font-size="8" font-family="monospace">540.5</text><text x="843" y="482" fill="#ddd" font-size="8" font-family="monospace">1809.1</text><rect x="890" y="455" width="118" height="14" fill="#F5A623" opacity="0.9" rx="2"/><rect x="890" y="472" width="140" height="14" fill="#4A90D9" opacity="0.9" rx="2"/><text x="1011.4450664145504" y="465" fill="#ddd" font-size="8" font-family="monospace">10591.5</text><text x="1033" y="482" fill="#ddd" font-size="8" font-family="monospace">12519.0</text><line x1="10" y1="535" x2="1090" y2="535" stroke="#333" stroke-width="1"/><text x="15" y="558" fill="#ddd" font-size="11" font-family="monospace" font-weight="bold">sz10gb_unpack</text><text x="15" y="572" fill="#888" font-size="9" font-family="monospace">10 GB download + 7z extraction</text><rect x="320" y="545" width="57" height="14" fill="#F5A623" opacity="0.9" rx="2"/><rect x="320" y="562" width="140" height="14" fill="#4A90D9" opacity="0.9" rx="2"/><text x="379.9230004277555" y="555" fill="#ddd" font-size="8" font-family="monospace">32.2</text><text x="463" y="572" fill="#ddd" font-size="8" font-family="monospace">79.3</text><rect x="510" y="545" width="140" height="14" fill="#F5A623" opacity="0.9" rx="2"/><rect x="510" y="562" width="57" height="14" fill="#4A90D9" opacity="0.9" rx="2"/><text x="653" y="555" fill="#ddd" font-size="8" font-family="monospace">2664.9</text><text x="569.9230004277555" y="572" fill="#ddd" font-size="8" font-family="monospace">1083.5</text><rect x="700" y="545" width="26" height="14" fill="#F5A623" opacity="0.9" rx="2"/><rect x="700" y="562" width="140" height="14" fill="#4A90D9" opacity="0.9" rx="2"/><text x="728.9959751954691" y="555" fill="#ddd" font-size="8" font-family="monospace">181.9</text><text x="843" y="572" fill="#ddd" font-size="8" font-family="monospace">979.7</text><rect x="890" y="545" width="10" height="14" fill="#F5A623" opacity="0.9" rx="2"/><rect x="890" y="562" width="140" height="14" fill="#4A90D9" opacity="0.9" rx="2"/><text x="902.5358944509119" y="555" fill="#ddd" font-size="8" font-family="monospace">671.9</text><text x="1033" y="572" fill="#ddd" font-size="8" font-family="monospace">9865.1</text></svg>