<svg xmlns="http://www.w3.org/2000/svg" width="900" height="576" style="background:#1a1a2e">
<text x="450" y="28" fill="#ddd" font-size="16" text-anchor="middle" font-family="monospace" font-weight="bold">sz10gb_unpack — Comparison</text>
<text x="450" y="48" fill="#888" font-size="12" text-anchor="middle" font-family="monospace">10 GB download + 7z extraction</text>
<text x="680" y="68" fill="#F5A623" font-size="11" font-family="monospace">■ SABnzbd</text>
<text x="790" y="68" fill="#4A90D9" font-size="11" font-family="monospace">■ rustnzbd</text><text x="20" y="100" fill="#888" font-size="10" font-family="monospace">Timing</text><line x1="20" y1="104" x2="880" y2="104" stroke="#333" stroke-width="1"/><text x="160" y="122" fill="#ddd" font-size="11" text-anchor="end" font-family="monospace">Total Time</text><rect x="190" y="110" width="130.1" height="16" fill="#F5A623" opacity="0.9" rx="2"/><text x="325.1097152634411" y="122" fill="#ddd" font-size="9" font-family="monospace">32.2 s</text><rect x="190" y="130" width="320.0" height="16" fill="#4A90D9" opacity="0.9" rx="2"/><text x="515" y="142" fill="#ddd" font-size="9" font-family="monospace">79.3 s</text><text x="160" y="166" fill="#ddd" font-size="11" text-anchor="end" font-family="monospace">Download</text><rect x="190" y="154" width="320.0" height="16" fill="#F5A623" opacity="0.9" rx="2"/><text x="515" y="166" fill="#ddd" font-size="9" font-family="monospace">15.2 s</text><rect x="190" y="174" width="315.6" height="16" fill="#4A90D9" opacity="0.9" rx="2"/><text x="510.586412943106" y="186" fill="#ddd" font-size="9" font-family="monospace">15.0 s</text><text x="160" y="210" fill="#ddd" font-size="11" text-anchor="end" font-family="monospace">Par2</text><rect x="190" y="198" width="0.0" height="16" fill="#F5A623" opacity="0.9" rx="2"/><text x="195" y="210" fill="#ddd" font-size="9" font-family="monospace">0.0 s</text><rect x="190" y="218" width="320.0" height="16" fill="#4A90D9" opacity="0.9" rx="2"/><text x="515" y="230" fill="#ddd" font-size="9" font-family="monospace">44.3 s</text><text x="160" y="254" fill="#ddd" font-size="11" text-anchor="end" font-family="monospace">Unpack</text><rect x="190" y="242" width="272.9" height="16" fill="#F5A623" opacity="0.9" rx="2"/><text x="467.85095544526024" y="254" fill="#ddd" font-size="9" font-family="monospace">17.0 s</text><rect x="190" y="262" width="320.0" height="16" fill="#4A90D9" opacity="0.9" rx="2"/><text x="515" y="274" fill="#ddd" font-size="9" font-family="monospace">19.9 s</text><text x="20" y="306" fill="#888" font-size="10" font-family="monospace">Speed</text><line x1="20" y1="310" x2="880" y2="310" stroke="#333" stroke-width="1"/><text x="160" y="328" fill="#ddd" font-size="11" text-anchor="end" font-family="monospace">Avg Speed</text><rect x="190" y="316" width="320.0" height="16" fill="#F5A623" opacity="0.9" rx="2"/><text x="515" y="328" fill="#ddd" font-size="9" font-family="monospace">2664.9 Mbps</text><rect x="190" y="336" width="130.1" height="16" fill="#4A90D9" opacity="0.9" rx="2"/><text x="325.1097152634411" y="348" fill="#ddd" font-size="9" font-family="monospace">1083.5 Mbps</text><text x="160" y="372" fill="#ddd" font-size="11" text-anchor="end" font-family="monospace">Peak Speed</text><rect x="190" y="360" width="114.9" height="16" fill="#F5A623" opacity="0.9" rx="2"/><text x="309.9160018483393" y="372" fill="#ddd" font-size="9" font-family="monospace">7806.4 Mbps</text><rect x="190" y="380" width="320.0" height="16" fill="#4A90D9" opacity="0.9" rx="2"/><text x="515" y="392" fill="#ddd" font-size="9" font-family="monospace">21738.0 Mbps</text><text x="20" y="424" fill="#888" font-size="10" font-family="monospace">Resources</text><line x1="20" y1="428" x2="880" y2="428" stroke="#333" stroke-width="1"/><text x="160" y="446" fill="#ddd" font-size="11" text-anchor="end" font-family="monospace">CPU Avg</text><rect x="190" y="434" width="169.3" height="16" fill="#F5A623" opacity="0.9" rx="2"/><text x="364.33861669155385" y="446" fill="#ddd" font-size="9" font-family="monospace">126.2 %</text><rect x="190" y="454" width="320.0" height="16" fill="#4A90D9" opacity="0.9" rx="2"/><text x="515" y="466" fill="#ddd" font-size="9" font-family="monospace">238.5 %</text><text x="160" y="490" fill="#ddd" font-size="11" text-anchor="end" font-family="monospace">CPU Peak</text><rect x="190" y="478" width="59.4" height="16" fill="#F5A623" opacity="0.9" rx="2"/><text x="254.41937187535808" y="490" fill="#ddd" font-size="9" font-family="monospace">181.9 %</text><rect x="190" y="498" width="320.0" height="16" fill="#4A90D9" opacity="0.9" rx="2"/><text x="515" y="510" fill="#ddd" font-size="9" font-family="monospace">979.7 %</text><text x="160" y="534" fill="#ddd" font-size="11" text-anchor="end" font-family="monospace">Mem Peak</text><rect x="190" y="522" width="21.8" height="16" fill="#F5A623" opacity="0.9" rx="2"/><text x="216.79633017351296" y="534" fill="#ddd" font-size="9" font-family="monospace">671.9 MB</text><rect x="190" y="542" width="320.0" height="16" fill="#4A90D9" opacity="0.9" rx="2"/><text x="515" y="554" fill="#ddd" font-size="9" font-family="monospace">9865.1 MB</text></svg>