<svg xmlns="http://www.w3.org/2000/svg" width="1100" height="650" style="background:#1a1a2e">
<text x="550" y="28" fill="#ddd" font-size="18" text-anchor="middle" font-family="monospace" font-weight="bold">Benchmark Dashboard: SABnzbd vs rustnzbd</text>
<text x="60" y="55" fill="#F5A623" font-size="12" font-family="monospace">■ SABnzbd</text>
<text x="180" y="55" fill="#4A90D9" font-size="12" font-family="monospace">■ rustnzbd</text><text x="320" y="75" fill="#888" font-size="10" font-family="monospace">Total Time (s)</text><text x="510" y="75" fill="#888" font-size="10" font-family="monospace">Avg Speed (Mbps)</text><text x="700" y="75" fill="#888" font-size="10" font-family="monospace">CPU Peak (%)</text><text x="890" y="75" fill="#888" font-size="10" font-family="monospace">Mem Peak (MB)</text><line x1="10" y1="82" x2="1090" y2="82" stroke="#333" stroke-width="1"/><text x="15" y="108" fill="#ddd" font-size="11" font-family="monospace" font-weight="bold">sz5gb_raw</text><text x="15" y="122" fill="#888" font-size="9" font-family="monospace">5 GB raw download</text><rect x="320" y="95" width="140" height="14" fill="#F5A623" opacity="0.9" rx="2"/><rect x="320" y="112" width="83" height="14" fill="#4A90D9" opacity="0.9" rx="2"/><text x="463" y="105" fill="#ddd" font-size="8" font-family="monospace">7.1</text><text x="405.9728437532029" y="122" fill="#ddd" font-size="8" font-family="monospace">4.2</text><rect x="510" y="95" width="83" height="14" fill="#F5A623" opacity="0.9" rx="2"/><rect x="510" y="112" width="140" height="14" fill="#4A90D9" opacity="0.9" rx="2"/><text x="595.9728437532028" y="105" fill="#ddd" font-size="8" font-family="monospace">6090.4</text><text x="653" y="122" fill="#ddd" font-size="8" font-family="monospace">10276.3</text><rect x="700" y="95" width="50" height="14" fill="#F5A623" opacity="0.9" rx="2"/><rect x="700" y="112" width="140" height="14" fill="#4A90D9" opacity="0.9" rx="2"/><text x="752.8053215911725" y="105" fill="#ddd" font-size="8" font-family="monospace">152.5</text><text x="843" y="122" fill="#ddd" font-size="8" font-family="monospace">428.8</text><rect x="890" y="95" width="140" height="14" fill="#F5A623" opacity="0.9" rx="2"/><rect x="890" y="112" width="134" height="14" fill="#4A90D9" opacity="0.9" rx="2"/><text x="1033" y="105" fill="#ddd" font-size="8" font-family="monospace">219.5</text><text x="1027.243912857753" y="122" fill="#ddd" font-size="8" font-family="monospace">210.4</text><line x1="10" y1="175" x2="1090" y2="175" stroke="#333" stroke-width="1"/><text x="15" y="198" fill="#ddd" font-size="11" font-family="monospace" font-weight="bold">sz5gb_par2</text><text x="15" y="212" fill="#888" font-size="9" font-family="monospace">5 GB download + par2 repair (3% missing)</text><rect x="320" y="185" width="129" height="14" fill="#F5A623" opacity="0.9" rx="2"/><rect x="320" y="202" width="140" height="14" fill="#4A90D9" opacity="0.9" rx="2"/><text x="452.16872663040203" y="195" fill="#ddd" font-size="8" font-family="monospace">31.4</text><text x="463" y="212" fill="#ddd" font-size="8" font-family="monospace">34.0</text><rect x="510" y="185" width="140" height="14" fill="#F5A623" opacity="0.9" rx="2"/><rect x="510" y="202" width="129" height="14" fill="#4A90D9" opacity="0.9" rx="2"/><text x="653" y="195" fill="#ddd" font-size="8" font-family="monospace">1368.2</text><text x="642.168726630402" y="212" fill="#ddd" font-size="8" font-family="monospace">1262.4</text><rect x="700" y="185" width="128" height="14" fill="#F5A623" opacity="0.9" rx="2"/><rect x="700" y="202" width="140" height="14" fill="#4A90D9" opacity="0.9" rx="2"/><text x="831.0999408890862" y="195" fill="#ddd" font-size="8" font-family="monospace">1166.4</text><text x="843" y="212" fill="#ddd" font-size="8" font-family="monospace">1274.8</text><rect x="890" y="185" width="140" height="14" fill="#F5A623" opacity="0.9" rx="2"/><rect x="890" y="202" width="71" height="14" fill="#4A90D9" opacity="0.9" rx="2"/><text x="1033" y="195" fill="#ddd" font-size="8" font-family="monospace">1234.9</text><text x="963.5398514506966" y="212" fill="#ddd" font-size="8" font-family="monospace">622.2</text><line x1="10" y1="265" x2="1090" y2="265" stroke="#333" stroke-width="1"/><text x="15" y="288" fill="#ddd" font-size="11" font-family="monospace" font-weight="bold">sz5gb_unpack</text><text x="15" y="302" fill="#888" font-size="9" font-family="monospace">5 GB download + 7z extraction</text><rect x="320" y="275" width="140" height="14" fill="#F5A623" opacity="0.9" rx="2"/><rect x="320" y="292" width="119" height="14" fill="#4A90D9" opacity="0.9" rx="2"/><text x="463" y="285" fill="#ddd" font-size="8" font-family="monospace">9.1</text><text x="442.1346443766388" y="302" fill="#ddd" font-size="8" font-family="monospace">7.7</text><rect x="510" y="275" width="119" height="14" fill="#F5A623" opacity="0.9" rx="2"/><rect x="510" y="292" width="140" height="14" fill="#4A90D9" opacity="0.9" rx="2"/><text x="632.1346443766388" y="285" fill="#ddd" font-size="8" font-family="monospace">4742.3</text><text x="653" y="302" fill="#ddd" font-size="8" font-family="monospace">5572.9</text><rect x="700" y="275" width="41" height="14" fill="#F5A623" opacity="0.9" rx="2"/><rect x="700" y="292" width="140" height="14" fill="#4A90D9" opacity="0.9" rx="2"/><text x="743.575230509322" y="285" fill="#ddd" font-size="8" font-family="monospace">147.7</text><text x="843" y="302" fill="#ddd" font-size="8" font-family="monospace">509.8</text><rect x="890" y="275" width="88" height="14" fill="#F5A623" opacity="0.9" rx="2"/><rect x="890" y="292" width="140" height="14" fill="#4A90D9" opacity="0.9" rx="2"/><text x="980.6369520117267" y="285" fill="#ddd" font-size="8" font-family="monospace">305.3</text><text x="1033" y="302" fill="#ddd" font-size="8" font-family="monospace">487.7</text><line x1="10" y1="355" x2="1090" y2="355" stroke="#333" stroke-width="1"/><text x="15" y="378" fill="#ddd" font-size="11" font-family="monospace" font-weight="bold">sz10gb_raw</text><text x="15" y="392" fill="#888" font-size="9" font-family="monospace">10 GB raw download</text><rect x="320" y="365" width="140" height="14" fill="#F5A623" opacity="0.9" rx="2"/><rect x="320" y="382" width="94" height="14" fill="#4A90D9" opacity="0.9" rx="2"/><text x="463" y="375" fill="#ddd" font-size="8" font-family="monospace">12.1</text><text x="417.05200662795335" y="392" fill="#ddd" font-size="8" font-family="monospace">8.1</text><rect x="510" y="365" width="94" height="14" fill="#F5A623" opacity="0.9" rx="2"/><rect x="510" y="382" width="140" height="14" fill="#4A90D9" opacity="0.9" rx="2"/><text x="607.0520066279533" y="375" fill="#ddd" font-size="8" font-family="monospace">7115.2</text><text x="653" y="392" fill="#ddd" font-size="8" font-family="monospace">10591.2</text><rect x="700" y="365" width="42" height="14" fill="#F5A623" opacity="0.9" rx="2"/><rect x="700" y="382" width="140" height="14" fill="#4A90D9" opacity="0.9" rx="2"/><text x="745.3343167481272" y="375" fill="#ddd" font-size="8" font-family="monospace">159.7</text><text x="843" y="392" fill="#ddd" font-size="8" font-family="monospace">528.2</text><rect x="890" y="365" width="76" height="14" fill="#F5A623" opacity="0.9" rx="2"/><rect x="890" y="382" width="140" height="14" fill="#4A90D9" opacity="0.9" rx="2"/><text x="968.920254343976" y="375" fill="#ddd" font-size="8" font-family="monospace">297.8</text><text x="1033" y="392" fill="#ddd" font-size="8" font-family="monospace">549.2</text><line x1="10" y1="445" x2="1090" y2="445" stroke="#333" stroke-width="1"/><text x="15" y="468" fill="#ddd" font-size="11" font-family="monospace" font-weight="bold">sz10gb_par2</text><text x="15" y="482" fill="#888" font-size="9" font-family="monospace">10 GB download + par2 repair (3% missing)</text><rect x="320" y="455" width="130" height="14" fill="#F5A623" opacity="0.9" rx="2"/><rect x="320" y="472" width="140" height="14" fill="#4A90D9" opacity="0.9" rx="2"/><text x="452.56515212385057" y="465" fill="#ddd" font-size="8" font-family="monospace">81.6</text><text x="463" y="482" fill="#ddd" font-size="8" font-family="monospace">88.2</text><rect x="510" y="455" width="140" height="14" fill="#F5A623" opacity="0.9" rx="2"/><rect x="510" y="472" width="130" height="14" fill="#4A90D9" opacity="0.9" rx="2"/><text x="653" y="465" fill="#ddd" font-size="8" font-family="monospace">1052.4</text><text x="642.5651521238506" y="482" fill="#ddd" font-size="8" font-family="monospace">974.0</text><rect x="700" y="455" width="139" height="14" fill="#F5A623" opacity="0.9" rx="2"/><rect x="700" y="472" width="140" height="14" fill="#4A90D9" opacity="0.9" rx="2"/><text x="841.6098381377508" y="465" fill="#ddd" font-size="8" font-family="monospace">1162.6</text><text x="843" y="482" fill="#ddd" font-size="8" font-family="monospace">1174.3</text><rect x="890" y="455" width="140" height="14" fill="#F5A623" opacity="0.9" rx="2"/><rect x="890" y="472" width="86" height="14" fill="#4A90D9" opacity="0.9" rx="2"/><text x="1033" y="465" fill="#ddd" font-size="8" font-family="monospace">1417.6</text><text x="978.5707510905238" y="482" fill="#ddd" font-size="8" font-family="monospace">866.4</text><line x1="10" y1="535" x2="1090" y2="535" stroke="#333" stroke-width="1"/><text x="15" y="558" fill="#ddd" font-size="11" font-family="monospace" font-weight="bold">sz10gb_unpack</text><text x="15" y="572" fill="#888" font-size="9" font-family="monospace">10 GB download + 7z extraction</text><rect x="320" y="545" width="140" height="14" fill="#F5A623" opacity="0.9" rx="2"/><rect x="320" y="562" width="137" height="14" fill="#4A90D9" opacity="0.9" rx="2"/><text x="463" y="555" fill="#ddd" font-size="8" font-family="monospace">17.1</text><text x="459.7023970067719" y="572" fill="#ddd" font-size="8" font-family="monospace">16.7</text><rect x="510" y="545" width="137" height="14" fill="#F5A623" opacity="0.9" rx="2"/><rect x="510" y="562" width="140" height="14" fill="#4A90D9" opacity="0.9" rx="2"/><text x="649.7023970067719" y="555" fill="#ddd" font-size="8" font-family="monospace">5016.4</text><text x="653" y="572" fill="#ddd" font-size="8" font-family="monospace">5137.4</text><rect x="700" y="545" width="59" height="14" fill="#F5A623" opacity="0.9" rx="2"/><rect x="700" y="562" width="140" height="14" fill="#4A90D9" opacity="0.9" rx="2"/><text x="762.1182566221163" y="555" fill="#ddd" font-size="8" font-family="monospace">176.0</text><text x="843" y="572" fill="#ddd" font-size="8" font-family="monospace">416.8</text><rect x="890" y="545" width="113" height="14" fill="#F5A623" opacity="0.9" rx="2"/><rect x="890" y="562" width="140" height="14" fill="#4A90D9" opacity="0.9" rx="2"/><text x="1005.9494397019654" y="555" fill="#ddd" font-size="8" font-family="monospace">531.2</text><text x="1033" y="572" fill="#ddd" font-size="8" font-family="monospace">658.5</text></svg>