<svg xmlns="http://www.w3.org/2000/svg" width="850" height="880" style="background:#1a1a2e">
<text x="425" y="28" fill="#ddd" font-size="16" text-anchor="middle" font-family="monospace" font-weight="bold">sz10gb_unpack — Time Series</text>
<text x="425" y="48" fill="#888" font-size="12" text-anchor="middle" font-family="monospace">10 GB download + 7z extraction</text>
<text x="630" y="66" fill="#F5A623" font-size="11" font-family="monospace">— SABnzbd</text>
<text x="740" y="66" fill="#4A90D9" font-size="11" font-family="monospace">— rustnzbd</text><rect x="70" y="75" width="750" height="160" fill="#16213e" rx="4"/><text x="445" y="67" fill="#ddd" font-size="13" text-anchor="middle" font-family="monospace" font-weight="bold">CPU (%)</text><line x1="70" y1="235" x2="820" y2="235" stroke="#333" stroke-width="0.5"/><text x="66" y="238" fill="#888" font-size="8" text-anchor="end" font-family="monospace">0</text><line x1="70" y1="198" x2="820" y2="198" stroke="#333" stroke-width="0.5"/><text x="66" y="200.5" fill="#888" font-size="8" text-anchor="end" font-family="monospace">104</text><line x1="70" y1="160" x2="820" y2="160" stroke="#333" stroke-width="0.5"/><text x="66" y="163" fill="#888" font-size="8" text-anchor="end" font-family="monospace">208</text><line x1="70" y1="122" x2="820" y2="122" stroke="#333" stroke-width="0.5"/><text x="66" y="125.5" fill="#888" font-size="8" text-anchor="end" font-family="monospace">313</text><line x1="70" y1="85" x2="820" y2="85" stroke="#333" stroke-width="0.5"/><text x="66" y="88" fill="#888" font-size="8" text-anchor="end" font-family="monospace">417</text><polyline points="70.0,193.4 116.9,180.9 163.8,180.9 210.7,178.9 257.5,181.2 304.4,179.5 351.4,175.9 398.3,180.3 445.1,171.7 492.0,173.5 538.9,179.2 585.8,199.2 632.6,202.5 679.5,198.4 726.3,199.3 773.1,199.2 820.0,210.8" fill="none" stroke="#F5A623" stroke-width="2" opacity="0.9"/><polyline points="70.0,88.1 116.9,85.0 163.8,100.5 210.7,100.5 257.6,94.9 304.5,85.2 351.4,109.5 398.3,109.2 445.2,96.6 492.0,134.1 538.9,200.3 585.8,198.8 632.6,198.9 679.5,201.9 726.3,198.7 773.2,200.2" fill="none" stroke="#4A90D9" stroke-width="2" opacity="0.9"/><rect x="70" y="275" width="750" height="160" fill="#16213e" rx="4"/><text x="445" y="267" fill="#ddd" font-size="13" text-anchor="middle" font-family="monospace" font-weight="bold">Memory (MB)</text><line x1="70" y1="435" x2="820" y2="435" stroke="#333" stroke-width="0.5"/><text x="66" y="438" fill="#888" font-size="8" text-anchor="end" font-family="monospace">0</text><line x1="70" y1="398" x2="820" y2="398" stroke="#333" stroke-width="0.5"/><text x="66" y="400.5" fill="#888" font-size="8" text-anchor="end" font-family="monospace">165</text><line x1="70" y1="360" x2="820" y2="360" stroke="#333" stroke-width="0.5"/><text x="66" y="363" fill="#888" font-size="8" text-anchor="end" font-family="monospace">329</text><line x1="70" y1="322" x2="820" y2="322" stroke="#333" stroke-width="0.5"/><text x="66" y="325.5" fill="#888" font-size="8" text-anchor="end" font-family="monospace">494</text><line x1="70" y1="285" x2="820" y2="285" stroke="#333" stroke-width="0.5"/><text x="66" y="288" fill="#888" font-size="8" text-anchor="end" font-family="monospace">658</text><polyline points="70.0,400.9 116.9,394.3 163.8,386.6 210.7,379.2 257.5,376.0 304.4,369.7 351.4,364.3 398.3,353.2 445.1,355.6 492.0,349.1 538.9,348.0 585.8,337.8 632.6,330.9 679.5,324.9 726.3,318.8 773.1,314.0 820.0,347.9" fill="none" stroke="#F5A623" stroke-width="2" opacity="0.9"/><polyline points="70.0,359.7 116.9,352.8 163.8,344.7 210.7,339.1 257.6,330.6 304.5,324.2 351.4,316.9 398.3,309.5 445.2,301.9 492.0,302.1 538.9,291.3 585.8,285.6 632.6,285.1 679.5,285.0 726.3,285.6 773.2,286.7" fill="none" stroke="#4A90D9" stroke-width="2" opacity="0.9"/><rect x="70" y="475" width="750" height="160" fill="#16213e" rx="4"/><text x="445" y="467" fill="#ddd" font-size="13" text-anchor="middle" font-family="monospace" font-weight="bold">Net RX (Mbps)</text><line x1="70" y1="635" x2="820" y2="635" stroke="#333" stroke-width="0.5"/><text x="66" y="638" fill="#888" font-size="8" text-anchor="end" font-family="monospace">0</text><line x1="70" y1="598" x2="820" y2="598" stroke="#333" stroke-width="0.5"/><text x="66" y="600.5" fill="#888" font-size="8" text-anchor="end" font-family="monospace">2627</text><line x1="70" y1="560" x2="820" y2="560" stroke="#333" stroke-width="0.5"/><text x="66" y="563" fill="#888" font-size="8" text-anchor="end" font-family="monospace">5253</text><line x1="70" y1="522" x2="820" y2="522" stroke="#333" stroke-width="0.5"/><text x="66" y="525.5" fill="#888" font-size="8" text-anchor="end" font-family="monospace">7880</text><line x1="70" y1="485" x2="820" y2="485" stroke="#333" stroke-width="0.5"/><text x="66" y="488" fill="#888" font-size="8" text-anchor="end" font-family="monospace">10506</text><polyline points="70.0,525.7 116.9,521.2 163.8,493.9 210.7,508.1 257.5,507.5 304.4,509.3 351.4,518.0 398.3,523.0 445.1,523.4 492.0,525.9 538.9,564.6 585.8,635.0 632.6,635.0 679.5,635.0 726.3,635.0 773.1,635.0 820.0,635.0" fill="none" stroke="#F5A623" stroke-width="2" opacity="0.9"/><polyline points="70.0,485.0 116.9,488.5 163.8,498.8 210.7,497.2 257.6,498.6 304.5,492.3 351.4,495.7 398.3,499.3 445.2,491.9 492.0,535.9 538.9,635.0 585.8,635.0 632.6,635.0 679.5,635.0 726.3,635.0 773.2,635.0" fill="none" stroke="#4A90D9" stroke-width="2" opacity="0.9"/><rect x="70" y="675" width="750" height="160" fill="#16213e" rx="4"/><text x="445" y="667" fill="#ddd" font-size="13" text-anchor="middle" font-family="monospace" font-weight="bold">Disk Write (MB/s)</text><line x1="70" y1="835" x2="820" y2="835" stroke="#333" stroke-width="0.5"/><text x="66" y="838" fill="#888" font-size="8" text-anchor="end" font-family="monospace">0</text><line x1="70" y1="798" x2="820" y2="798" stroke="#333" stroke-width="0.5"/><text x="66" y="800.5" fill="#888" font-size="8" text-anchor="end" font-family="monospace">806</text><line x1="70" y1="760" x2="820" y2="760" stroke="#333" stroke-width="0.5"/><text x="66" y="763" fill="#888" font-size="8" text-anchor="end" font-family="monospace">1612</text><line x1="70" y1="722" x2="820" y2="722" stroke="#333" stroke-width="0.5"/><text x="66" y="725.5" fill="#888" font-size="8" text-anchor="end" font-family="monospace">2417</text><line x1="70" y1="685" x2="820" y2="685" stroke="#333" stroke-width="0.5"/><text x="66" y="688" fill="#888" font-size="8" text-anchor="end" font-family="monospace">3223</text><polyline points="70.0,819.0 116.9,820.0 163.8,835.0 210.7,810.7 257.5,798.0 304.4,775.4 351.4,806.1 398.3,778.7 445.1,807.5 492.0,781.6 538.9,786.1 585.8,751.8 632.6,685.0 679.5,835.0 726.3,749.0 773.1,736.7 820.0,800.4" fill="none" stroke="#F5A623" stroke-width="2" opacity="0.9"/><polyline points="70.0,835.0 116.9,835.0 163.8,769.7 210.7,799.7 257.6,768.3 304.5,817.1 351.4,786.0 398.3,769.8 445.2,802.7 492.0,766.6 538.9,769.9 585.8,751.9 632.6,770.5 679.5,747.2 726.3,771.9 773.2,749.8" fill="none" stroke="#4A90D9" stroke-width="2" opacity="0.9"/></svg>