<svg xmlns="http://www.w3.org/2000/svg" width="850" height="880" style="background:#1a1a2e">
<text x="425" y="28" fill="#ddd" font-size="16" text-anchor="middle" font-family="monospace" font-weight="bold">sz10gb_unpack — Time Series</text>
<text x="425" y="48" fill="#888" font-size="12" text-anchor="middle" font-family="monospace">10 GB download + 7z extraction</text>
<text x="630" y="66" fill="#F5A623" font-size="11" font-family="monospace">— SABnzbd</text>
<text x="740" y="66" fill="#4A90D9" font-size="11" font-family="monospace">— rustnzbd</text><rect x="70" y="75" width="750" height="160" fill="#16213e" rx="4"/><text x="445" y="67" fill="#ddd" font-size="13" text-anchor="middle" font-family="monospace" font-weight="bold">CPU (%)</text><line x1="70" y1="235" x2="820" y2="235" stroke="#333" stroke-width="0.5"/><text x="66" y="238" fill="#888" font-size="8" text-anchor="end" font-family="monospace">0</text><line x1="70" y1="198" x2="820" y2="198" stroke="#333" stroke-width="0.5"/><text x="66" y="200.5" fill="#888" font-size="8" text-anchor="end" font-family="monospace">99</text><line x1="70" y1="160" x2="820" y2="160" stroke="#333" stroke-width="0.5"/><text x="66" y="163" fill="#888" font-size="8" text-anchor="end" font-family="monospace">199</text><line x1="70" y1="122" x2="820" y2="122" stroke="#333" stroke-width="0.5"/><text x="66" y="125.5" fill="#888" font-size="8" text-anchor="end" font-family="monospace">298</text><line x1="70" y1="85" x2="820" y2="85" stroke="#333" stroke-width="0.5"/><text x="66" y="88" fill="#888" font-size="8" text-anchor="end" font-family="monospace">398</text><polyline points="70.0,201.8 101.3,192.5 132.6,188.3 163.9,193.9 195.1,182.9 226.3,180.2 257.6,169.2 288.8,165.3 320.1,167.4 351.3,171.4 382.6,167.9 413.8,165.0 445.1,166.0 476.3,169.8 507.6,168.0 538.8,203.4 570.0,203.3 601.2,205.4 632.4,205.1 663.7,205.0 695.0,201.0 726.3,202.8 757.5,202.3 788.8,200.6 820.0,203.4" fill="none" stroke="#F5A623" stroke-width="2" opacity="0.9"/><polyline points="70.0,126.0 101.2,104.5 132.6,131.1 163.8,134.8 195.0,85.0 226.3,100.2 257.6,105.2 288.8,128.6 320.1,113.2 351.4,153.5 382.6,101.9 413.9,112.8 445.1,151.3 476.3,199.8 507.5,196.9 538.7,197.8 569.9,197.6 601.1,197.1 632.4,198.3" fill="none" stroke="#4A90D9" stroke-width="2" opacity="0.9"/><rect x="70" y="275" width="750" height="160" fill="#16213e" rx="4"/><text x="445" y="267" fill="#ddd" font-size="13" text-anchor="middle" font-family="monospace" font-weight="bold">Memory (MB)</text><line x1="70" y1="435" x2="820" y2="435" stroke="#333" stroke-width="0.5"/><text x="66" y="438" fill="#888" font-size="8" text-anchor="end" font-family="monospace">0</text><line x1="70" y1="398" x2="820" y2="398" stroke="#333" stroke-width="0.5"/><text x="66" y="400.5" fill="#888" font-size="8" text-anchor="end" font-family="monospace">211</text><line x1="70" y1="360" x2="820" y2="360" stroke="#333" stroke-width="0.5"/><text x="66" y="363" fill="#888" font-size="8" text-anchor="end" font-family="monospace">421</text><line x1="70" y1="322" x2="820" y2="322" stroke="#333" stroke-width="0.5"/><text x="66" y="325.5" fill="#888" font-size="8" text-anchor="end" font-family="monospace">632</text><line x1="70" y1="285" x2="820" y2="285" stroke="#333" stroke-width="0.5"/><text x="66" y="288" fill="#888" font-size="8" text-anchor="end" font-family="monospace">842</text><polyline points="70.0,414.8 101.3,404.4 132.6,408.3 163.9,408.3 195.1,404.2 226.3,397.2 257.6,394.1 288.8,390.4 320.1,379.6 351.3,381.3 382.6,380.5 413.8,372.9 445.1,372.1 476.3,367.6 507.6,371.5 538.8,375.7 570.0,378.0 601.2,379.4 632.4,382.8 663.7,387.8 695.0,388.2 726.3,389.4 757.5,390.5 788.8,390.0 820.0,389.5" fill="none" stroke="#F5A623" stroke-width="2" opacity="0.9"/><polyline points="70.0,317.9 101.2,312.7 132.6,309.2 163.8,305.6 195.0,300.0 226.3,294.1 257.6,290.1 288.8,285.0 320.1,289.1 351.4,290.7 382.6,293.4 413.9,297.7 445.1,308.7 476.3,303.1 507.5,304.0 538.7,304.5 569.9,304.8 601.1,304.4 632.4,308.6" fill="none" stroke="#4A90D9" stroke-width="2" opacity="0.9"/><rect x="70" y="475" width="750" height="160" fill="#16213e" rx="4"/><text x="445" y="467" fill="#ddd" font-size="13" text-anchor="middle" font-family="monospace" font-weight="bold">Net RX (Mbps)</text><line x1="70" y1="635" x2="820" y2="635" stroke="#333" stroke-width="0.5"/><text x="66" y="638" fill="#888" font-size="8" text-anchor="end" font-family="monospace">0</text><line x1="70" y1="598" x2="820" y2="598" stroke="#333" stroke-width="0.5"/><text x="66" y="600.5" fill="#888" font-size="8" text-anchor="end" font-family="monospace">2419</text><line x1="70" y1="560" x2="820" y2="560" stroke="#333" stroke-width="0.5"/><text x="66" y="563" fill="#888" font-size="8" text-anchor="end" font-family="monospace">4838</text><line x1="70" y1="522" x2="820" y2="522" stroke="#333" stroke-width="0.5"/><text x="66" y="525.5" fill="#888" font-size="8" text-anchor="end" font-family="monospace">7257</text><line x1="70" y1="485" x2="820" y2="485" stroke="#333" stroke-width="0.5"/><text x="66" y="488" fill="#888" font-size="8" text-anchor="end" font-family="monospace">9676</text><polyline points="70.0,594.6 101.3,572.3 132.6,576.7 163.9,581.1 195.1,538.0 226.3,532.8 257.6,527.3 288.8,522.8 320.1,519.5 351.3,531.1 382.6,517.1 413.8,535.1 445.1,540.9 476.3,533.6 507.6,531.4 538.8,633.1 570.0,635.0 601.2,635.0 632.4,635.0 663.7,635.0 695.0,635.0 726.3,635.0 757.5,635.0 788.8,635.0 820.0,635.0" fill="none" stroke="#F5A623" stroke-width="2" opacity="0.9"/><polyline points="70.0,537.4 101.2,516.8 132.6,532.7 163.8,543.1 195.0,485.0 226.3,485.7 257.6,499.4 288.8,535.6 320.1,515.4 351.4,560.9 382.6,507.6 413.9,502.5 445.1,549.4 476.3,635.0 507.5,635.0 538.7,635.0 569.9,635.0 601.1,635.0 632.4,635.0" fill="none" stroke="#4A90D9" stroke-width="2" opacity="0.9"/><rect x="70" y="675" width="750" height="160" fill="#16213e" rx="4"/><text x="445" y="667" fill="#ddd" font-size="13" text-anchor="middle" font-family="monospace" font-weight="bold">Disk Write (MB/s)</text><line x1="70" y1="835" x2="820" y2="835" stroke="#333" stroke-width="0.5"/><text x="66" y="838" fill="#888" font-size="8" text-anchor="end" font-family="monospace">0</text><line x1="70" y1="798" x2="820" y2="798" stroke="#333" stroke-width="0.5"/><text x="66" y="800.5" fill="#888" font-size="8" text-anchor="end" font-family="monospace">770</text><line x1="70" y1="760" x2="820" y2="760" stroke="#333" stroke-width="0.5"/><text x="66" y="763" fill="#888" font-size="8" text-anchor="end" font-family="monospace">1540</text><line x1="70" y1="722" x2="820" y2="722" stroke="#333" stroke-width="0.5"/><text x="66" y="725.5" fill="#888" font-size="8" text-anchor="end" font-family="monospace">2311</text><line x1="70" y1="685" x2="820" y2="685" stroke="#333" stroke-width="0.5"/><text x="66" y="688" fill="#888" font-size="8" text-anchor="end" font-family="monospace">3081</text><polyline points="70.0,834.9 101.3,835.0 132.6,835.0 163.9,805.6 195.1,821.2 226.3,791.5 257.6,806.6 288.8,781.0 320.1,809.1 351.3,809.2 382.6,835.0 413.8,790.4 445.1,782.6 476.3,713.3 507.6,835.0 538.8,834.9 570.0,835.0 601.2,784.9 632.4,792.0 663.7,781.2 695.0,793.1 726.3,781.0 757.5,781.0 788.8,808.0 820.0,781.2" fill="none" stroke="#F5A623" stroke-width="2" opacity="0.9"/><polyline points="70.0,835.0 101.2,835.0 132.6,834.9 163.8,835.0 195.0,780.4 226.3,797.2 257.6,796.6 288.8,795.6 320.1,794.8 351.4,814.7 382.6,787.1 413.9,781.8 445.1,707.2 476.3,717.1 507.5,835.0 538.7,800.8 569.9,685.0 601.1,820.6 632.4,747.8" fill="none" stroke="#4A90D9" stroke-width="2" opacity="0.9"/></svg>