<svg xmlns="http://www.w3.org/2000/svg" width="850" height="880" style="background:#1a1a2e">
<text x="425" y="28" fill="#ddd" font-size="16" text-anchor="middle" font-family="monospace" font-weight="bold">sz10gb_unpack — Time Series</text>
<text x="425" y="48" fill="#888" font-size="12" text-anchor="middle" font-family="monospace">10 GB download + 7z extraction</text>
<text x="630" y="66" fill="#F5A623" font-size="11" font-family="monospace">— SABnzbd</text>
<text x="740" y="66" fill="#4A90D9" font-size="11" font-family="monospace">— rustnzbd</text><rect x="70" y="75" width="750" height="160" fill="#16213e" rx="4"/><text x="445" y="67" fill="#ddd" font-size="13" text-anchor="middle" font-family="monospace" font-weight="bold">CPU (%)</text><line x1="70" y1="235" x2="820" y2="235" stroke="#333" stroke-width="0.5"/><text x="66" y="238" fill="#888" font-size="8" text-anchor="end" font-family="monospace">0</text><line x1="70" y1="198" x2="820" y2="198" stroke="#333" stroke-width="0.5"/><text x="66" y="200.5" fill="#888" font-size="8" text-anchor="end" font-family="monospace">108</text><line x1="70" y1="160" x2="820" y2="160" stroke="#333" stroke-width="0.5"/><text x="66" y="163" fill="#888" font-size="8" text-anchor="end" font-family="monospace">217</text><line x1="70" y1="122" x2="820" y2="122" stroke="#333" stroke-width="0.5"/><text x="66" y="125.5" fill="#888" font-size="8" text-anchor="end" font-family="monospace">325</text><line x1="70" y1="85" x2="820" y2="85" stroke="#333" stroke-width="0.5"/><text x="66" y="88" fill="#888" font-size="8" text-anchor="end" font-family="monospace">434</text><polyline points="70.0,197.1 96.8,177.1 123.6,174.1 150.4,181.9 177.2,174.5 204.0,184.5 230.8,176.7 257.6,189.3 284.4,191.5 311.2,189.9 338.0,206.4 364.7,208.5 391.6,217.9 418.3,186.6 445.1,210.5 471.9,210.9 498.7,220.4 525.5,218.7 552.3,223.0 579.0,216.9 605.8,221.6 632.6,220.0 659.3,219.5 686.1,219.1 712.9,220.9 739.7,218.4 766.4,221.6 793.2,220.8 820.0,221.3" fill="none" stroke="#F5A623" stroke-width="2" opacity="0.9"/><polyline points="70.0,85.0 96.8,98.1 123.6,106.7 150.4,158.4 177.1,130.6 203.9,153.7 230.7,143.5 257.5,164.4 284.3,140.8 311.1,100.7 337.9,134.3 364.7,190.4 391.4,204.0 418.2,206.7 444.9,203.5 471.7,206.7 498.5,202.8 525.3,201.3 552.1,202.8" fill="none" stroke="#4A90D9" stroke-width="2" opacity="0.9"/><rect x="70" y="275" width="750" height="160" fill="#16213e" rx="4"/><text x="445" y="267" fill="#ddd" font-size="13" text-anchor="middle" font-family="monospace" font-weight="bold">Memory (MB)</text><line x1="70" y1="435" x2="820" y2="435" stroke="#333" stroke-width="0.5"/><text x="66" y="438" fill="#888" font-size="8" text-anchor="end" font-family="monospace">0</text><line x1="70" y1="398" x2="820" y2="398" stroke="#333" stroke-width="0.5"/><text x="66" y="400.5" fill="#888" font-size="8" text-anchor="end" font-family="monospace">174</text><line x1="70" y1="360" x2="820" y2="360" stroke="#333" stroke-width="0.5"/><text x="66" y="363" fill="#888" font-size="8" text-anchor="end" font-family="monospace">349</text><line x1="70" y1="322" x2="820" y2="322" stroke="#333" stroke-width="0.5"/><text x="66" y="325.5" fill="#888" font-size="8" text-anchor="end" font-family="monospace">523</text><line x1="70" y1="285" x2="820" y2="285" stroke="#333" stroke-width="0.5"/><text x="66" y="288" fill="#888" font-size="8" text-anchor="end" font-family="monospace">697</text><polyline points="70.0,404.6 96.8,398.7 123.6,395.6 150.4,390.3 177.2,386.1 204.0,377.8 230.8,378.6 257.6,369.2 284.4,371.0 311.2,363.4 338.0,359.2 364.7,353.0 391.6,358.7 418.3,359.0 445.1,358.0 471.9,354.6 498.7,353.1 525.5,352.9 552.3,351.9 579.0,351.4 605.8,352.1 632.6,353.3 659.3,355.0 686.1,357.2 712.9,357.4 739.7,358.4 766.4,356.7 793.2,355.6 820.0,360.2" fill="none" stroke="#F5A623" stroke-width="2" opacity="0.9"/><polyline points="70.0,355.5 96.8,348.4 123.6,343.2 150.4,339.1 177.1,332.0 203.9,327.8 230.7,321.1 257.5,318.4 284.3,312.5 311.1,304.0 337.9,297.8 364.7,336.1 391.4,326.4 418.2,317.4 444.9,307.6 471.7,299.0 498.5,291.0 525.3,286.8 552.1,285.0" fill="none" stroke="#4A90D9" stroke-width="2" opacity="0.9"/><rect x="70" y="475" width="750" height="160" fill="#16213e" rx="4"/><text x="445" y="467" fill="#ddd" font-size="13" text-anchor="middle" font-family="monospace" font-weight="bold">Net RX (Mbps)</text><line x1="70" y1="635" x2="820" y2="635" stroke="#333" stroke-width="0.5"/><text x="66" y="638" fill="#888" font-size="8" text-anchor="end" font-family="monospace">0</text><line x1="70" y1="598" x2="820" y2="598" stroke="#333" stroke-width="0.5"/><text x="66" y="600.5" fill="#888" font-size="8" text-anchor="end" font-family="monospace">2936</text><line x1="70" y1="560" x2="820" y2="560" stroke="#333" stroke-width="0.5"/><text x="66" y="563" fill="#888" font-size="8" text-anchor="end" font-family="monospace">5871</text><line x1="70" y1="522" x2="820" y2="522" stroke="#333" stroke-width="0.5"/><text x="66" y="525.5" fill="#888" font-size="8" text-anchor="end" font-family="monospace">8807</text><line x1="70" y1="485" x2="820" y2="485" stroke="#333" stroke-width="0.5"/><text x="66" y="488" fill="#888" font-size="8" text-anchor="end" font-family="monospace">11742</text><polyline points="70.0,561.6 96.8,538.3 123.6,544.1 150.4,546.7 177.2,547.6 204.0,556.8 230.8,553.5 257.6,558.9 284.4,548.2 311.2,542.5 338.0,565.6 364.7,567.4 391.6,587.7 418.3,539.9 445.1,635.0 471.9,635.0 498.7,635.0 525.5,635.0 552.3,635.0 579.0,635.0 605.8,635.0 632.6,635.0 659.3,635.0 686.1,635.0 712.9,635.0 739.7,635.0 766.4,635.0 793.2,635.0 820.0,635.0" fill="none" stroke="#F5A623" stroke-width="2" opacity="0.9"/><polyline points="70.0,499.3 96.8,507.8 123.6,510.0 150.4,550.3 177.1,529.3 203.9,541.5 230.7,537.8 257.5,564.1 284.3,542.7 311.1,485.0 337.9,523.3 364.7,605.5 391.4,635.0 418.2,635.0 444.9,635.0 471.7,635.0 498.5,635.0 525.3,635.0 552.1,635.0" fill="none" stroke="#4A90D9" stroke-width="2" opacity="0.9"/><rect x="70" y="675" width="750" height="160" fill="#16213e" rx="4"/><text x="445" y="667" fill="#ddd" font-size="13" text-anchor="middle" font-family="monospace" font-weight="bold">Disk Write (MB/s)</text><line x1="70" y1="835" x2="820" y2="835" stroke="#333" stroke-width="0.5"/><text x="66" y="838" fill="#888" font-size="8" text-anchor="end" font-family="monospace">0</text><line x1="70" y1="798" x2="820" y2="798" stroke="#333" stroke-width="0.5"/><text x="66" y="800.5" fill="#888" font-size="8" text-anchor="end" font-family="monospace">410</text><line x1="70" y1="760" x2="820" y2="760" stroke="#333" stroke-width="0.5"/><text x="66" y="763" fill="#888" font-size="8" text-anchor="end" font-family="monospace">821</text><line x1="70" y1="722" x2="820" y2="722" stroke="#333" stroke-width="0.5"/><text x="66" y="725.5" fill="#888" font-size="8" text-anchor="end" font-family="monospace">1231</text><line x1="70" y1="685" x2="820" y2="685" stroke="#333" stroke-width="0.5"/><text x="66" y="688" fill="#888" font-size="8" text-anchor="end" font-family="monospace">1641</text><polyline points="70.0,834.9 96.8,835.0 123.6,835.0 150.4,789.4 177.2,835.0 204.0,767.6 230.8,802.9 257.6,761.0 284.4,753.0 311.2,721.2 338.0,700.1 364.7,690.5 391.6,720.6 418.3,834.9 445.1,835.0 471.9,835.0 498.7,792.7 525.5,782.5 552.3,761.3 579.0,793.8 605.8,761.7 632.6,787.9 659.3,763.1 686.1,792.3 712.9,761.7 739.7,779.5 766.4,784.7 793.2,766.8 820.0,801.4" fill="none" stroke="#F5A623" stroke-width="2" opacity="0.9"/><polyline points="70.0,835.0 96.8,834.9 123.6,834.5 150.4,735.0 177.1,778.7 203.9,752.6 230.7,781.8 257.5,762.0 284.3,762.0 311.1,724.8 337.9,751.0 364.7,773.2 391.4,685.0 418.2,700.7 444.9,713.8 471.7,685.0 498.5,716.8 525.3,784.0 552.1,713.9" fill="none" stroke="#4A90D9" stroke-width="2" opacity="0.9"/></svg>