<svg xmlns="http://www.w3.org/2000/svg" width="850" height="880" style="background:#1a1a2e">
<text x="425" y="28" fill="#ddd" font-size="16" text-anchor="middle" font-family="monospace" font-weight="bold">sz5gb_raw — Time Series</text>
<text x="425" y="48" fill="#888" font-size="12" text-anchor="middle" font-family="monospace">5 GB raw download</text>
<text x="630" y="66" fill="#F5A623" font-size="11" font-family="monospace">— SABnzbd</text>
<text x="740" y="66" fill="#4A90D9" font-size="11" font-family="monospace">— rustnzbd</text><rect x="70" y="75" width="750" height="160" fill="#16213e" rx="4"/><text x="445" y="67" fill="#ddd" font-size="13" text-anchor="middle" font-family="monospace" font-weight="bold">CPU (%)</text><line x1="70" y1="235" x2="820" y2="235" stroke="#333" stroke-width="0.5"/><text x="66" y="238" fill="#888" font-size="8" text-anchor="end" font-family="monospace">0</text><line x1="70" y1="198" x2="820" y2="198" stroke="#333" stroke-width="0.5"/><text x="66" y="200.5" fill="#888" font-size="8" text-anchor="end" font-family="monospace">112</text><line x1="70" y1="160" x2="820" y2="160" stroke="#333" stroke-width="0.5"/><text x="66" y="163" fill="#888" font-size="8" text-anchor="end" font-family="monospace">224</text><line x1="70" y1="122" x2="820" y2="122" stroke="#333" stroke-width="0.5"/><text x="66" y="125.5" fill="#888" font-size="8" text-anchor="end" font-family="monospace">336</text><line x1="70" y1="85" x2="820" y2="85" stroke="#333" stroke-width="0.5"/><text x="66" y="88" fill="#888" font-size="8" text-anchor="end" font-family="monospace">448</text><polyline points="70.0,197.1 257.6,185.3 445.0,185.4 632.7,185.7 820.0,203.4" fill="none" stroke="#F5A623" stroke-width="2" opacity="0.9"/><polyline points="70.0,85.0 257.6,97.1 445.3,91.2 632.6,163.3" fill="none" stroke="#4A90D9" stroke-width="2" opacity="0.9"/><rect x="70" y="275" width="750" height="160" fill="#16213e" rx="4"/><text x="445" y="267" fill="#ddd" font-size="13" text-anchor="middle" font-family="monospace" font-weight="bold">Memory (MB)</text><line x1="70" y1="435" x2="820" y2="435" stroke="#333" stroke-width="0.5"/><text x="66" y="438" fill="#888" font-size="8" text-anchor="end" font-family="monospace">0</text><line x1="70" y1="398" x2="820" y2="398" stroke="#333" stroke-width="0.5"/><text x="66" y="400.5" fill="#888" font-size="8" text-anchor="end" font-family="monospace">57</text><line x1="70" y1="360" x2="820" y2="360" stroke="#333" stroke-width="0.5"/><text x="66" y="363" fill="#888" font-size="8" text-anchor="end" font-family="monospace">114</text><line x1="70" y1="322" x2="820" y2="322" stroke="#333" stroke-width="0.5"/><text x="66" y="325.5" fill="#888" font-size="8" text-anchor="end" font-family="monospace">171</text><line x1="70" y1="285" x2="820" y2="285" stroke="#333" stroke-width="0.5"/><text x="66" y="288" fill="#888" font-size="8" text-anchor="end" font-family="monospace">228</text><polyline points="70.0,347.0 257.6,330.7 445.0,303.9 632.7,285.0 820.0,294.5" fill="none" stroke="#F5A623" stroke-width="2" opacity="0.9"/><polyline points="70.0,364.9 257.6,336.7 445.3,311.5 632.6,308.7" fill="none" stroke="#4A90D9" stroke-width="2" opacity="0.9"/><rect x="70" y="475" width="750" height="160" fill="#16213e" rx="4"/><text x="445" y="467" fill="#ddd" font-size="13" text-anchor="middle" font-family="monospace" font-weight="bold">Net RX (Mbps)</text><line x1="70" y1="635" x2="820" y2="635" stroke="#333" stroke-width="0.5"/><text x="66" y="638" fill="#888" font-size="8" text-anchor="end" font-family="monospace">0</text><line x1="70" y1="598" x2="820" y2="598" stroke="#333" stroke-width="0.5"/><text x="66" y="600.5" fill="#888" font-size="8" text-anchor="end" font-family="monospace">3233</text><line x1="70" y1="560" x2="820" y2="560" stroke="#333" stroke-width="0.5"/><text x="66" y="563" fill="#888" font-size="8" text-anchor="end" font-family="monospace">6467</text><line x1="70" y1="522" x2="820" y2="522" stroke="#333" stroke-width="0.5"/><text x="66" y="525.5" fill="#888" font-size="8" text-anchor="end" font-family="monospace">9700</text><line x1="70" y1="485" x2="820" y2="485" stroke="#333" stroke-width="0.5"/><text x="66" y="488" fill="#888" font-size="8" text-anchor="end" font-family="monospace">12933</text><polyline points="70.0,544.9 257.6,516.7 445.0,516.1 632.7,518.4 820.0,565.5" fill="none" stroke="#F5A623" stroke-width="2" opacity="0.9"/><polyline points="70.0,487.3 257.6,485.0 445.3,495.6 632.6,558.7" fill="none" stroke="#4A90D9" stroke-width="2" opacity="0.9"/><rect x="70" y="675" width="750" height="160" fill="#16213e" rx="4"/><text x="445" y="667" fill="#ddd" font-size="13" text-anchor="middle" font-family="monospace" font-weight="bold">Disk Write (MB/s)</text><line x1="70" y1="835" x2="820" y2="835" stroke="#333" stroke-width="0.5"/><text x="66" y="838" fill="#888" font-size="8" text-anchor="end" font-family="monospace">0</text><line x1="70" y1="798" x2="820" y2="798" stroke="#333" stroke-width="0.5"/><text x="66" y="800.5" fill="#888" font-size="8" text-anchor="end" font-family="monospace">335</text><line x1="70" y1="760" x2="820" y2="760" stroke="#333" stroke-width="0.5"/><text x="66" y="763" fill="#888" font-size="8" text-anchor="end" font-family="monospace">670</text><line x1="70" y1="722" x2="820" y2="722" stroke="#333" stroke-width="0.5"/><text x="66" y="725.5" fill="#888" font-size="8" text-anchor="end" font-family="monospace">1005</text><line x1="70" y1="685" x2="820" y2="685" stroke="#333" stroke-width="0.5"/><text x="66" y="688" fill="#888" font-size="8" text-anchor="end" font-family="monospace">1340</text><polyline points="70.0,835.0 257.6,835.0 445.0,835.0 632.7,741.3 820.0,751.3" fill="none" stroke="#F5A623" stroke-width="2" opacity="0.9"/><polyline points="70.0,835.0 257.6,834.9 445.3,685.0 632.6,834.9" fill="none" stroke="#4A90D9" stroke-width="2" opacity="0.9"/></svg>