<svg xmlns="http://www.w3.org/2000/svg" width="900" height="576" style="background:#1a1a2e">
<text x="450" y="28" fill="#ddd" font-size="16" text-anchor="middle" font-family="monospace" font-weight="bold">sz5gb_par2 — Comparison</text>
<text x="450" y="48" fill="#888" font-size="12" text-anchor="middle" font-family="monospace">5 GB download + par2 repair (3% missing)</text>
<text x="680" y="68" fill="#F5A623" font-size="11" font-family="monospace">■ SABnzbd</text>
<text x="790" y="68" fill="#4A90D9" font-size="11" font-family="monospace">■ rustnzbd</text><text x="20" y="100" fill="#888" font-size="10" font-family="monospace">Timing</text><line x1="20" y1="104" x2="880" y2="104" stroke="#333" stroke-width="1"/><text x="160" y="122" fill="#ddd" font-size="11" text-anchor="end" font-family="monospace">Total Time</text><rect x="190" y="110" width="290.3" height="16" fill="#F5A623" opacity="0.9" rx="2"/><text x="485.2707426217838" y="122" fill="#ddd" font-size="9" font-family="monospace">30.4 s</text><rect x="190" y="130" width="320.0" height="16" fill="#4A90D9" opacity="0.9" rx="2"/><text x="515" y="142" fill="#ddd" font-size="9" font-family="monospace">33.5 s</text><text x="160" y="166" fill="#ddd" font-size="11" text-anchor="end" font-family="monospace">Download</text><rect x="190" y="154" width="320.0" height="16" fill="#F5A623" opacity="0.9" rx="2"/><text x="515" y="166" fill="#ddd" font-size="9" font-family="monospace">9.4 s</text><rect x="190" y="174" width="138.3" height="16" fill="#4A90D9" opacity="0.9" rx="2"/><text x="333.2803715029802" y="186" fill="#ddd" font-size="9" font-family="monospace">4.0 s</text><text x="160" y="210" fill="#ddd" font-size="11" text-anchor="end" font-family="monospace">Par2</text><rect x="190" y="198" width="228.3" height="16" fill="#F5A623" opacity="0.9" rx="2"/><text x="423.3216130102828" y="210" fill="#ddd" font-size="9" font-family="monospace">21.0 s</text><rect x="190" y="218" width="320.0" height="16" fill="#4A90D9" opacity="0.9" rx="2"/><text x="515" y="230" fill="#ddd" font-size="9" font-family="monospace">29.4 s</text><text x="160" y="254" fill="#ddd" font-size="11" text-anchor="end" font-family="monospace">Unpack</text><rect x="190" y="242" width="0.0" height="16" fill="#F5A623" opacity="0.9" rx="2"/><text x="195" y="254" fill="#ddd" font-size="9" font-family="monospace">0.0 s</text><rect x="190" y="262" width="69.0" height="16" fill="#4A90D9" opacity="0.9" rx="2"/><text x="264.02272" y="274" fill="#ddd" font-size="9" font-family="monospace">0.0 s</text><text x="20" y="306" fill="#888" font-size="10" font-family="monospace">Speed</text><line x1="20" y1="310" x2="880" y2="310" stroke="#333" stroke-width="1"/><text x="160" y="328" fill="#ddd" font-size="11" text-anchor="end" font-family="monospace">Avg Speed</text><rect x="190" y="316" width="320.0" height="16" fill="#F5A623" opacity="0.9" rx="2"/><text x="515" y="328" fill="#ddd" font-size="9" font-family="monospace">1414.1 Mbps</text><rect x="190" y="336" width="290.3" height="16" fill="#4A90D9" opacity="0.9" rx="2"/><text x="485.2707426217838" y="348" fill="#ddd" font-size="9" font-family="monospace">1282.8 Mbps</text><text x="160" y="372" fill="#ddd" font-size="11" text-anchor="end" font-family="monospace">Peak Speed</text><rect x="190" y="360" width="241.1" height="16" fill="#F5A623" opacity="0.9" rx="2"/><text x="436.0569658320013" y="372" fill="#ddd" font-size="9" font-family="monospace">9387.7 Mbps</text><rect x="190" y="380" width="320.0" height="16" fill="#4A90D9" opacity="0.9" rx="2"/><text x="515" y="392" fill="#ddd" font-size="9" font-family="monospace">12462.0 Mbps</text><text x="20" y="424" fill="#888" font-size="10" font-family="monospace">Resources</text><line x1="20" y1="428" x2="880" y2="428" stroke="#333" stroke-width="1"/><text x="160" y="446" fill="#ddd" font-size="11" text-anchor="end" font-family="monospace">CPU Avg</text><rect x="190" y="434" width="313.7" height="16" fill="#F5A623" opacity="0.9" rx="2"/><text x="508.7295497950776" y="446" fill="#ddd" font-size="9" font-family="monospace">405.9 %</text><rect x="190" y="454" width="320.0" height="16" fill="#4A90D9" opacity="0.9" rx="2"/><text x="515" y="466" fill="#ddd" font-size="9" font-family="monospace">414.0 %</text><text x="160" y="490" fill="#ddd" font-size="11" text-anchor="end" font-family="monospace">CPU Peak</text><rect x="190" y="478" width="303.6" height="16" fill="#F5A623" opacity="0.9" rx="2"/><text x="498.5791042661318" y="490" fill="#ddd" font-size="9" font-family="monospace">1240.3 %</text><rect x="190" y="498" width="320.0" height="16" fill="#4A90D9" opacity="0.9" rx="2"/><text x="515" y="510" fill="#ddd" font-size="9" font-family="monospace">1307.4 %</text><text x="160" y="534" fill="#ddd" font-size="11" text-anchor="end" font-family="monospace">Mem Peak</text><rect x="190" y="522" width="320.0" height="16" fill="#F5A623" opacity="0.9" rx="2"/><text x="515" y="534" fill="#ddd" font-size="9" font-family="monospace">1249.9 MB</text><rect x="190" y="542" width="128.5" height="16" fill="#4A90D9" opacity="0.9" rx="2"/><text x="323.51462251473504" y="554" fill="#ddd" font-size="9" font-family="monospace">502.0 MB</text></svg>