<svg xmlns="http://www.w3.org/2000/svg" width="900" height="488" style="background:#1a1a2e">
<text x="450" y="28" fill="#ddd" font-size="16" text-anchor="middle" font-family="monospace" font-weight="bold">sz5gb_raw — Comparison</text>
<text x="450" y="48" fill="#888" font-size="12" text-anchor="middle" font-family="monospace">5 GB raw download</text>
<text x="680" y="68" fill="#F5A623" font-size="11" font-family="monospace">■ SABnzbd</text>
<text x="790" y="68" fill="#4A90D9" font-size="11" font-family="monospace">■ rustnzbd</text><text x="20" y="100" fill="#888" font-size="10" font-family="monospace">Timing</text><line x1="20" y1="104" x2="880" y2="104" stroke="#333" stroke-width="1"/><text x="160" y="122" fill="#ddd" font-size="11" text-anchor="end" font-family="monospace">Total Time</text><rect x="190" y="110" width="0.0" height="16" fill="#F5A623" opacity="0.9" rx="2"/><text x="195" y="122" fill="#ddd" font-size="9" font-family="monospace">0.0 s</text><rect x="190" y="130" width="320.0" height="16" fill="#4A90D9" opacity="0.9" rx="2"/><text x="515" y="142" fill="#ddd" font-size="9" font-family="monospace">11.3 s</text><text x="160" y="166" fill="#ddd" font-size="11" text-anchor="end" font-family="monospace">Download</text><rect x="190" y="154" width="0.0" height="16" fill="#F5A623" opacity="0.9" rx="2"/><text x="195" y="166" fill="#ddd" font-size="9" font-family="monospace">0.0 s</text><rect x="190" y="174" width="320.0" height="16" fill="#4A90D9" opacity="0.9" rx="2"/><text x="515" y="186" fill="#ddd" font-size="9" font-family="monospace">10.0 s</text><text x="20" y="218" fill="#888" font-size="10" font-family="monospace">Speed</text><line x1="20" y1="222" x2="880" y2="222" stroke="#333" stroke-width="1"/><text x="160" y="240" fill="#ddd" font-size="11" text-anchor="end" font-family="monospace">Avg Speed</text><rect x="190" y="228" width="0.0" height="16" fill="#F5A623" opacity="0.9" rx="2"/><text x="195" y="240" fill="#ddd" font-size="9" font-family="monospace">0.0 Mbps</text><rect x="190" y="248" width="320.0" height="16" fill="#4A90D9" opacity="0.9" rx="2"/><text x="515" y="260" fill="#ddd" font-size="9" font-family="monospace">3784.9 Mbps</text><text x="160" y="284" fill="#ddd" font-size="11" text-anchor="end" font-family="monospace">Peak Speed</text><rect x="190" y="272" width="0.0" height="16" fill="#F5A623" opacity="0.9" rx="2"/><text x="195" y="284" fill="#ddd" font-size="9" font-family="monospace">0.0 Mbps</text><rect x="190" y="292" width="320.0" height="16" fill="#4A90D9" opacity="0.9" rx="2"/><text x="515" y="304" fill="#ddd" font-size="9" font-family="monospace">4212.0 Mbps</text><text x="20" y="336" fill="#888" font-size="10" font-family="monospace">Resources</text><line x1="20" y1="340" x2="880" y2="340" stroke="#333" stroke-width="1"/><text x="160" y="358" fill="#ddd" font-size="11" text-anchor="end" font-family="monospace">CPU Avg</text><rect x="190" y="346" width="0.0" height="16" fill="#F5A623" opacity="0.9" rx="2"/><text x="195" y="358" fill="#ddd" font-size="9" font-family="monospace">0.0 %</text><rect x="190" y="366" width="320.0" height="16" fill="#4A90D9" opacity="0.9" rx="2"/><text x="515" y="378" fill="#ddd" font-size="9" font-family="monospace">181.8 %</text><text x="160" y="402" fill="#ddd" font-size="11" text-anchor="end" font-family="monospace">CPU Peak</text><rect x="190" y="390" width="0.0" height="16" fill="#F5A623" opacity="0.9" rx="2"/><text x="195" y="402" fill="#ddd" font-size="9" font-family="monospace">0.0 %</text><rect x="190" y="410" width="320.0" height="16" fill="#4A90D9" opacity="0.9" rx="2"/><text x="515" y="422" fill="#ddd" font-size="9" font-family="monospace">203.3 %</text><text x="160" y="446" fill="#ddd" font-size="11" text-anchor="end" font-family="monospace">Mem Peak</text><rect x="190" y="434" width="0.0" height="16" fill="#F5A623" opacity="0.9" rx="2"/><text x="195" y="446" fill="#ddd" font-size="9" font-family="monospace">0.0 MB</text><rect x="190" y="454" width="320.0" height="16" fill="#4A90D9" opacity="0.9" rx="2"/><text x="515" y="466" fill="#ddd" font-size="9" font-family="monospace">203.0 MB</text></svg>