<svg xmlns="http://www.w3.org/2000/svg" width="1100" height="650" style="background:#1a1a2e">
<text x="550" y="28" fill="#ddd" font-size="18" text-anchor="middle" font-family="monospace" font-weight="bold">Benchmark Dashboard: SABnzbd vs rustnzbd</text>
<text x="60" y="55" fill="#F5A623" font-size="12" font-family="monospace">■ SABnzbd</text>
<text x="180" y="55" fill="#4A90D9" font-size="12" font-family="monospace">■ rustnzbd</text><text x="320" y="75" fill="#888" font-size="10" font-family="monospace">Total Time (s)</text><text x="510" y="75" fill="#888" font-size="10" font-family="monospace">Avg Speed (Mbps)</text><text x="700" y="75" fill="#888" font-size="10" font-family="monospace">CPU Peak (%)</text><text x="890" y="75" fill="#888" font-size="10" font-family="monospace">Mem Peak (MB)</text><line x1="10" y1="82" x2="1090" y2="82" stroke="#333" stroke-width="1"/><text x="15" y="108" fill="#ddd" font-size="11" font-family="monospace" font-weight="bold">sz5gb_raw</text><text x="15" y="122" fill="#888" font-size="9" font-family="monospace">5 GB raw download</text><rect x="320" y="95" width="89" height="14" fill="#F5A623" opacity="0.9" rx="2"/><rect x="320" y="112" width="140" height="14" fill="#4A90D9" opacity="0.9" rx="2"/><text x="412.47535265449585" y="105" fill="#ddd" font-size="8" font-family="monospace">8.0</text><text x="463" y="122" fill="#ddd" font-size="8" font-family="monospace">12.6</text><rect x="510" y="95" width="140" height="14" fill="#F5A623" opacity="0.9" rx="2"/><rect x="510" y="112" width="89" height="14" fill="#4A90D9" opacity="0.9" rx="2"/><text x="653" y="105" fill="#ddd" font-size="8" font-family="monospace">5337.6</text><text x="602.4753526544959" y="122" fill="#ddd" font-size="8" font-family="monospace">3411.3</text><rect x="700" y="95" width="140" height="14" fill="#F5A623" opacity="0.9" rx="2"/><rect x="700" y="112" width="135" height="14" fill="#4A90D9" opacity="0.9" rx="2"/><text x="843" y="105" fill="#ddd" font-size="8" font-family="monospace">188.5</text><text x="837.8326943768449" y="122" fill="#ddd" font-size="8" font-family="monospace">181.5</text><rect x="890" y="95" width="140" height="14" fill="#F5A623" opacity="0.9" rx="2"/><rect x="890" y="112" width="112" height="14" fill="#4A90D9" opacity="0.9" rx="2"/><text x="1033" y="105" fill="#ddd" font-size="8" font-family="monospace">243.9</text><text x="1005.0291479820628" y="122" fill="#ddd" font-size="8" font-family="monospace">195.2</text><line x1="10" y1="175" x2="1090" y2="175" stroke="#333" stroke-width="1"/><text x="15" y="198" fill="#ddd" font-size="11" font-family="monospace" font-weight="bold">sz5gb_par2</text><text x="15" y="212" fill="#888" font-size="9" font-family="monospace">5 GB download + par2 repair (5% missing)</text><rect x="320" y="185" width="140" height="14" fill="#F5A623" opacity="0.9" rx="2"/><rect x="320" y="202" width="32" height="14" fill="#4A90D9" opacity="0.9" rx="2"/><text x="463" y="195" fill="#ddd" font-size="8" font-family="monospace">75.5</text><text x="355.46072318855556" y="212" fill="#ddd" font-size="8" font-family="monospace">17.5</text><rect x="510" y="185" width="32" height="14" fill="#F5A623" opacity="0.9" rx="2"/><rect x="510" y="202" width="140" height="14" fill="#4A90D9" opacity="0.9" rx="2"/><text x="545.4607231885556" y="195" fill="#ddd" font-size="8" font-family="monospace">568.5</text><text x="653" y="212" fill="#ddd" font-size="8" font-family="monospace">2451.9</text><rect x="700" y="185" width="140" height="14" fill="#F5A623" opacity="0.9" rx="2"/><rect x="700" y="202" width="57" height="14" fill="#4A90D9" opacity="0.9" rx="2"/><text x="843" y="195" fill="#ddd" font-size="8" font-family="monospace">534.1</text><text x="759.9505789543962" y="212" fill="#ddd" font-size="8" font-family="monospace">217.3</text><rect x="890" y="185" width="140" height="14" fill="#F5A623" opacity="0.9" rx="2"/><rect x="890" y="202" width="7" height="14" fill="#4A90D9" opacity="0.9" rx="2"/><text x="1033" y="195" fill="#ddd" font-size="8" font-family="monospace">5242.1</text><text x="899.6569894163769" y="212" fill="#ddd" font-size="8" font-family="monospace">249.3</text><line x1="10" y1="265" x2="1090" y2="265" stroke="#333" stroke-width="1"/><text x="15" y="288" fill="#ddd" font-size="11" font-family="monospace" font-weight="bold">sz5gb_unpack</text><text x="15" y="302" fill="#888" font-size="9" font-family="monospace">5 GB download + 7z extraction</text><rect x="320" y="275" width="132" height="14" fill="#F5A623" opacity="0.9" rx="2"/><rect x="320" y="292" width="140" height="14" fill="#4A90D9" opacity="0.9" rx="2"/><text x="454.8938852594212" y="285" fill="#ddd" font-size="8" font-family="monospace">16.1</text><text x="463" y="302" fill="#ddd" font-size="8" font-family="monospace">17.1</text><rect x="510" y="275" width="140" height="14" fill="#F5A623" opacity="0.9" rx="2"/><rect x="510" y="292" width="132" height="14" fill="#4A90D9" opacity="0.9" rx="2"/><text x="653" y="285" fill="#ddd" font-size="8" font-family="monospace">2665.3</text><text x="644.8938852594212" y="302" fill="#ddd" font-size="8" font-family="monospace">2510.9</text><rect x="700" y="275" width="133" height="14" fill="#F5A623" opacity="0.9" rx="2"/><rect x="700" y="292" width="140" height="14" fill="#4A90D9" opacity="0.9" rx="2"/><text x="836.0351546781757" y="285" fill="#ddd" font-size="8" font-family="monospace">180.1</text><text x="843" y="302" fill="#ddd" font-size="8" font-family="monospace">189.5</text><rect x="890" y="275" width="140" height="14" fill="#F5A623" opacity="0.9" rx="2"/><rect x="890" y="292" width="123" height="14" fill="#4A90D9" opacity="0.9" rx="2"/><text x="1033" y="285" fill="#ddd" font-size="8" font-family="monospace">324.7</text><text x="1016.1058291433108" y="302" fill="#ddd" font-size="8" font-family="monospace">285.6</text><line x1="10" y1="355" x2="1090" y2="355" stroke="#333" stroke-width="1"/><text x="15" y="378" fill="#ddd" font-size="11" font-family="monospace" font-weight="bold">sz10gb_raw</text><text x="15" y="392" fill="#888" font-size="9" font-family="monospace">10 GB raw download</text><rect x="320" y="365" width="74" height="14" fill="#F5A623" opacity="0.9" rx="2"/><rect x="320" y="382" width="140" height="14" fill="#4A90D9" opacity="0.9" rx="2"/><text x="397.2768746861071" y="375" fill="#ddd" font-size="8" font-family="monospace">13.1</text><text x="463" y="392" fill="#ddd" font-size="8" font-family="monospace">24.7</text><rect x="510" y="365" width="140" height="14" fill="#F5A623" opacity="0.9" rx="2"/><rect x="510" y="382" width="74" height="14" fill="#4A90D9" opacity="0.9" rx="2"/><text x="653" y="375" fill="#ddd" font-size="8" font-family="monospace">6558.8</text><text x="587.276874686107" y="392" fill="#ddd" font-size="8" font-family="monospace">3479.8</text><rect x="700" y="365" width="139" height="14" fill="#F5A623" opacity="0.9" rx="2"/><rect x="700" y="382" width="140" height="14" fill="#4A90D9" opacity="0.9" rx="2"/><text x="842.1533111698234" y="375" fill="#ddd" font-size="8" font-family="monospace">181.4</text><text x="843" y="392" fill="#ddd" font-size="8" font-family="monospace">182.5</text><rect x="890" y="365" width="137" height="14" fill="#F5A623" opacity="0.9" rx="2"/><rect x="890" y="382" width="140" height="14" fill="#4A90D9" opacity="0.9" rx="2"/><text x="1029.8655485290074" y="375" fill="#ddd" font-size="8" font-family="monospace">388.9</text><text x="1033" y="392" fill="#ddd" font-size="8" font-family="monospace">397.8</text><line x1="10" y1="445" x2="1090" y2="445" stroke="#333" stroke-width="1"/><text x="15" y="468" fill="#ddd" font-size="11" font-family="monospace" font-weight="bold">sz10gb_par2</text><text x="15" y="482" fill="#888" font-size="9" font-family="monospace">10 GB download + par2 repair (5% missing)</text><rect x="320" y="455" width="140" height="14" fill="#F5A623" opacity="0.9" rx="2"/><rect x="320" y="472" width="34" height="14" fill="#4A90D9" opacity="0.9" rx="2"/><text x="463" y="465" fill="#ddd" font-size="8" font-family="monospace">140.0</text><text x="357.2472668507398" y="482" fill="#ddd" font-size="8" font-family="monospace">34.2</text><rect x="510" y="455" width="34" height="14" fill="#F5A623" opacity="0.9" rx="2"/><rect x="510" y="472" width="140" height="14" fill="#4A90D9" opacity="0.9" rx="2"/><text x="547.2472668507398" y="465" fill="#ddd" font-size="8" font-family="monospace">613.8</text><text x="653" y="482" fill="#ddd" font-size="8" font-family="monospace">2509.0</text><rect x="700" y="455" width="109" height="14" fill="#F5A623" opacity="0.9" rx="2"/><rect x="700" y="472" width="140" height="14" fill="#4A90D9" opacity="0.9" rx="2"/><text x="812.095790344843" y="465" fill="#ddd" font-size="8" font-family="monospace">179.7</text><text x="843" y="482" fill="#ddd" font-size="8" font-family="monospace">230.6</text><rect x="890" y="455" width="140" height="14" fill="#F5A623" opacity="0.9" rx="2"/><rect x="890" y="472" width="15" height="14" fill="#4A90D9" opacity="0.9" rx="2"/><text x="1033" y="465" fill="#ddd" font-size="8" font-family="monospace">4674.1</text><text x="907.5279972454875" y="482" fill="#ddd" font-size="8" font-family="monospace">485.0</text><line x1="10" y1="535" x2="1090" y2="535" stroke="#333" stroke-width="1"/><text x="15" y="558" fill="#ddd" font-size="11" font-family="monospace" font-weight="bold">sz10gb_unpack</text><text x="15" y="572" fill="#888" font-size="9" font-family="monospace">10 GB download + 7z extraction</text><rect x="320" y="545" width="130" height="14" fill="#F5A623" opacity="0.9" rx="2"/><rect x="320" y="562" width="140" height="14" fill="#4A90D9" opacity="0.9" rx="2"/><text x="453.19654766884605" y="555" fill="#ddd" font-size="8" font-family="monospace">30.2</text><text x="463" y="572" fill="#ddd" font-size="8" font-family="monospace">32.5</text><rect x="510" y="545" width="140" height="14" fill="#F5A623" opacity="0.9" rx="2"/><rect x="510" y="562" width="130" height="14" fill="#4A90D9" opacity="0.9" rx="2"/><text x="653" y="555" fill="#ddd" font-size="8" font-family="monospace">2840.1</text><text x="643.196547668846" y="572" fill="#ddd" font-size="8" font-family="monospace">2641.2</text><rect x="700" y="545" width="139" height="14" fill="#F5A623" opacity="0.9" rx="2"/><rect x="700" y="562" width="140" height="14" fill="#4A90D9" opacity="0.9" rx="2"/><text x="842.2817289023865" y="555" fill="#ddd" font-size="8" font-family="monospace">185.0</text><text x="843" y="572" fill="#ddd" font-size="8" font-family="monospace">185.9</text><rect x="890" y="545" width="135" height="14" fill="#F5A623" opacity="0.9" rx="2"/><rect x="890" y="562" width="140" height="14" fill="#4A90D9" opacity="0.9" rx="2"/><text x="1027.6582124676158" y="555" fill="#ddd" font-size="8" font-family="monospace">538.0</text><text x="1033" y="572" fill="#ddd" font-size="8" font-family="monospace">559.4</text></svg>