<svg xmlns="http://www.w3.org/2000/svg" width="900" height="532" style="background:#1a1a2e">
<text x="450" y="28" fill="#ddd" font-size="16" text-anchor="middle" font-family="monospace" font-weight="bold">sz10gb_par2 — Comparison</text>
<text x="450" y="48" fill="#888" font-size="12" text-anchor="middle" font-family="monospace">10 GB download + par2 repair (5% missing)</text>
<text x="680" y="68" fill="#F5A623" font-size="11" font-family="monospace">■ SABnzbd</text>
<text x="790" y="68" fill="#4A90D9" font-size="11" font-family="monospace">■ rustnzbd</text><text x="20" y="100" fill="#888" font-size="10" font-family="monospace">Timing</text><line x1="20" y1="104" x2="880" y2="104" stroke="#333" stroke-width="1"/><text x="160" y="122" fill="#ddd" font-size="11" text-anchor="end" font-family="monospace">Total Time</text><rect x="190" y="110" width="320.0" height="16" fill="#F5A623" opacity="0.9" rx="2"/><text x="515" y="122" fill="#ddd" font-size="9" font-family="monospace">140.0 s</text><rect x="190" y="130" width="78.3" height="16" fill="#4A90D9" opacity="0.9" rx="2"/><text x="273.27946708740524" y="142" fill="#ddd" font-size="9" font-family="monospace">34.2 s</text><text x="160" y="166" fill="#ddd" font-size="11" text-anchor="end" font-family="monospace">Download</text><rect x="190" y="154" width="252.1" height="16" fill="#F5A623" opacity="0.9" rx="2"/><text x="447.1212121212121" y="166" fill="#ddd" font-size="9" font-family="monospace">26.0 s</text><rect x="190" y="174" width="320.0" height="16" fill="#4A90D9" opacity="0.9" rx="2"/><text x="515" y="186" fill="#ddd" font-size="9" font-family="monospace">33.0 s</text><text x="160" y="210" fill="#ddd" font-size="11" text-anchor="end" font-family="monospace">Par2</text><rect x="190" y="198" width="320.0" height="16" fill="#F5A623" opacity="0.9" rx="2"/><text x="515" y="210" fill="#ddd" font-size="9" font-family="monospace">88.0 s</text><rect x="190" y="218" width="0.0" height="16" fill="#4A90D9" opacity="0.9" rx="2"/><text x="195" y="230" fill="#ddd" font-size="9" font-family="monospace">0.0 s</text><text x="20" y="262" fill="#888" font-size="10" font-family="monospace">Speed</text><line x1="20" y1="266" x2="880" y2="266" stroke="#333" stroke-width="1"/><text x="160" y="284" fill="#ddd" font-size="11" text-anchor="end" font-family="monospace">Avg Speed</text><rect x="190" y="272" width="78.3" height="16" fill="#F5A623" opacity="0.9" rx="2"/><text x="273.27946708740524" y="284" fill="#ddd" font-size="9" font-family="monospace">613.8 Mbps</text><rect x="190" y="292" width="320.0" height="16" fill="#4A90D9" opacity="0.9" rx="2"/><text x="515" y="304" fill="#ddd" font-size="9" font-family="monospace">2509.0 Mbps</text><text x="160" y="328" fill="#ddd" font-size="11" text-anchor="end" font-family="monospace">Peak Speed</text><rect x="190" y="316" width="320.0" height="16" fill="#F5A623" opacity="0.9" rx="2"/><text x="515" y="328" fill="#ddd" font-size="9" font-family="monospace">6614.7 Mbps</text><rect x="190" y="336" width="302.7" height="16" fill="#4A90D9" opacity="0.9" rx="2"/><text x="497.744048368976" y="348" fill="#ddd" font-size="9" font-family="monospace">6258.0 Mbps</text><text x="20" y="380" fill="#888" font-size="10" font-family="monospace">Resources</text><line x1="20" y1="384" x2="880" y2="384" stroke="#333" stroke-width="1"/><text x="160" y="402" fill="#ddd" font-size="11" text-anchor="end" font-family="monospace">CPU Avg</text><rect x="190" y="390" width="193.5" height="16" fill="#F5A623" opacity="0.9" rx="2"/><text x="388.46760316159697" y="402" fill="#ddd" font-size="9" font-family="monospace">102.4 %</text><rect x="190" y="410" width="320.0" height="16" fill="#4A90D9" opacity="0.9" rx="2"/><text x="515" y="422" fill="#ddd" font-size="9" font-family="monospace">169.3 %</text><text x="160" y="446" fill="#ddd" font-size="11" text-anchor="end" font-family="monospace">CPU Peak</text><rect x="190" y="434" width="249.4" height="16" fill="#F5A623" opacity="0.9" rx="2"/><text x="444.3618065024981" y="446" fill="#ddd" font-size="9" font-family="monospace">179.7 %</text><rect x="190" y="454" width="320.0" height="16" fill="#4A90D9" opacity="0.9" rx="2"/><text x="515" y="466" fill="#ddd" font-size="9" font-family="monospace">230.6 %</text><text x="160" y="490" fill="#ddd" font-size="11" text-anchor="end" font-family="monospace">Mem Peak</text><rect x="190" y="478" width="320.0" height="16" fill="#F5A623" opacity="0.9" rx="2"/><text x="515" y="490" fill="#ddd" font-size="9" font-family="monospace">4674.1 MB</text><rect x="190" y="498" width="33.2" height="16" fill="#4A90D9" opacity="0.9" rx="2"/><text x="228.20685084682873" y="510" fill="#ddd" font-size="9" font-family="monospace">485.0 MB</text></svg>