<svg xmlns="http://www.w3.org/2000/svg" width="850" height="880" style="background:#1a1a2e">
<text x="425" y="28" fill="#ddd" font-size="16" text-anchor="middle" font-family="monospace" font-weight="bold">sz5gb_unpack — Time Series</text>
<text x="425" y="48" fill="#888" font-size="12" text-anchor="middle" font-family="monospace">5 GB download + 7z extraction</text>
<text x="630" y="66" fill="#F5A623" font-size="11" font-family="monospace">— SABnzbd</text>
<text x="740" y="66" fill="#4A90D9" font-size="11" font-family="monospace">— rustnzbd</text><rect x="70" y="75" width="750" height="160" fill="#16213e" rx="4"/><text x="445" y="67" fill="#ddd" font-size="13" text-anchor="middle" font-family="monospace" font-weight="bold">CPU (%)</text><line x1="70" y1="235" x2="820" y2="235" stroke="#333" stroke-width="0.5"/><text x="66" y="238" fill="#888" font-size="8" text-anchor="end" font-family="monospace">0</text><line x1="70" y1="198" x2="820" y2="198" stroke="#333" stroke-width="0.5"/><text x="66" y="200.5" fill="#888" font-size="8" text-anchor="end" font-family="monospace">47</text><line x1="70" y1="160" x2="820" y2="160" stroke="#333" stroke-width="0.5"/><text x="66" y="163" fill="#888" font-size="8" text-anchor="end" font-family="monospace">95</text><line x1="70" y1="122" x2="820" y2="122" stroke="#333" stroke-width="0.5"/><text x="66" y="125.5" fill="#888" font-size="8" text-anchor="end" font-family="monospace">142</text><line x1="70" y1="85" x2="820" y2="85" stroke="#333" stroke-width="0.5"/><text x="66" y="88" fill="#888" font-size="8" text-anchor="end" font-family="monospace">189</text><polyline points="70.0,116.3 116.9,96.6 163.8,92.5 210.7,92.8 257.6,97.1 304.4,106.1 351.3,141.3 398.2,155.3 445.0,155.1 491.9,155.5 538.8,155.6 585.7,155.7 632.5,155.5 679.4,155.3 726.3,155.2 773.2,169.4" fill="none" stroke="#F5A623" stroke-width="2" opacity="0.9"/><polyline points="70.0,99.0 116.9,123.6 163.8,117.5 210.7,128.5 257.5,119.9 304.4,124.4 351.3,168.2 398.2,127.4 445.0,124.5 491.9,138.0 538.8,108.2 585.7,111.9 632.6,85.0 679.4,100.5 726.3,97.0 773.2,120.3 820.0,234.0" fill="none" stroke="#4A90D9" stroke-width="2" opacity="0.9"/><rect x="70" y="275" width="750" height="160" fill="#16213e" rx="4"/><text x="445" y="267" fill="#ddd" font-size="13" text-anchor="middle" font-family="monospace" font-weight="bold">Memory (MB)</text><line x1="70" y1="435" x2="820" y2="435" stroke="#333" stroke-width="0.5"/><text x="66" y="438" fill="#888" font-size="8" text-anchor="end" font-family="monospace">0</text><line x1="70" y1="398" x2="820" y2="398" stroke="#333" stroke-width="0.5"/><text x="66" y="400.5" fill="#888" font-size="8" text-anchor="end" font-family="monospace">81</text><line x1="70" y1="360" x2="820" y2="360" stroke="#333" stroke-width="0.5"/><text x="66" y="363" fill="#888" font-size="8" text-anchor="end" font-family="monospace">162</text><line x1="70" y1="322" x2="820" y2="322" stroke="#333" stroke-width="0.5"/><text x="66" y="325.5" fill="#888" font-size="8" text-anchor="end" font-family="monospace">244</text><line x1="70" y1="285" x2="820" y2="285" stroke="#333" stroke-width="0.5"/><text x="66" y="288" fill="#888" font-size="8" text-anchor="end" font-family="monospace">325</text><polyline points="70.0,379.0 116.9,354.8 163.8,355.4 210.7,325.4 257.6,321.2 304.4,298.5 351.3,329.9 398.2,322.8 445.0,315.2 491.9,306.2 538.8,300.1 585.7,294.9 632.5,289.0 679.4,285.0 726.3,291.0 773.2,336.1" fill="none" stroke="#F5A623" stroke-width="2" opacity="0.9"/><polyline points="70.0,389.0 116.9,381.5 163.8,376.9 210.7,365.5 257.5,360.9 304.4,355.3 351.3,349.2 398.2,344.7 445.0,338.9 491.9,333.9 538.8,325.8 585.7,322.4 632.6,319.9 679.4,312.4 726.3,306.5 773.2,303.1 820.0,304.6" fill="none" stroke="#4A90D9" stroke-width="2" opacity="0.9"/><rect x="70" y="475" width="750" height="160" fill="#16213e" rx="4"/><text x="445" y="467" fill="#ddd" font-size="13" text-anchor="middle" font-family="monospace" font-weight="bold">Net RX (Mbps)</text><line x1="70" y1="635" x2="820" y2="635" stroke="#333" stroke-width="0.5"/><text x="66" y="638" fill="#888" font-size="8" text-anchor="end" font-family="monospace">0</text><line x1="70" y1="598" x2="820" y2="598" stroke="#333" stroke-width="0.5"/><text x="66" y="600.5" fill="#888" font-size="8" text-anchor="end" font-family="monospace">2083</text><line x1="70" y1="560" x2="820" y2="560" stroke="#333" stroke-width="0.5"/><text x="66" y="563" fill="#888" font-size="8" text-anchor="end" font-family="monospace">4166</text><line x1="70" y1="522" x2="820" y2="522" stroke="#333" stroke-width="0.5"/><text x="66" y="525.5" fill="#888" font-size="8" text-anchor="end" font-family="monospace">6249</text><line x1="70" y1="485" x2="820" y2="485" stroke="#333" stroke-width="0.5"/><text x="66" y="488" fill="#888" font-size="8" text-anchor="end" font-family="monospace">8332</text><polyline points="70.0,529.9 116.9,496.5 163.8,494.2 210.7,485.0 257.6,504.7 304.4,520.3 351.3,617.4 398.2,635.0 445.0,635.0 491.9,635.0 538.8,635.0 585.7,635.0 632.5,635.0 679.4,635.0 726.3,635.0 773.2,635.0" fill="none" stroke="#F5A623" stroke-width="2" opacity="0.9"/><polyline points="70.0,560.3 116.9,566.1 163.8,560.0 210.7,569.5 257.5,563.7 304.4,565.3 351.3,595.5 398.2,566.4 445.0,562.9 491.9,573.8 538.8,570.8 585.7,568.2 632.6,569.8 679.4,570.3 726.3,574.0 773.2,587.8 820.0,635.0" fill="none" stroke="#4A90D9" stroke-width="2" opacity="0.9"/><rect x="70" y="675" width="750" height="160" fill="#16213e" rx="4"/><text x="445" y="667" fill="#ddd" font-size="13" text-anchor="middle" font-family="monospace" font-weight="bold">Disk Write (MB/s)</text><line x1="70" y1="835" x2="820" y2="835" stroke="#333" stroke-width="0.5"/><text x="66" y="838" fill="#888" font-size="8" text-anchor="end" font-family="monospace">0</text><line x1="70" y1="798" x2="820" y2="798" stroke="#333" stroke-width="0.5"/><text x="66" y="800.5" fill="#888" font-size="8" text-anchor="end" font-family="monospace">1023</text><line x1="70" y1="760" x2="820" y2="760" stroke="#333" stroke-width="0.5"/><text x="66" y="763" fill="#888" font-size="8" text-anchor="end" font-family="monospace">2046</text><line x1="70" y1="722" x2="820" y2="722" stroke="#333" stroke-width="0.5"/><text x="66" y="725.5" fill="#888" font-size="8" text-anchor="end" font-family="monospace">3068</text><line x1="70" y1="685" x2="820" y2="685" stroke="#333" stroke-width="0.5"/><text x="66" y="688" fill="#888" font-size="8" text-anchor="end" font-family="monospace">4091</text><polyline points="70.0,835.0 116.9,835.0 163.8,835.0 210.7,835.0 257.6,833.8 304.4,799.5 351.3,818.6 398.2,820.1 445.0,813.3 491.9,805.8 538.8,813.1 585.7,813.1 632.5,806.0 679.4,820.1 726.3,820.4 773.2,835.0" fill="none" stroke="#F5A623" stroke-width="2" opacity="0.9"/><polyline points="70.0,835.0 116.9,835.0 163.8,835.0 210.7,835.0 257.5,835.0 304.4,835.0 351.3,835.0 398.2,835.0 445.0,835.0 491.9,816.7 538.8,820.4 585.7,835.0 632.6,811.2 679.4,823.4 726.3,824.0 773.2,685.0 820.0,834.9" fill="none" stroke="#4A90D9" stroke-width="2" opacity="0.9"/></svg>