<svg xmlns="http://www.w3.org/2000/svg" width="900" height="532" style="background:#1a1a2e">
<text x="450" y="28" fill="#ddd" font-size="16" text-anchor="middle" font-family="monospace" font-weight="bold">sz10gb_par2 — Comparison</text>
<text x="450" y="48" fill="#888" font-size="12" text-anchor="middle" font-family="monospace">10 GB download + par2 repair (5% missing)</text>
<text x="680" y="68" fill="#F5A623" font-size="11" font-family="monospace">■ SABnzbd</text>
<text x="790" y="68" fill="#4A90D9" font-size="11" font-family="monospace">■ rustnzbd</text><text x="20" y="100" fill="#888" font-size="10" font-family="monospace">Timing</text><line x1="20" y1="104" x2="880" y2="104" stroke="#333" stroke-width="1"/><text x="160" y="122" fill="#ddd" font-size="11" text-anchor="end" font-family="monospace">Total Time</text><rect x="190" y="110" width="320.0" height="16" fill="#F5A623" opacity="0.9" rx="2"/><text x="515" y="122" fill="#ddd" font-size="9" font-family="monospace">141.0 s</text><rect x="190" y="130" width="72.2" height="16" fill="#4A90D9" opacity="0.9" rx="2"/><text x="267.2048779864042" y="142" fill="#ddd" font-size="9" font-family="monospace">31.8 s</text><text x="160" y="166" fill="#ddd" font-size="11" text-anchor="end" font-family="monospace">Download</text><rect x="190" y="154" width="289.0" height="16" fill="#F5A623" opacity="0.9" rx="2"/><text x="484.0322580645161" y="166" fill="#ddd" font-size="9" font-family="monospace">28.0 s</text><rect x="190" y="174" width="320.0" height="16" fill="#4A90D9" opacity="0.9" rx="2"/><text x="515" y="186" fill="#ddd" font-size="9" font-family="monospace">31.0 s</text><text x="160" y="210" fill="#ddd" font-size="11" text-anchor="end" font-family="monospace">Par2</text><rect x="190" y="198" width="320.0" height="16" fill="#F5A623" opacity="0.9" rx="2"/><text x="515" y="210" fill="#ddd" font-size="9" font-family="monospace">85.0 s</text><rect x="190" y="218" width="0.0" height="16" fill="#4A90D9" opacity="0.9" rx="2"/><text x="195" y="230" fill="#ddd" font-size="9" font-family="monospace">0.0 s</text><text x="20" y="262" fill="#888" font-size="10" font-family="monospace">Speed</text><line x1="20" y1="266" x2="880" y2="266" stroke="#333" stroke-width="1"/><text x="160" y="284" fill="#ddd" font-size="11" text-anchor="end" font-family="monospace">Avg Speed</text><rect x="190" y="272" width="239.0" height="16" fill="#F5A623" opacity="0.9" rx="2"/><text x="434.02549285877285" y="284" fill="#ddd" font-size="9" font-family="monospace">2850.9 Mbps</text><rect x="190" y="292" width="320.0" height="16" fill="#4A90D9" opacity="0.9" rx="2"/><text x="515" y="304" fill="#ddd" font-size="9" font-family="monospace">3816.8 Mbps</text><text x="160" y="328" fill="#ddd" font-size="11" text-anchor="end" font-family="monospace">Peak Speed</text><rect x="190" y="316" width="140.6" height="16" fill="#F5A623" opacity="0.9" rx="2"/><text x="335.602004418752" y="328" fill="#ddd" font-size="9" font-family="monospace">5436.0 Mbps</text><rect x="190" y="336" width="320.0" height="16" fill="#4A90D9" opacity="0.9" rx="2"/><text x="515" y="348" fill="#ddd" font-size="9" font-family="monospace">12372.0 Mbps</text><text x="20" y="380" fill="#888" font-size="10" font-family="monospace">Resources</text><line x1="20" y1="384" x2="880" y2="384" stroke="#333" stroke-width="1"/><text x="160" y="402" fill="#ddd" font-size="11" text-anchor="end" font-family="monospace">CPU Avg</text><rect x="190" y="390" width="158.1" height="16" fill="#F5A623" opacity="0.9" rx="2"/><text x="353.0612127933368" y="402" fill="#ddd" font-size="9" font-family="monospace">100.1 %</text><rect x="190" y="410" width="320.0" height="16" fill="#4A90D9" opacity="0.9" rx="2"/><text x="515" y="422" fill="#ddd" font-size="9" font-family="monospace">202.7 %</text><text x="160" y="446" fill="#ddd" font-size="11" text-anchor="end" font-family="monospace">CPU Peak</text><rect x="190" y="434" width="207.1" height="16" fill="#F5A623" opacity="0.9" rx="2"/><text x="402.07160075861407" y="446" fill="#ddd" font-size="9" font-family="monospace">161.6 %</text><rect x="190" y="454" width="320.0" height="16" fill="#4A90D9" opacity="0.9" rx="2"/><text x="515" y="466" fill="#ddd" font-size="9" font-family="monospace">249.8 %</text><text x="160" y="490" fill="#ddd" font-size="11" text-anchor="end" font-family="monospace">Mem Peak</text><rect x="190" y="478" width="320.0" height="16" fill="#F5A623" opacity="0.9" rx="2"/><text x="515" y="490" fill="#ddd" font-size="9" font-family="monospace">1959.6 MB</text><rect x="190" y="498" width="71.4" height="16" fill="#4A90D9" opacity="0.9" rx="2"/><text x="266.39738304641463" y="510" fill="#ddd" font-size="9" font-family="monospace">437.2 MB</text></svg>