<svg xmlns="http://www.w3.org/2000/svg" width="850" height="880" style="background:#1a1a2e">
<text x="425" y="28" fill="#ddd" font-size="16" text-anchor="middle" font-family="monospace" font-weight="bold">sz5gb_par2 — Time Series</text>
<text x="425" y="48" fill="#888" font-size="12" text-anchor="middle" font-family="monospace">5 GB download + par2 repair (5% missing)</text>
<text x="630" y="66" fill="#F5A623" font-size="11" font-family="monospace">— SABnzbd</text>
<text x="740" y="66" fill="#4A90D9" font-size="11" font-family="monospace">— rustnzbd</text><rect x="70" y="75" width="750" height="160" fill="#16213e" rx="4"/><text x="445" y="67" fill="#ddd" font-size="13" text-anchor="middle" font-family="monospace" font-weight="bold">CPU (%)</text><line x1="70" y1="235" x2="820" y2="235" stroke="#333" stroke-width="0.5"/><text x="66" y="238" fill="#888" font-size="8" text-anchor="end" font-family="monospace">0</text><line x1="70" y1="198" x2="820" y2="198" stroke="#333" stroke-width="0.5"/><text x="66" y="200.5" fill="#888" font-size="8" text-anchor="end" font-family="monospace">64</text><line x1="70" y1="160" x2="820" y2="160" stroke="#333" stroke-width="0.5"/><text x="66" y="163" fill="#888" font-size="8" text-anchor="end" font-family="monospace">127</text><line x1="70" y1="122" x2="820" y2="122" stroke="#333" stroke-width="0.5"/><text x="66" y="125.5" fill="#888" font-size="8" text-anchor="end" font-family="monospace">191</text><line x1="70" y1="85" x2="820" y2="85" stroke="#333" stroke-width="0.5"/><text x="66" y="88" fill="#888" font-size="8" text-anchor="end" font-family="monospace">255</text><polyline points="70.0,155.4 84.7,169.9 99.4,176.2 114.1,176.9 128.8,177.0 143.5,176.7 158.2,177.3 172.9,176.8 187.6,176.7 202.4,176.4 217.1,177.5 231.8,176.1 246.5,176.2 261.2,176.2 275.9,176.3 290.6,176.6 305.3,176.5 320.1,176.5 334.8,176.1 349.5,176.2 364.2,176.1 378.9,175.8 393.6,176.6 408.3,176.0 423.0,176.4 437.7,175.2 452.4,175.5 467.1,175.5 481.8,175.7 496.5,175.8 511.2,175.9 525.9,175.7 540.6,175.7 555.3,176.1 570.0,175.9 584.7,176.2 599.4,175.7 614.1,175.8 628.8,175.7 643.5,175.7 658.2,175.7 673.0,176.1 687.7,175.6 702.4,176.0 717.1,175.7 731.8,175.8 746.5,176.1 761.2,175.9 775.9,175.7 790.6,175.5 805.3,175.8 820.0,219.0" fill="none" stroke="#F5A623" stroke-width="2" opacity="0.9"/><polyline points="70.0,85.0 84.9,103.7 99.7,140.8 114.3,97.7 129.0,105.2 143.8,105.8 158.5,102.4 173.2,185.6 187.9,93.3 202.6,108.1 217.3,117.1 232.0,111.8 246.7,115.7 261.4,138.6" fill="none" stroke="#4A90D9" stroke-width="2" opacity="0.9"/><rect x="70" y="275" width="750" height="160" fill="#16213e" rx="4"/><text x="445" y="267" fill="#ddd" font-size="13" text-anchor="middle" font-family="monospace" font-weight="bold">Memory (MB)</text><line x1="70" y1="435" x2="820" y2="435" stroke="#333" stroke-width="0.5"/><text x="66" y="438" fill="#888" font-size="8" text-anchor="end" font-family="monospace">0</text><line x1="70" y1="398" x2="820" y2="398" stroke="#333" stroke-width="0.5"/><text x="66" y="400.5" fill="#888" font-size="8" text-anchor="end" font-family="monospace">316</text><line x1="70" y1="360" x2="820" y2="360" stroke="#333" stroke-width="0.5"/><text x="66" y="363" fill="#888" font-size="8" text-anchor="end" font-family="monospace">633</text><line x1="70" y1="322" x2="820" y2="322" stroke="#333" stroke-width="0.5"/><text x="66" y="325.5" fill="#888" font-size="8" text-anchor="end" font-family="monospace">949</text><line x1="70" y1="285" x2="820" y2="285" stroke="#333" stroke-width="0.5"/><text x="66" y="288" fill="#888" font-size="8" text-anchor="end" font-family="monospace">1266</text><polyline points="70.0,410.2 84.7,341.9 99.4,298.9 114.1,297.9 128.8,296.3 143.5,295.6 158.2,293.6 172.9,293.1 187.6,292.3 202.4,291.5 217.1,289.4 231.8,289.0 246.5,288.2 261.2,287.2 275.9,286.8 290.6,286.1 305.3,285.6 320.1,285.0 334.8,403.0 349.5,405.9 364.2,406.0 378.9,406.3 393.6,406.5 408.3,406.6 423.0,406.8 437.7,384.2 452.4,359.7 467.1,359.7 481.8,359.7 496.5,359.6 511.2,359.6 525.9,359.6 540.6,359.6 555.3,359.6 570.0,359.6 584.7,359.9 599.4,359.9 614.1,359.9 628.8,359.9 643.5,359.9 658.2,359.9 673.0,359.9 687.7,359.9 702.4,359.9 717.1,359.9 731.8,359.9 746.5,359.9 761.2,359.9 775.9,359.9 790.6,359.9 805.3,360.0 820.0,362.7" fill="none" stroke="#F5A623" stroke-width="2" opacity="0.9"/><polyline points="70.0,425.5 84.9,423.3 99.7,422.7 114.3,421.0 129.0,419.4 143.8,417.9 158.5,416.6 173.2,416.1 187.9,414.0 202.6,412.3 217.3,410.5 232.0,409.3 246.7,408.5 261.4,408.7" fill="none" stroke="#4A90D9" stroke-width="2" opacity="0.9"/><rect x="70" y="475" width="750" height="160" fill="#16213e" rx="4"/><text x="445" y="467" fill="#ddd" font-size="13" text-anchor="middle" font-family="monospace" font-weight="bold">Net RX (Mbps)</text><line x1="70" y1="635" x2="820" y2="635" stroke="#333" stroke-width="0.5"/><text x="66" y="638" fill="#888" font-size="8" text-anchor="end" font-family="monospace">0</text><line x1="70" y1="598" x2="820" y2="598" stroke="#333" stroke-width="0.5"/><text x="66" y="600.5" fill="#888" font-size="8" text-anchor="end" font-family="monospace">1424</text><line x1="70" y1="560" x2="820" y2="560" stroke="#333" stroke-width="0.5"/><text x="66" y="563" fill="#888" font-size="8" text-anchor="end" font-family="monospace">2848</text><line x1="70" y1="522" x2="820" y2="522" stroke="#333" stroke-width="0.5"/><text x="66" y="525.5" fill="#888" font-size="8" text-anchor="end" font-family="monospace">4272</text><line x1="70" y1="485" x2="820" y2="485" stroke="#333" stroke-width="0.5"/><text x="66" y="488" fill="#888" font-size="8" text-anchor="end" font-family="monospace">5696</text><polyline points="70.0,511.0 84.7,485.0 99.4,520.4 114.1,568.0 128.8,565.6 143.5,568.4 158.2,564.4 172.9,566.0 187.6,579.1 202.4,578.9 217.1,583.4 231.8,578.8 246.5,591.7 261.2,586.2 275.9,587.9 290.6,586.2 305.3,588.8 320.1,596.5 334.8,635.0 349.5,635.0 364.2,635.0 378.9,635.0 393.6,635.0 408.3,635.0 423.0,635.0 437.7,635.0 452.4,635.0 467.1,635.0 481.8,635.0 496.5,635.0 511.2,635.0 525.9,635.0 540.6,635.0 555.3,635.0 570.0,635.0 584.7,635.0 599.4,635.0 614.1,635.0 628.8,635.0 643.5,635.0 658.2,635.0 673.0,635.0 687.7,635.0 702.4,635.0 717.1,635.0 731.8,635.0 746.5,635.0 761.2,635.0 775.9,635.0 790.6,635.0 805.3,635.0 820.0,635.0" fill="none" stroke="#F5A623" stroke-width="2" opacity="0.9"/><polyline points="70.0,508.7 84.9,534.7 99.7,565.0 114.3,528.1 129.0,543.9 143.8,529.1 158.5,537.3 173.2,599.8 187.9,531.3 202.6,538.9 217.3,568.7 232.0,555.0 246.7,566.1 261.4,563.1" fill="none" stroke="#4A90D9" stroke-width="2" opacity="0.9"/><rect x="70" y="675" width="750" height="160" fill="#16213e" rx="4"/><text x="445" y="667" fill="#ddd" font-size="13" text-anchor="middle" font-family="monospace" font-weight="bold">Disk Write (MB/s)</text><line x1="70" y1="835" x2="820" y2="835" stroke="#333" stroke-width="0.5"/><text x="66" y="838" fill="#888" font-size="8" text-anchor="end" font-family="monospace">0</text><line x1="70" y1="798" x2="820" y2="798" stroke="#333" stroke-width="0.5"/><text x="66" y="800.5" fill="#888" font-size="8" text-anchor="end" font-family="monospace">659</text><line x1="70" y1="760" x2="820" y2="760" stroke="#333" stroke-width="0.5"/><text x="66" y="763" fill="#888" font-size="8" text-anchor="end" font-family="monospace">1319</text><line x1="70" y1="722" x2="820" y2="722" stroke="#333" stroke-width="0.5"/><text x="66" y="725.5" fill="#888" font-size="8" text-anchor="end" font-family="monospace">1978</text><line x1="70" y1="685" x2="820" y2="685" stroke="#333" stroke-width="0.5"/><text x="66" y="688" fill="#888" font-size="8" text-anchor="end" font-family="monospace">2637</text><polyline points="70.0,835.0 84.7,835.0 99.4,826.4 114.1,818.2 128.8,817.7 143.5,818.3 158.2,817.4 172.9,817.6 187.6,821.0 202.4,821.0 217.1,822.0 231.8,812.8 246.5,802.8 261.2,822.7 275.9,823.2 290.6,822.8 305.3,823.4 320.1,825.3 334.8,834.3 349.5,835.0 364.2,835.0 378.9,835.0 393.6,835.0 408.3,829.3 423.0,804.9 437.7,819.7 452.4,835.0 467.1,835.0 481.8,835.0 496.5,835.0 511.2,835.0 525.9,835.0 540.6,835.0 555.3,835.0 570.0,835.0 584.7,835.0 599.4,835.0 614.1,835.0 628.8,835.0 643.5,835.0 658.2,685.0 673.0,760.6 687.7,835.0 702.4,835.0 717.1,835.0 731.8,835.0 746.5,835.0 761.2,835.0 775.9,835.0 790.6,835.0 805.3,835.0 820.0,835.0" fill="none" stroke="#F5A623" stroke-width="2" opacity="0.9"/><polyline points="70.0,835.0 84.9,835.0 99.7,834.9 114.3,835.0 129.0,835.0 143.8,835.0 158.5,835.0 173.2,835.0 187.9,835.0 202.6,801.0 217.3,835.0 232.0,812.3 246.7,819.0 261.4,817.9" fill="none" stroke="#4A90D9" stroke-width="2" opacity="0.9"/></svg>