<svg xmlns="http://www.w3.org/2000/svg" width="850" height="880" style="background:#1a1a2e">
<text x="425" y="28" fill="#ddd" font-size="16" text-anchor="middle" font-family="monospace" font-weight="bold">sz5gb_unpack — Time Series</text>
<text x="425" y="48" fill="#888" font-size="12" text-anchor="middle" font-family="monospace">5 GB download + 7z extraction</text>
<text x="630" y="66" fill="#F5A623" font-size="11" font-family="monospace">— SABnzbd</text>
<text x="740" y="66" fill="#4A90D9" font-size="11" font-family="monospace">— rustnzbd</text><rect x="70" y="75" width="750" height="160" fill="#16213e" rx="4"/><text x="445" y="67" fill="#ddd" font-size="13" text-anchor="middle" font-family="monospace" font-weight="bold">CPU (%)</text><line x1="70" y1="235" x2="820" y2="235" stroke="#333" stroke-width="0.5"/><text x="66" y="238" fill="#888" font-size="8" text-anchor="end" font-family="monospace">0</text><line x1="70" y1="198" x2="820" y2="198" stroke="#333" stroke-width="0.5"/><text x="66" y="200.5" fill="#888" font-size="8" text-anchor="end" font-family="monospace">54</text><line x1="70" y1="160" x2="820" y2="160" stroke="#333" stroke-width="0.5"/><text x="66" y="163" fill="#888" font-size="8" text-anchor="end" font-family="monospace">108</text><line x1="70" y1="122" x2="820" y2="122" stroke="#333" stroke-width="0.5"/><text x="66" y="125.5" fill="#888" font-size="8" text-anchor="end" font-family="monospace">163</text><line x1="70" y1="85" x2="820" y2="85" stroke="#333" stroke-width="0.5"/><text x="66" y="88" fill="#888" font-size="8" text-anchor="end" font-family="monospace">217</text><polyline points="70.0,136.8 105.7,112.1 141.4,111.2 177.2,110.6 212.9,123.3 248.6,122.9 284.3,164.3 320.0,128.5 355.7,234.5 391.4,219.6 427.1,168.4 462.8,169.2 498.5,171.5 534.3,165.3 570.0,165.3 605.7,165.4 641.4,165.6 677.1,165.9 712.9,165.4 748.6,165.5 784.3,164.8 820.0,187.2" fill="none" stroke="#F5A623" stroke-width="2" opacity="0.9"/><polyline points="70.0,112.1 105.7,137.0 141.4,148.8 177.2,136.6 212.9,127.1 248.6,134.7 284.3,130.0 320.0,120.9 355.7,125.0 391.4,85.0 427.5,105.2 463.2,85.3" fill="none" stroke="#4A90D9" stroke-width="2" opacity="0.9"/><rect x="70" y="275" width="750" height="160" fill="#16213e" rx="4"/><text x="445" y="267" fill="#ddd" font-size="13" text-anchor="middle" font-family="monospace" font-weight="bold">Memory (MB)</text><line x1="70" y1="435" x2="820" y2="435" stroke="#333" stroke-width="0.5"/><text x="66" y="438" fill="#888" font-size="8" text-anchor="end" font-family="monospace">0</text><line x1="70" y1="398" x2="820" y2="398" stroke="#333" stroke-width="0.5"/><text x="66" y="400.5" fill="#888" font-size="8" text-anchor="end" font-family="monospace">281</text><line x1="70" y1="360" x2="820" y2="360" stroke="#333" stroke-width="0.5"/><text x="66" y="363" fill="#888" font-size="8" text-anchor="end" font-family="monospace">562</text><line x1="70" y1="322" x2="820" y2="322" stroke="#333" stroke-width="0.5"/><text x="66" y="325.5" fill="#888" font-size="8" text-anchor="end" font-family="monospace">843</text><line x1="70" y1="285" x2="820" y2="285" stroke="#333" stroke-width="0.5"/><text x="66" y="288" fill="#888" font-size="8" text-anchor="end" font-family="monospace">1124</text><polyline points="70.0,413.9 105.7,413.0 141.4,412.9 177.2,407.5 212.9,406.0 248.6,400.4 284.3,360.1 320.0,404.9 355.7,404.9 391.4,397.9 427.1,363.3 462.8,334.5 498.5,300.0 534.3,290.8 570.0,289.9 605.7,288.5 641.4,287.3 677.1,286.5 712.9,285.0 748.6,285.3 784.3,373.0 820.0,405.8" fill="none" stroke="#F5A623" stroke-width="2" opacity="0.9"/><polyline points="70.0,423.1 105.7,420.4 141.4,418.7 177.2,416.8 212.9,415.0 248.6,412.8 284.3,411.5 320.0,409.7 355.7,408.1 391.4,406.2 427.5,404.3 463.2,404.0" fill="none" stroke="#4A90D9" stroke-width="2" opacity="0.9"/><rect x="70" y="475" width="750" height="160" fill="#16213e" rx="4"/><text x="445" y="467" fill="#ddd" font-size="13" text-anchor="middle" font-family="monospace" font-weight="bold">Net RX (Mbps)</text><line x1="70" y1="635" x2="820" y2="635" stroke="#333" stroke-width="0.5"/><text x="66" y="638" fill="#888" font-size="8" text-anchor="end" font-family="monospace">0</text><line x1="70" y1="598" x2="820" y2="598" stroke="#333" stroke-width="0.5"/><text x="66" y="600.5" fill="#888" font-size="8" text-anchor="end" font-family="monospace">2041</text><line x1="70" y1="560" x2="820" y2="560" stroke="#333" stroke-width="0.5"/><text x="66" y="563" fill="#888" font-size="8" text-anchor="end" font-family="monospace">4082</text><line x1="70" y1="522" x2="820" y2="522" stroke="#333" stroke-width="0.5"/><text x="66" y="525.5" fill="#888" font-size="8" text-anchor="end" font-family="monospace">6123</text><line x1="70" y1="485" x2="820" y2="485" stroke="#333" stroke-width="0.5"/><text x="66" y="488" fill="#888" font-size="8" text-anchor="end" font-family="monospace">8164</text><polyline points="70.0,538.7 105.7,525.7 141.4,500.9 177.2,485.0 212.9,526.1 248.6,548.4 284.3,564.9 320.0,576.9 355.7,635.0 391.4,635.0 427.1,635.0 462.8,635.0 498.5,635.0 534.3,635.0 570.0,635.0 605.7,635.0 641.4,635.0 677.1,635.0 712.9,635.0 748.6,635.0 784.3,635.0 820.0,635.0" fill="none" stroke="#F5A623" stroke-width="2" opacity="0.9"/><polyline points="70.0,551.1 105.7,560.4 141.4,570.9 177.2,558.9 212.9,556.4 248.6,557.0 284.3,561.9 320.0,561.7 355.7,565.3 391.4,559.2 427.5,566.4 463.2,580.7" fill="none" stroke="#4A90D9" stroke-width="2" opacity="0.9"/><rect x="70" y="675" width="750" height="160" fill="#16213e" rx="4"/><text x="445" y="667" fill="#ddd" font-size="13" text-anchor="middle" font-family="monospace" font-weight="bold">Disk Write (MB/s)</text><line x1="70" y1="835" x2="820" y2="835" stroke="#333" stroke-width="0.5"/><text x="66" y="838" fill="#888" font-size="8" text-anchor="end" font-family="monospace">0</text><line x1="70" y1="798" x2="820" y2="798" stroke="#333" stroke-width="0.5"/><text x="66" y="800.5" fill="#888" font-size="8" text-anchor="end" font-family="monospace">778</text><line x1="70" y1="760" x2="820" y2="760" stroke="#333" stroke-width="0.5"/><text x="66" y="763" fill="#888" font-size="8" text-anchor="end" font-family="monospace">1557</text><line x1="70" y1="722" x2="820" y2="722" stroke="#333" stroke-width="0.5"/><text x="66" y="725.5" fill="#888" font-size="8" text-anchor="end" font-family="monospace">2335</text><line x1="70" y1="685" x2="820" y2="685" stroke="#333" stroke-width="0.5"/><text x="66" y="688" fill="#888" font-size="8" text-anchor="end" font-family="monospace">3114</text><polyline points="70.0,835.0 105.7,835.0 141.4,835.0 177.2,835.0 212.9,835.0 248.6,764.6 284.3,835.0 320.0,835.0 355.7,835.0 391.4,835.0 427.1,835.0 462.8,685.0 498.5,809.4 534.3,835.0 570.0,835.0 605.7,835.0 641.4,835.0 677.1,835.0 712.9,825.4 748.6,811.0 784.3,815.8 820.0,835.0" fill="none" stroke="#F5A623" stroke-width="2" opacity="0.9"/><polyline points="70.0,835.0 105.7,835.0 141.4,834.9 177.2,835.0 212.9,835.0 248.6,835.0 284.3,835.0 320.0,835.0 355.7,810.9 391.4,820.6 427.5,816.0 463.2,717.8" fill="none" stroke="#4A90D9" stroke-width="2" opacity="0.9"/></svg>