<svg xmlns="http://www.w3.org/2000/svg" width="1100" height="650" style="background:#1a1a2e">
<text x="550" y="28" fill="#ddd" font-size="18" text-anchor="middle" font-family="monospace" font-weight="bold">Benchmark Dashboard: SABnzbd vs rustnzbd</text>
<text x="60" y="55" fill="#F5A623" font-size="12" font-family="monospace">■ SABnzbd</text>
<text x="180" y="55" fill="#4A90D9" font-size="12" font-family="monospace">■ rustnzbd</text><text x="320" y="75" fill="#888" font-size="10" font-family="monospace">Total Time (s)</text><text x="510" y="75" fill="#888" font-size="10" font-family="monospace">Avg Speed (Mbps)</text><text x="700" y="75" fill="#888" font-size="10" font-family="monospace">CPU Peak (%)</text><text x="890" y="75" fill="#888" font-size="10" font-family="monospace">Mem Peak (MB)</text><line x1="10" y1="82" x2="1090" y2="82" stroke="#333" stroke-width="1"/><text x="15" y="108" fill="#ddd" font-size="11" font-family="monospace" font-weight="bold">sz5gb_raw</text><text x="15" y="122" fill="#888" font-size="9" font-family="monospace">5 GB raw download</text><rect x="320" y="95" width="140" height="14" fill="#F5A623" opacity="0.9" rx="2"/><rect x="320" y="112" width="95" height="14" fill="#4A90D9" opacity="0.9" rx="2"/><text x="463" y="105" fill="#ddd" font-size="8" font-family="monospace">6.0</text><text x="418.13916065254034" y="122" fill="#ddd" font-size="8" font-family="monospace">4.1</text><rect x="510" y="95" width="95" height="14" fill="#F5A623" opacity="0.9" rx="2"/><rect x="510" y="112" width="140" height="14" fill="#4A90D9" opacity="0.9" rx="2"/><text x="608.1391606525403" y="105" fill="#ddd" font-size="8" font-family="monospace">7110.1</text><text x="653" y="122" fill="#ddd" font-size="8" font-family="monospace">10462.7</text><rect x="700" y="95" width="48" height="14" fill="#F5A623" opacity="0.9" rx="2"/><rect x="700" y="112" width="140" height="14" fill="#4A90D9" opacity="0.9" rx="2"/><text x="750.876274570765" y="105" fill="#ddd" font-size="8" font-family="monospace">151.3</text><text x="843" y="122" fill="#ddd" font-size="8" font-family="monospace">442.5</text><rect x="890" y="95" width="140" height="14" fill="#F5A623" opacity="0.9" rx="2"/><rect x="890" y="112" width="114" height="14" fill="#4A90D9" opacity="0.9" rx="2"/><text x="1033" y="105" fill="#ddd" font-size="8" font-family="monospace">239.0</text><text x="1007.1361051186507" y="122" fill="#ddd" font-size="8" font-family="monospace">194.9</text><line x1="10" y1="175" x2="1090" y2="175" stroke="#333" stroke-width="1"/><text x="15" y="198" fill="#ddd" font-size="11" font-family="monospace" font-weight="bold">sz5gb_par2</text><text x="15" y="212" fill="#888" font-size="9" font-family="monospace">5 GB download + par2 repair (3% missing)</text><rect x="320" y="185" width="140" height="14" fill="#F5A623" opacity="0.9" rx="2"/><rect x="320" y="202" width="23" height="14" fill="#4A90D9" opacity="0.9" rx="2"/><text x="463" y="195" fill="#ddd" font-size="8" font-family="monospace">30.3</text><text x="346.48729153355947" y="212" fill="#ddd" font-size="8" font-family="monospace">5.1</text><rect x="510" y="185" width="23" height="14" fill="#F5A623" opacity="0.9" rx="2"/><rect x="510" y="202" width="140" height="14" fill="#4A90D9" opacity="0.9" rx="2"/><text x="536.4872915335595" y="195" fill="#ddd" font-size="8" font-family="monospace">1415.5</text><text x="653" y="212" fill="#ddd" font-size="8" font-family="monospace">8437.2</text><rect x="700" y="185" width="140" height="14" fill="#F5A623" opacity="0.9" rx="2"/><rect x="700" y="202" width="48" height="14" fill="#4A90D9" opacity="0.9" rx="2"/><text x="843" y="195" fill="#ddd" font-size="8" font-family="monospace">1293.0</text><text x="750.7059492643575" y="212" fill="#ddd" font-size="8" font-family="monospace">440.6</text><rect x="890" y="185" width="140" height="14" fill="#F5A623" opacity="0.9" rx="2"/><rect x="890" y="202" width="24" height="14" fill="#4A90D9" opacity="0.9" rx="2"/><text x="1033" y="195" fill="#ddd" font-size="8" font-family="monospace">1254.9</text><text x="917.4613780330267" y="212" fill="#ddd" font-size="8" font-family="monospace">219.3</text><line x1="10" y1="265" x2="1090" y2="265" stroke="#333" stroke-width="1"/><text x="15" y="288" fill="#ddd" font-size="11" font-family="monospace" font-weight="bold">sz5gb_unpack</text><text x="15" y="302" fill="#888" font-size="9" font-family="monospace">5 GB download + 7z extraction</text><rect x="320" y="275" width="140" height="14" fill="#F5A623" opacity="0.9" rx="2"/><rect x="320" y="292" width="112" height="14" fill="#4A90D9" opacity="0.9" rx="2"/><text x="463" y="285" fill="#ddd" font-size="8" font-family="monospace">9.1</text><text x="434.65388506309006" y="302" fill="#ddd" font-size="8" font-family="monospace">7.2</text><rect x="510" y="275" width="112" height="14" fill="#F5A623" opacity="0.9" rx="2"/><rect x="510" y="292" width="140" height="14" fill="#4A90D9" opacity="0.9" rx="2"/><text x="624.65388506309" y="285" fill="#ddd" font-size="8" font-family="monospace">4740.0</text><text x="653" y="302" fill="#ddd" font-size="8" font-family="monospace">5943.4</text><rect x="700" y="275" width="48" height="14" fill="#F5A623" opacity="0.9" rx="2"/><rect x="700" y="292" width="140" height="14" fill="#4A90D9" opacity="0.9" rx="2"/><text x="750.7853308621444" y="285" fill="#ddd" font-size="8" font-family="monospace">148.6</text><text x="843" y="302" fill="#ddd" font-size="8" font-family="monospace">435.3</text><rect x="890" y="275" width="127" height="14" fill="#F5A623" opacity="0.9" rx="2"/><rect x="890" y="292" width="140" height="14" fill="#4A90D9" opacity="0.9" rx="2"/><text x="1019.8960246249202" y="285" fill="#ddd" font-size="8" font-family="monospace">338.2</text><text x="1033" y="302" fill="#ddd" font-size="8" font-family="monospace">373.1</text><line x1="10" y1="355" x2="1090" y2="355" stroke="#333" stroke-width="1"/><text x="15" y="378" fill="#ddd" font-size="11" font-family="monospace" font-weight="bold">sz10gb_raw</text><text x="15" y="392" fill="#888" font-size="9" font-family="monospace">10 GB raw download</text><rect x="320" y="365" width="140" height="14" fill="#F5A623" opacity="0.9" rx="2"/><rect x="320" y="382" width="122" height="14" fill="#4A90D9" opacity="0.9" rx="2"/><text x="463" y="375" fill="#ddd" font-size="8" font-family="monospace">9.0</text><text x="445.1432206740287" y="392" fill="#ddd" font-size="8" font-family="monospace">7.9</text><rect x="510" y="365" width="122" height="14" fill="#F5A623" opacity="0.9" rx="2"/><rect x="510" y="382" width="140" height="14" fill="#4A90D9" opacity="0.9" rx="2"/><text x="635.1432206740287" y="375" fill="#ddd" font-size="8" font-family="monospace">9492.0</text><text x="653" y="392" fill="#ddd" font-size="8" font-family="monospace">10879.7</text><rect x="700" y="365" width="49" height="14" fill="#F5A623" opacity="0.9" rx="2"/><rect x="700" y="382" width="140" height="14" fill="#4A90D9" opacity="0.9" rx="2"/><text x="751.7391529380645" y="375" fill="#ddd" font-size="8" font-family="monospace">157.0</text><text x="843" y="392" fill="#ddd" font-size="8" font-family="monospace">451.1</text><rect x="890" y="365" width="140" height="14" fill="#F5A623" opacity="0.9" rx="2"/><rect x="890" y="382" width="131" height="14" fill="#4A90D9" opacity="0.9" rx="2"/><text x="1033" y="375" fill="#ddd" font-size="8" font-family="monospace">392.2</text><text x="1024.2325711098717" y="392" fill="#ddd" font-size="8" font-family="monospace">367.7</text><line x1="10" y1="445" x2="1090" y2="445" stroke="#333" stroke-width="1"/><text x="15" y="468" fill="#ddd" font-size="11" font-family="monospace" font-weight="bold">sz10gb_par2</text><text x="15" y="482" fill="#888" font-size="9" font-family="monospace">10 GB download + par2 repair (3% missing)</text><rect x="320" y="455" width="140" height="14" fill="#F5A623" opacity="0.9" rx="2"/><rect x="320" y="472" width="16" height="14" fill="#4A90D9" opacity="0.9" rx="2"/><text x="463" y="465" fill="#ddd" font-size="8" font-family="monospace">75.4</text><text x="338.88810241386" y="482" fill="#ddd" font-size="8" font-family="monospace">8.6</text><rect x="510" y="455" width="16" height="14" fill="#F5A623" opacity="0.9" rx="2"/><rect x="510" y="472" width="140" height="14" fill="#4A90D9" opacity="0.9" rx="2"/><text x="528.88810241386" y="465" fill="#ddd" font-size="8" font-family="monospace">1138.5</text><text x="653" y="482" fill="#ddd" font-size="8" font-family="monospace">10032.1</text><rect x="700" y="455" width="140" height="14" fill="#F5A623" opacity="0.9" rx="2"/><rect x="700" y="472" width="50" height="14" fill="#4A90D9" opacity="0.9" rx="2"/><text x="843" y="465" fill="#ddd" font-size="8" font-family="monospace">1411.5</text><text x="753.3541375465863" y="482" fill="#ddd" font-size="8" font-family="monospace">507.7</text><rect x="890" y="455" width="140" height="14" fill="#F5A623" opacity="0.9" rx="2"/><rect x="890" y="472" width="42" height="14" fill="#4A90D9" opacity="0.9" rx="2"/><text x="1033" y="465" fill="#ddd" font-size="8" font-family="monospace">1433.3</text><text x="934.6183836875297" y="482" fill="#ddd" font-size="8" font-family="monospace">426.1</text><line x1="10" y1="535" x2="1090" y2="535" stroke="#333" stroke-width="1"/><text x="15" y="558" fill="#ddd" font-size="11" font-family="monospace" font-weight="bold">sz10gb_unpack</text><text x="15" y="572" fill="#888" font-size="9" font-family="monospace">10 GB download + 7z extraction</text><rect x="320" y="545" width="99" height="14" fill="#F5A623" opacity="0.9" rx="2"/><rect x="320" y="562" width="140" height="14" fill="#4A90D9" opacity="0.9" rx="2"/><text x="422.3950738415464" y="555" fill="#ddd" font-size="8" font-family="monospace">18.1</text><text x="463" y="572" fill="#ddd" font-size="8" font-family="monospace">25.6</text><rect x="510" y="545" width="140" height="14" fill="#F5A623" opacity="0.9" rx="2"/><rect x="510" y="562" width="99" height="14" fill="#4A90D9" opacity="0.9" rx="2"/><text x="653" y="555" fill="#ddd" font-size="8" font-family="monospace">4735.1</text><text x="612.3950738415464" y="572" fill="#ddd" font-size="8" font-family="monospace">3361.7</text><rect x="700" y="545" width="46" height="14" fill="#F5A623" opacity="0.9" rx="2"/><rect x="700" y="562" width="140" height="14" fill="#4A90D9" opacity="0.9" rx="2"/><text x="748.8129631930657" y="555" fill="#ddd" font-size="8" font-family="monospace">148.7</text><text x="843" y="572" fill="#ddd" font-size="8" font-family="monospace">454.3</text><rect x="890" y="545" width="127" height="14" fill="#F5A623" opacity="0.9" rx="2"/><rect x="890" y="562" width="140" height="14" fill="#4A90D9" opacity="0.9" rx="2"/><text x="1020.3449726523748" y="555" fill="#ddd" font-size="8" font-family="monospace">669.8</text><text x="1033" y="572" fill="#ddd" font-size="8" font-family="monospace">736.3</text></svg>