<svg xmlns="http://www.w3.org/2000/svg" width="900" height="532" style="background:#1a1a2e">
<text x="450" y="28" fill="#ddd" font-size="16" text-anchor="middle" font-family="monospace" font-weight="bold">sz5gb_unpack — Comparison</text>
<text x="450" y="48" fill="#888" font-size="12" text-anchor="middle" font-family="monospace">5 GB download + 7z extraction</text>
<text x="680" y="68" fill="#F5A623" font-size="11" font-family="monospace">■ SABnzbd</text>
<text x="790" y="68" fill="#4A90D9" font-size="11" font-family="monospace">■ rustnzbd</text><text x="20" y="100" fill="#888" font-size="10" font-family="monospace">Timing</text><line x1="20" y1="104" x2="880" y2="104" stroke="#333" stroke-width="1"/><text x="160" y="122" fill="#ddd" font-size="11" text-anchor="end" font-family="monospace">Total Time</text><rect x="190" y="110" width="320.0" height="16" fill="#F5A623" opacity="0.9" rx="2"/><text x="515" y="122" fill="#ddd" font-size="9" font-family="monospace">9.1 s</text><rect x="190" y="130" width="255.2" height="16" fill="#4A90D9" opacity="0.9" rx="2"/><text x="450.2088801442058" y="142" fill="#ddd" font-size="9" font-family="monospace">7.2 s</text><text x="160" y="166" fill="#ddd" font-size="11" text-anchor="end" font-family="monospace">Download</text><rect x="190" y="154" width="320.0" height="16" fill="#F5A623" opacity="0.9" rx="2"/><text x="515" y="166" fill="#ddd" font-size="9" font-family="monospace">7.1 s</text><rect x="190" y="174" width="190.7" height="16" fill="#4A90D9" opacity="0.9" rx="2"/><text x="385.731436918623" y="186" fill="#ddd" font-size="9" font-family="monospace">4.2 s</text><text x="160" y="210" fill="#ddd" font-size="11" text-anchor="end" font-family="monospace">Unpack</text><rect x="190" y="198" width="212.1" height="16" fill="#F5A623" opacity="0.9" rx="2"/><text x="407.07525119687216" y="210" fill="#ddd" font-size="9" font-family="monospace">2.0 s</text><rect x="190" y="218" width="320.0" height="16" fill="#4A90D9" opacity="0.9" rx="2"/><text x="515" y="230" fill="#ddd" font-size="9" font-family="monospace">3.0 s</text><text x="20" y="262" fill="#888" font-size="10" font-family="monospace">Speed</text><line x1="20" y1="266" x2="880" y2="266" stroke="#333" stroke-width="1"/><text x="160" y="284" fill="#ddd" font-size="11" text-anchor="end" font-family="monospace">Avg Speed</text><rect x="190" y="272" width="255.2" height="16" fill="#F5A623" opacity="0.9" rx="2"/><text x="450.20888014420586" y="284" fill="#ddd" font-size="9" font-family="monospace">4740.0 Mbps</text><rect x="190" y="292" width="320.0" height="16" fill="#4A90D9" opacity="0.9" rx="2"/><text x="515" y="304" fill="#ddd" font-size="9" font-family="monospace">5943.4 Mbps</text><text x="160" y="328" fill="#ddd" font-size="11" text-anchor="end" font-family="monospace">Peak Speed</text><rect x="190" y="316" width="276.7" height="16" fill="#F5A623" opacity="0.9" rx="2"/><text x="471.66462580193144" y="328" fill="#ddd" font-size="9" font-family="monospace">10385.3 Mbps</text><rect x="190" y="336" width="320.0" height="16" fill="#4A90D9" opacity="0.9" rx="2"/><text x="515" y="348" fill="#ddd" font-size="9" font-family="monospace">12012.0 Mbps</text><text x="20" y="380" fill="#888" font-size="10" font-family="monospace">Resources</text><line x1="20" y1="384" x2="880" y2="384" stroke="#333" stroke-width="1"/><text x="160" y="402" fill="#ddd" font-size="11" text-anchor="end" font-family="monospace">CPU Avg</text><rect x="190" y="390" width="120.1" height="16" fill="#F5A623" opacity="0.9" rx="2"/><text x="315.12938799557696" y="402" fill="#ddd" font-size="9" font-family="monospace">104.8 %</text><rect x="190" y="410" width="320.0" height="16" fill="#4A90D9" opacity="0.9" rx="2"/><text x="515" y="422" fill="#ddd" font-size="9" font-family="monospace">279.2 %</text><text x="160" y="446" fill="#ddd" font-size="11" text-anchor="end" font-family="monospace">CPU Peak</text><rect x="190" y="434" width="109.2" height="16" fill="#F5A623" opacity="0.9" rx="2"/><text x="304.22361339918723" y="446" fill="#ddd" font-size="9" font-family="monospace">148.6 %</text><rect x="190" y="454" width="320.0" height="16" fill="#4A90D9" opacity="0.9" rx="2"/><text x="515" y="466" fill="#ddd" font-size="9" font-family="monospace">435.3 %</text><text x="160" y="490" fill="#ddd" font-size="11" text-anchor="end" font-family="monospace">Mem Peak</text><rect x="190" y="478" width="290.0" height="16" fill="#F5A623" opacity="0.9" rx="2"/><text x="485.0480562855318" y="490" fill="#ddd" font-size="9" font-family="monospace">338.2 MB</text><rect x="190" y="498" width="320.0" height="16" fill="#4A90D9" opacity="0.9" rx="2"/><text x="515" y="510" fill="#ddd" font-size="9" font-family="monospace">373.1 MB</text></svg>